<svg xmlns="http://www.w3.org/2000/svg" xmlns:xlink="http://www.w3.org/1999/xlink" viewBox="0 0 356.9 274.9"><defs><style>.cls-1,.cls-2{fill:#fff;}.cls-1,.cls-3{stroke:#ccc;stroke-width:15.48px;}.cls-11,.cls-3,.cls-7{fill:none;}.cls-4,.cls-6{fill:#ffd500;}.cls-10,.cls-11,.cls-12,.cls-13,.cls-4,.cls-5,.cls-7{stroke:#000;stroke-width:5.16px;}.cls-8{fill:url(#Degradado_sin_nombre_2);}.cls-13,.cls-9{fill:#ccc;}.cls-10,.cls-11,.cls-12,.cls-13{stroke-linecap:round;stroke-linejoin:round;}.cls-12{fill:#999;}</style><radialGradient id="Degradado_sin_nombre_2" cx="143.09" cy="5374.76" r="243.03" gradientTransform="matrix(1, 0, 0, -1, -11.76, 5446.31)" gradientUnits="userSpaceOnUse"><stop offset="0.5" stop-color="#ffd500"/><stop offset="1"/></radialGradient></defs><title>casco_1</title><g id="Capa_2" data-name="Capa 2"><g id="Pagina_Principal_-_Escritorio" data-name="Pagina Principal - Escritorio"><path class="cls-1" d="M242.1,232.6s-29.4,15.9-74.6,31.6c-27.2,9.5-75.7-6.5-100.9-13.2S-2.3,230.4,9.8,218.3s46.9-37.9,46.9-37.9-33.1,54.7,185.4,52.2Z"/><path class="cls-1" d="M40.6,192.8c0,23.1,69.1,41.8,154.3,41.8s154.3-18.7,154.3-41.8c-17.8-12.9-15.2-23.7-15.2-23.7H55.1s2.5,10.8-14.5,23.7Z"/><path class="cls-2" d="M317,86.4c-3.4-7.9-16.8-35-44-54.2C223.8-2.5,162.7,4.1,126.8,25c-24.3,14.1-41,32.3-54.3,59-3.2,6.5-9.2,20.4-13.4,40.3-3.5,17.3-3.9,28.2-4.4,46.3,0,15.1,28.7,28.8,78.1,35.4,69.2,9.3,152.8,1.2,186.8-18,9.7-5.5,14.2-11.3,14.2-17-.7-23.4-1.6-49.9-16.8-84.6Z"/><path class="cls-3" d="M317,86.4c-3.4-7.9-16.8-35-44-54.2C223.8-2.5,162.7,4.1,126.8,25c-24.3,14.1-41,32.3-54.3,59-3.2,6.5-9.2,20.4-13.4,40.3-3.5,17.3-3.9,28.2-4.4,46.3,0,15.1,28.7,28.8,78.1,35.4,69.2,9.3,152.8,1.2,186.8-18,9.7-5.5,14.2-11.3,14.2-17-.7-23.4-1.6-49.9-16.8-84.6Z"/><path class="cls-4" d="M243.3,231.9s-29.5,15.8-74.6,31.6C141.4,273,93,257,67.8,250.3S-1.1,229.7,11,217.6s46.9-37.9,46.9-37.9-33.1,54.7,185.4,52.2Z"/><path class="cls-5" d="M41.8,192.1c0,23.1,69,41.8,154.3,41.8s154.2-18.7,154.2-41.8c-17.7-12.9-15.2-23.7-15.2-23.7H56.2c.1,0,2.5,10.8-14.4,23.7Z"/><path class="cls-6" d="M318.2,85.7c-3.5-7.9-16.8-35-44-54.2C224.9-3.2,163.9,3.4,127.9,24.3c-24.2,14.1-41,32.3-54.2,59a169.5,169.5,0,0,0-13.4,40.3c-3.5,17.3-3.9,28.2-4.5,46.3,0,15.1,28.8,28.7,78.2,35.4,69.2,9.3,152.8,1.2,186.7-18,9.7-5.5,14.3-11.3,14.3-17-.7-23.4-1.6-49.9-16.8-84.6Z"/><path class="cls-7" d="M318.2,85.7c-3.5-7.9-16.8-35-44-54.2C224.9-3.2,163.9,3.4,127.9,24.3c-24.2,14.1-41,32.3-54.2,59a169.5,169.5,0,0,0-13.4,40.3c-3.5,17.3-3.9,28.2-4.5,46.3,0,15.1,28.8,28.7,78.2,35.4,69.2,9.3,152.8,1.2,186.7-18,9.7-5.5,14.3-11.3,14.3-17-.7-23.4-1.6-49.9-16.8-84.6Z"/><path class="cls-8" d="M318.2,85.7c-3.5-7.9-16.8-35-44-54.2C224.9-3.2,163.9,3.4,127.9,24.3c-24.2,14.1-41,32.3-54.2,59a169.5,169.5,0,0,0-13.4,40.3c-3.5,17.3-3.9,28.2-4.5,46.3,0,15.1,28.8,28.7,78.2,35.4,69.2,9.3,152.8,1.2,186.7-18,9.7-5.5,14.3-11.3,14.3-17-.7-23.4-1.6-49.9-16.8-84.6Z"/><path class="cls-9" d="M267.8,26.3C164.2-39.8,59,95.9,62.3,183.1l-9.7,3.8C52.6,92,155.6-48,267.8,26.3"/><path class="cls-9" d="M52.6,187l9.7-3.9L47.4,201.2Z"/><path class="cls-10" d="M92.9,200.6c0-86,51.3-220,144.2-189.5C137.5-22.7,52.7,100.7,52.7,186.9l-5.3,14.3,40.3,13.6,5.2-14.2Z"/><path class="cls-9" d="M92.9,200.6l-5.2,14.2,23.6-16.5c-3.3-87.2,52.8-238.1,156.5-172C155.6-48,92.9,105.6,92.9,200.6Z"/><path class="cls-11" d="M92.9,200.6l-5.2,14.2,23.6-16.5c-3.3-87.2,52.8-238.1,156.5-172C155.6-48,92.9,105.6,92.9,200.6Z"/><path class="cls-12" d="M229.8,173.2l1.6-27.7,10.2,10.3,1.7,41.8Z"/><path d="M294.1,163.3l1.6-22.7,5.4,5.4,1.6,41.7Z"/><path class="cls-10" d="M243.3,197.6s56.6-7,59.4-9.9-1.6-41.7-1.6-41.7l-59.5,9.8Z"/><path class="cls-13" d="M241.6,155.8l59.5-9.8-10.3-10.3-59.4,9.8Z"/></g></g></svg>