<svg xmlns="http://www.w3.org/2000/svg" viewBox="0 0 524.7 332.3"><defs><style>.cls-1{opacity:0.3;}.cls-2{fill:#fff;stroke:#11335d;stroke-miterlimit:10;}</style></defs><title>logo-empresa_1</title><g id="Capa_2" data-name="Capa 2"><g id="Capa_1-2" data-name="Capa 1"><g class="cls-1"><path class="cls-2" d="M459,234c1.6,3.3,4.9,2.3,7.5,3a21.9,21.9,0,0,0,6,2.3c1.2,1.1,2.6,2.1,2.9,3.9a1.8,1.8,0,0,1-1,.4h-1.1a42.7,42.7,0,0,0-7-1.2c-3.4-.7-6.9-.8-10.1-2.3C454.8,237.2,455.7,235.5,459,234Z"/><path class="cls-2" d="M474,243.1h1.4c10.4,1.8,20.6,4.3,30.8,7,5.6,1.5,11.1,3.2,16.6,5.2-7.3,1.2-14.5.2-21.7-.4h.1c-8.2-2-16.7-2.6-25.1-3.6-40.2-4.7-80.5-7.9-120.9-9.9-54.8-2.8-109.6-2.8-164.5-.5s-108,6.1-161.8,11.1c-8.3.8-16.6,1.6-25,2,23.3-7.3,47.2-11.8,71.1-16.4a2.4,2.4,0,0,1,2.3-.1c-1.6,3.3-4.8,1.8-7.2,2.7,2.9-.8,5.7.3,8.5.7,8,1.2,16.1.6,24.1-.4,5.8-.8,11.5-1.9,17.4-2.5s13-3.3,19.5-5c1.2-.3,2.5-1.2,2.6-2.4s-1.5-1.4-2.4-1.8c-2.6-1.2-4.2-2.9-3.7-6.1s-1.2-6.3-3.3-8.8c-.2-1.7,2-2.6,1.6-4.4.1-7.2.3-14.5.1-21.7-.1-3.6,1-4,4.3-3.5l148.9,24.7,11.8,1.9c4.6.7,8.8-1.4,13.1-2.5,9.6-2.3,19.1-4.9,28.6-7.4l.5.2c1.5.9,1.8,2.6,2.6,3.9s3.6,4.6,6.9,4.8a29.2,29.2,0,0,1,4.1,3.7c3.5,3.2,6.7,3.1,10-.3a10.6,10.6,0,0,0,3.1-5.4,7.3,7.3,0,0,1,2-3.9l1-1.1c1.7-1.7,1.5-2.6-1-2.9s-7.2-.1-10.7-1c-1.1-.3-2.6,0-2.9-1.2s1.3-1.6,2.1-2.2c9.1-3.1,18.6-4.9,27.8-7.5,2.8-.8,5.5-1.6,8.3-2.2s2.9-.8,4.4-.1,1.7,2.7,1.7,4.3c0,10.2.1,20.4-.1,30.6a49.2,49.2,0,0,1-1.1,7.7c-1,1.7-2.8,1.9-4.5,2.2s-3,0-4.5.2-3.8-.2-4,1.8,2,2.5,3.6,2.8c10.7,2.1,21.2,5.3,32.3,6.2,14.3,1.3,28.6,2,42.9,1.9C468.8,243.4,471.4,243.6,474,243.1Z"/><path class="cls-2" d="M424.7,291c8.9,2.5,11.1,5.6,10.2,13.9-.7,6.1-1.5,12.1-2.2,18.2-.2,1.4-.9,3.3,1,3.9s2.1-1.4,2.6-2.6.5-1.6,1.5-1.1.4,1.3.2,2c-1.1,4.1-5.3,6.7-10.3,6.3s-7.2-3.8-7.5-8.5,1-11.2,1.5-16.8c.2-2.6.8-5.2.9-7.8s.1-4.6-2.4-5.8-5.9-.7-6.4,3.5c-1.2,9.7-2.4,19.3-3.7,29-.3,2.1-.6,3.8,2.5,3.4a1.1,1.1,0,0,1,1.3,1.1c0,.8-.7,1-1.3,1H393.9c-.7,0-1.3-.2-1.2-1a1.1,1.1,0,0,1,1.3-1c2.7.4,3.3-1.1,3.6-3.4,2.5-20.8,5.2-41.6,7.8-62.4.3-2.2.7-4.1-2.5-3.8a.9.9,0,0,1-1-1.2,1,1,0,0,1,1.1-.8h20.9c15.9-.3,18.7,13.7,13.8,23.8C435,285.9,430.7,288.9,424.7,291Z"/><path class="cls-2" d="M71,329.9c-8.9,1.8-17.9.5-26.8.9-.8,0-2,.2-1.9-1.1s.9-1.1,1.7-1,2-.5,2.2-1.9c1.6-13.8,3.3-27.7,5-41.5,1.6-7.9,2.2-16,3.3-24,.3-1.9-.6-2.2-2-2.1s-1.7,0-1.7-.9.8-1.2,1.6-1.1c8,.2,16-.8,23.9.6,10.9,1.9,15.4,15.2,8.9,25.4-2.9,4.6-7.1,7.6-11.9,9.8.1.3,0,.7.1.8,11.3,4.6,14.7,15,8.4,26.2A24.7,24.7,0,0,1,71,329.9Z"/><path class="cls-2" d="M393.4,257.6c-.7,6.1-1.5,12.3-2.3,18.4-.1.7-.5,1.2-1.3,1.1s-.9-1-.9-1.7a25.9,25.9,0,0,0-3.3-12.5c-3.5-5.9-10.4-6-13.8,0s-2.2,11.3,1.2,16.6,7.4,8.1,11.2,12c9.6,10,9.4,26.9-.4,35.7a17,17,0,0,1-21.3,1.4c-2.5-1.7-4.8-2.5-6.2,1.2-.2.6-.7,1.1-1.4.7s-.6-1-.6-1.6c.7-6.3,1.5-12.6,2.3-18.9.1-.9.3-2,1.4-1.8s1,1.3.9,2.2a30,30,0,0,0,1.1,7.8,19.5,19.5,0,0,0,2.7,6.5c2.7,3.8,6.3,5.7,10.9,4.9s7.1-4.8,7.8-9.2-1-10.5-4.7-14.8-10.3-9.9-13.8-16.2c-5.2-9.4-2.9-22.6,5.5-29.2,5.3-4.1,11.1-5.1,17.1-1.6,2.7,1.5,5,2.4,6.8-1.5A1.9,1.9,0,0,1,393.4,257.6Z"/><path class="cls-2" d="M149.4,330.8H135.9c-.9,0-2.3.4-2.4-1s1.1-1.2,2-1.1,2.5-.9,2.7-2.7c1.6-13,3.3-26,4.9-39,1-8.2,2-16.3,3.1-24.5.2-1.9.5-3.6-2.3-3.4-.6,0-1.3-.1-1.3-.9s.6-1.1,1.3-1.1h18.7c.7,0,1.3.2,1.3,1a1.1,1.1,0,0,1-1.2,1.1c-3.5-.5-3.3,1.9-3.6,4.2l-7.8,61.3c-.5,4.2.8,5.2,4.7,3.5s6.9-6,8.6-10.4c.8-2,1.2-4.1,1.8-6.1s.4-1.3,1.2-1.1.8.9.8,1.5c-.8,5.7-1.7,11.4-2.4,17-.2,1.8-1.3,1.8-2.7,1.8-4.7-.2-9.3-.1-13.9-.1Z"/><path class="cls-2" d="M266.4,330.8H252.5c-.9,0-2.3.4-2.3-1.1s1.2-1.2,2-1.1c2.3.3,2.5-1.1,2.7-3q3.9-31.7,8-63.1c.3-2.1.5-3.9-2.5-3.5a.9.9,0,0,1-1.1-1.1c.1-.8.7-.9,1.4-.9h18.4c.6,0,1.3.1,1.4.9s-.9,1.2-1.5,1.1c-2.5-.3-2.8,1.2-3,3.2-2.6,21.1-5.3,42.1-8.1,63.2-.4,3.3,1.1,3.6,3.5,3.2s5.9-3.6,7.8-6.5a30.3,30.3,0,0,0,3.9-10.1c.2-.7.3-1.6,1.4-1.3s.7,1,.6,1.6c-.8,5.7-1.6,11.4-2.3,17.1-.2,1.8-1.6,1.6-2.8,1.6-4.6-.2-9.1-.2-13.6-.2Z"/><path class="cls-2" d="M456,330.8H442.5c-.9,0-2.3.3-2.3-1.1s1.3-1,2.1-.9,2.2-.8,2.4-2.4l8.1-63.8c.2-1.8.5-3.6-2.4-3.4-.6.1-1.3-.2-1.1-1.1s.9-.9,1.4-.9h18.4c.6,0,1.3,0,1.4.8a1,1,0,0,1-1.2,1.1c-3.4-.5-3.4,1.9-3.7,4.2q-3.9,31.2-7.9,62.4c-.4,3,.8,3.6,3.3,3,5.7-1.3,8-6,10.1-10.7a42.7,42.7,0,0,0,1.8-6.1c.2-.6.4-1.3,1.2-1.2s.9,1,.8,1.7c-.8,5.4-1.6,10.9-2.2,16.3-.2,1.8-1.1,2.2-2.7,2.2-4.8-.2-9.4-.1-14-.1Z"/><path class="cls-2" d="M185.1,330.8c-6.1-2.1-8.4-7.5-9.5-12.9-3.9-18.9-.8-36.7,9.6-53.1a19.3,19.3,0,0,1,7.2-7c3.1-1.6,6.5-2.6,9.3.3s2.8,2.2,4.4.1c.4-.6,1-1.2,1.9-.8s.6,1.3.5,2c-.6,4.7-1.1,9.4-1.7,14.1-.1.9-.2,1.9-1.3,2s-1-1.2-1.1-1.9a38.4,38.4,0,0,0-2.2-11c-.8-2-1.8-4-4.4-4s-3.3,2-3.9,4a43.1,43.1,0,0,0-1.5,6.2q-3.6,28.2-7,56.5c-.1,4.1,2.9,4.5,6,5C189.3,331.5,187.2,331.2,185.1,330.8Z"/><path class="cls-2" d="M120.7,267.8c1,11.9,2.1,23.8,3.1,35.7.7,7.3,1.4,14.6,2,22,.2,1.9.2,3.6,2.8,3.2.7-.1,1.7,0,1.7,1s-1.1,1.2-1.9,1.2H111.6c-.9,0-2,.1-2-1.1s.9-1.2,1.6-1.1,2.3-.9,2.1-2.5c-.4-4.5-.8-8.9-1.1-13.4-.1-1.3-.4-2.5-2.1-2.5h-9.4c-1.9,0-2.2,1.7-3.2,2.7s-.6-.6-.8-1c.1-2.2,1.2-4.1,2.2-6,.5-.4.2-1.6,1.1-1.6s.9.9,1,1.6.1.7.1,1a9.4,9.4,0,0,0,9.2-.1c-.2-7.1-1.1-14.1-2-21.1a2,2,0,0,0-1.1-1.4c-.8-.8-.5-1.7-.3-2.6,2.6-7.9,5.3-15.7,7.8-23.6.5-1.6,1.3-2.2,2.9-2.1s1.8,1.6,1.9,2.9-.1,4,.8,5.8A1.8,1.8,0,0,1,120.7,267.8Z"/><path class="cls-2" d="M308.1,276.6c2-6.2,4-12.3,5.9-18.5a2.5,2.5,0,0,1,3.1-2c1.9.2,1.6,1.6,1.7,2.8,2,22.1,4.1,44.2,6,66.3.2,1.9,0,3.9,3,3.5.8-.1,1.6.1,1.6,1.1s-.8,1.1-1.6,1.1H310.2c-.6,0-1.3,0-1.5-.8s.5-1.4,1.3-1.3c3,.3,2.4-1.7,2.2-3.4-.4-4.8-.9-9.7-1.3-14.5-3.6-1.2-7.3-.2-11-.6-1-.1-2.7.5-2.6-1.1s1.6-1.2,2.7-1.1h7.5a2.2,2.2,0,0,0,2.5-2.5,58.4,58.4,0,0,0-1.4-12.5c-1.1-2.7-.9-5.4-.9-8.2S306.6,279.2,308.1,276.6Z"/><path class="cls-2" d="M227.9,270.6c1.3-4.1,2.7-8.3,3.9-12.4a2.5,2.5,0,0,1,3-2c1.8.2,1.6,1.6,1.7,2.8,1.4,14.6,2.7,29.3,4.1,43.9l2.1,22.3c.2,1.9.1,3.9,3,3.5.8-.1,1.6.3,1.5,1.2s-1,.9-1.8.9H228.2c-.7,0-1.7.1-1.8-.8s.9-1.4,1.7-1.3c2.5.3,2.2-1.3,2.1-2.8l-1.5-15.2a33.4,33.4,0,0,0-12.6.1h0c-1.9-.2-1.1-1.5-1-2.5h0c2.8-.8,5.6.1,8.5-.2,1.3-.1,2.8.4,3.7-1.1a2.3,2.3,0,0,0,.3-1.1,70.2,70.2,0,0,0-1.9-21.5C224.5,278.9,227.1,275.1,227.9,270.6Z"/><path class="cls-2" d="M492.9,323.3c0,4.9-2.9,8.2-7.2,8.3s-7.7-3.4-7.7-8.2,3.1-8.3,7.2-8.3S492.9,318.4,492.9,323.3Z"/><path class="cls-2" d="M309.7,292.5c1.7,4.8,1.3,9.9,1.8,14.9.1,1.6-1.3,1.5-2.4,1.5-3.6,0-7.2,0-10.9.2,3.1.9,6.2.3,9.4.6,1.3.1,2.8-.7,3.6,1-3.5-.7-7.1-.1-10.7-.3-1.8-.1-2.2,1.1-2.7,2.5-1.4,3.4-1.8,7.1-3.8,10.3-.3-.8-1.3-.1-1.7-.7,5-14.7,9.9-29.5,14.9-44.2a12.9,12.9,0,0,1,.9-1.6c-1.3,2.7,1.1,5.1.8,7.7-3.2,6.5-4.8,13.6-7.2,20.4-.5,1.5.2,2.2,1.8,2.5,5.1.8,6.4-.4,5.7-5.6C308.8,298.6,307.9,295.5,309.7,292.5Z"/><path class="cls-2" d="M228.6,307.4c.1,1.4-.7,1.7-1.8,1.6-3.9-.1-7.9.6-11.7-.8,3.7-12.7,8-25.2,12.8-37.6,0,.1.1.3,0,.4-4.1,8.4.2,16.8.4,25.2.1,3.6.5,7.1.3,10.7-1.3-.2-1.4-1.3-1.5-2.3-.3-6.1-1.2-12.1-1.7-18.2-1.8,5.8-3.7,11.5-5.7,17.2-1,2.7-.1,3.6,2.6,3.5S226.5,306.9,228.6,307.4Z"/><path class="cls-2" d="M96.8,312l.8,1c.3,3.3-1.6,6.1-2.3,9.2s-1,5,3.1,6.5c.6.2,1.2.5,1.2,1.2s-.7,1-1.3,1H87.4c-.8,0-1.5-.2-1.5-1.2s.7-1,1.4-1c3.4.2,4.3-2.3,5.3-4.8S94.8,315.7,96.8,312Z"/><path class="cls-2" d="M100.4,306.7c-.1-.5-.3-1-.4-1.5l-1.1.9a245.3,245.3,0,0,1,8.1-24.2c.3.8-.1,1.9.9,2.5s.6,2.4.2,3.5c-2.1,5.7-3.9,11.4-5.9,17.1C102,305.7,101.9,307,100.4,306.7Z"/><path class="cls-2" d="M292.3,322.4c.8-.4,1.9-1.3,1.7.7s-1.4,5.4,2.9,5.5c.8,0,1.7.1,1.7,1s-1.1,1.1-1.9,1.1H287c-.8,0-1.6,0-1.8-.9a1.1,1.1,0,0,1,1.1-1.2C290.3,328.5,291.2,325.4,292.3,322.4Z"/><path class="cls-2" d="M215.1,308.1c.2.9,0,1.9,1,2.5l-3.4,10.6c-1.9,5.7-1.8,5.9,3.4,8-4,1.3-5.9.1-6.1-3.9a8.2,8.2,0,0,0-.2-2.2C211.5,318.1,212.6,312.9,215.1,308.1Z"/><path class="cls-2" d="M209.8,323.1c.3.5.9,1,.9,1.5-.3,4,1.9,5,5.4,4.6.6.9,0,1.5-.8,1.5-3.7.1-7.4,0-11.1,0-.7,0-1.3-.2-1.3-1a1.1,1.1,0,0,1,1.2-1.1C208,328.9,208.6,325.7,209.8,323.1Z"/><path class="cls-2" d="M199.4,317.7a12.5,12.5,0,0,1,1.4-5c1.8-.2,1.3,1.2,1.3,2-.2,4.7-1.1,9.3-1.7,13.9-.4,2.9-2.1,1.2-3.3,0l-.7-.6c-1-1.1-.4-2.2-.1-3.3h0A19.5,19.5,0,0,0,199.4,317.7Z"/><path class="cls-2" d="M81.5,232.5c-.6.2-1.2.6-1.7.5a48.8,48.8,0,0,1-10.9-5.6l.2-.3c4.1-1.5,7.6.8,11.3,1.8a3.3,3.3,0,0,1,1.7,2.8A.9.9,0,0,1,81.5,232.5Z"/><path class="cls-2" d="M196.3,324.6c0,1.1,0,2.2.1,3.3-2.8,1.9-5.3,4.7-9.3,3.7-.7-.2-1.5-.2-2-.8h5.3c-3.2-.7-5.9-1.4-5.1-5.6,1.9,5.1,5,5.7,8.8,1.8Z"/><path class="cls-2" d="M197.1,328.5c1.9,1.3,3.1,1.5,3.1-1.5s.8-7.1,1.3-10.7c.2-1.3.6-2.8-.8-3.8.2-1,.2-2.4,1.3-2.3s.9,1.5.7,2.4c-.7,5.2-1.3,10.3-2,15.5-.1.9.1,2.2-1.2,2.4S197.5,329.9,197.1,328.5Z"/><path class="cls-2" d="M77.2,237.8H75c1.3-1.3,3.2-1.1,4.6-2s2.9-1.2,1.9-3.2h.4c1.8-.8,2.6.5,3.5,1.6a2,2,0,0,1-1.2,3.2C81.9,238,79.6,238.8,77.2,237.8Z"/><path class="cls-2" d="M216,310.6a18.2,18.2,0,0,1,12.6-.1A88.4,88.4,0,0,0,216,310.6Z"/><path class="cls-2" d="M199.4,317.7c.4,3-.9,5.1-3,7C197.3,322.3,198.3,320,199.4,317.7Z"/><path class="cls-2" d="M305.2,204.2c-3.3,1-3.7,0-3.7-2.9q.2-49.5.1-98.9V4.2c0-1.2-.7-2.8.6-3.5s2.2.8,3.2,1.5L335,21.9c2.4,1.6,3.5,3.3,3.4,6.3q-.1,81.4,0,163c0,2.9-.8,4-3.7,4.7"/><path class="cls-2" d="M134.8,149.4c0-32.4.1-64.7.1-97.1,0-1.6.2-3.2.2-4.9l26.5-13c3.7-1.8,3.8-1.8,3.8,2.4q0,71.4.1,142.8c0,3.5-.9,4.2-4.3,3.5-7.7-1.5-15.5-2.7-23.3-3.8-2.5-.4-3.5-1.3-3.3-3.8s.1-4.7.1-7.1,2.4-.1,3.5.3,2.3.4,2.1-1.5c-.6-4.2-1.1-8.3-1.4-12.5-.2-2-.2-4.4-3.5-3.7C134.8,151.2,134.5,150.2,134.8,149.4Z"/><path class="cls-2" d="M297.1,10.8c0,8.8,0,8.9-8.1,11.8L184.4,59.3l-9.2,3.2c-2.3.9-2.8.1-2.8-2.1-.5-12.2-.5-12.2,10.9-16.4L292.6,2.8c4.5-1.7,4.5-1.7,4.5,3.2Z"/><path class="cls-2" d="M296.4,74.6c0,9.9,0,10-9.5,11.5l-97.5,15.8c-4.7.8-9.4,1.5-14,2.4-2.4.5-3-.4-3-2.7-.2-10.2-.3-10.1,9.9-12.3L290.5,65.7c5.9-1.3,5.9-1.4,5.9,4.8Z"/><path class="cls-2" d="M234.3,146c-19.2,0-38.5-.1-57.7.1-3.1,0-4.4-.5-4.3-4.1.3-9.5.1-9.5,9.6-9.9,36.9-1.8,73.9-3.5,110.8-5.4,3-.2,4,.6,3.8,3.6a85.5,85.5,0,0,0,0,12.4c.3,3.4-.8,4.2-4.1,4.1-19.4-.2-38.7-.1-58.1-.1Z"/><path class="cls-2" d="M184,124.9l-9,.7c-2,.2-2.8-.6-2.7-2.5v-.7c-.2-10-.2-9.9,9.7-11.1L284.9,98.1c2.7-.3,5.5-.6,8.2-1.1s3.5-.1,3.4,2.7c-.2,4.7-.2,9.5,0,14.2.1,2.3-.8,3-3,3.2l-94.6,6.8c-4.9.2-9.9.6-14.9,1Z"/><path class="cls-2" d="M296.5,42.6c0,10,0,10-9.6,12.5L177.2,83.8c-4.7,1.2-4.7,1.2-4.7-3.5,0-8.6,0-8.7,8.1-11.2L281.7,37.2c3.8-1.2,7.6-2.3,11.4-3.7s3.8-.1,3.5,2.8A44.2,44.2,0,0,0,296.5,42.6Z"/><path class="cls-2" d="M234.2,156.8l59.1,1.9c2.4.1,3.3.8,3.2,3.2q-.3,6.8,0,13.5c.1,2.7-.8,3.4-3.4,3.2l-39.9-3.4-65.3-5.7c-4.3-.4-8.7-.9-13-1.1-2-.1-2.5-1.1-2.5-2.9a56.1,56.1,0,0,0,0-7.1c-.3-3,.8-3.8,3.8-3.7,18.6.7,37.2,1.2,55.8,1.8a7.8,7.8,0,0,0,2.2.3Z"/><path class="cls-2" d="M342.1,47.3l13.8,12.1C370.2,72,384.5,84.7,399,97.1c2.5,2.2,2.5,4.6,2.4,7.3-.1,8.2-.1,8.2-7.7,5.4-16.4-5.9-32.8-12-49.3-17.8-2.4-.9-3.2-2-3.2-4.5.1-12.6.1-25.2.1-37.8C341.3,49,341,48.2,342.1,47.3Z"/><path class="cls-2" d="M296.5,195.9c0,8.2,0,8.2-8.3,6.9L176.4,185.5c-1.4-.2-3.5.3-3.8-1.6s-.7-5.7.2-8.5c.3-.9,1.5-.5,2.4-.4l55.1,5.8c20.5,2.2,41,4.4,61.5,6.3,4.1.4,5.1,1.8,4.6,5.5C296.3,193.7,296.5,194.8,296.5,195.9Z"/><path class="cls-2" d="M341.3,112.8c0-2.9.2-5.8,0-8.6s.6-3.7,3.5-2.6c14,4.9,28.1,9.6,42.1,14.3l12.1,4a2.8,2.8,0,0,1,2.3,3.2c-.2,4.1-.2,8.2-.1,12.3,0,2-.6,2.5-2.7,2-18.2-4.1-36.5-8-54.8-11.9-1.9-.4-2.4-1.3-2.4-3s0-6.4,0-9.7Z"/><path class="cls-2" d="M342.7,160.5c-1.7-.4-1.4-1.8-1.4-3,0-6.4.1-12.7-.1-19.1-.1-2.6.9-2.9,3.1-2.5l54.5,9c.9.1,1.8.2,2.1,1.3a110.3,110.3,0,0,0-.1,11.5c.1,2.3-.9,2.9-2.9,2.4-8.2-3.2-16.5-6.3-24.3-10.5a8.9,8.9,0,0,0-3.2-.8c-5.4-1.1-10.2-3.9-15.4-5.5-3.4-2.3-5,.4-6.7,2.5-2.4,3.7-4.8,7.4-4,12.2A2.2,2.2,0,0,1,342.7,160.5Z"/><path class="cls-2" d="M399.7,228.8c1.3-12.9.5-25.8.7-38.7,0-1.4.5-3.1-1.3-4,1.2-2,2-.8,2.7.4s.6,2.9.6,4.4v24c0,3.7.3,3.9,3.9,3.2a93.5,93.5,0,0,1,11.8-1.9,117.8,117.8,0,0,1,13.3,1.6c2.3.3,4.4.3,6.4-1.1s1.2.1,1,1,.3,1.7,1.5,1.9c4.5.7,8.6,2.5,12.7,4.3,5.7,2.6,6.4,3.9,6,10.1a9.8,9.8,0,0,0-3,5.2,2.7,2.7,0,0,1-2.4.7c-15.8-2.5-31.7-3.2-47.5-5.5a9.3,9.3,0,0,1-5.1-2.1C400,231.3,398.8,230.4,399.7,228.8Z"/><path class="cls-2" d="M134.8,149.4c.3.5.6,1.4,1.3.9,3.1-2.3,3.4-.4,3.7,2.1.6,5.3,1.1,10.6,1.8,15.9.3,2.5-.5,2.9-2.6,1.7s-2.5-1.7-4.1-1.7c-2.5-2.3-6-3.6-8-7.4-2.1,4-5.9,6.6-5.4,11.5a3.2,3.2,0,0,1-.9,2.4c-3.6,3.4-3.6,8.1-4.9,12.3-.4,1.5-.6,3,1.5,3.6a1.7,1.7,0,0,1,1.1,1.8c.6,7.7,5.7,12.1,11.8,15.5,1.2.7,2.3,2.6,4.2,1.5.4,1.5,1.7,3.4-1.5,3.3h-.5c-4.2-2.6-8.3-1.9-12.4,0-.8,0-1.4-.2-1.6-1.1s2.4-2.5,4-3,2.3-1.4.8-2.6c-4.1-3.2-5.5-8.2-8.8-12a2.7,2.7,0,0,1-.8-1.6c.4-5.5.2-11.1,3.1-16s4.4-10.1.7-15.4c-.3-.5-.1-1.3-1-1.5-1,2.7.4,4.9,1.5,7.1s.8,4.1-1.8,5.3-3.9,1.9-1.8,5.9a2.2,2.2,0,0,1-.4,3c-1,.3-1.6-.4-2.3-.9a8.4,8.4,0,0,1-2-2.9c.3-3,.7-6,3-8.3a2.8,2.8,0,0,0,1.5-3.9,36.4,36.4,0,0,1-.1-6.6c.3-2.4,1.1-4.9,4.5-4.7a3.2,3.2,0,0,1,1.1,1.7c.2,1.3-.7,3.5,1.1,3.7s2.3-2.1,3-3.6a9,9,0,0,1,1.7-3C128,150.1,131.7,150.6,134.8,149.4Z"/><path class="cls-2" d="M438.8,217.6l-.6-.7c-5.1.7-10-.7-15-.9a32.4,32.4,0,0,0-4.4-.2,7.8,7.8,0,0,1-3.7-.5c-2.1-.8-3.1-2.3-2-4.4s.7-4.3.2-6.5c-1.1-4.7-3.3-9.1-3.7-14,1.2-1.4,2.7-2.4,3.7-4,3.1,1.3,4.9,4.4,7.7,6.2a2.6,2.6,0,0,1-.7,3c-2.4.6-2.9-1.8-4.5-2.8a42.1,42.1,0,0,0,3.7,12.2,1.9,1.9,0,0,1,.3,1c-.6,3,.5,4.5,3.7,4.3s5.4.7,8.1,1.1c4.3,1.3,8.9,2.1,13.2,3.2a69.9,69.9,0,0,0,21.5,2.2c3-.2,2.9-2.6,2.9-4.7-.2-4.6-1-5.5-5.4-6.5s-10.6-.7-15.8-1.8c-2-.8-4.3-.2-6.3-.9s.4-2,1-2.8a.9.9,0,0,1,1,0c2.1,1.9,4.6,1.1,7,1.2a51.6,51.6,0,0,1,17.5,1.7c3.7,2.4,5.1,12.3,2,15.5-1.4,1.4-3.2,1.3-4.9,1.1L441.6,217C440.6,217.2,439.7,216.9,438.8,217.6Z"/><path class="cls-2" d="M443.6,200.4h-.5c-1.2.4-2.3,1.3-3.7.6s1-3.1.5-4.7-2.5-2.6-4.4-2.6-2.6,1.1-2.9,2.8a14.2,14.2,0,0,0-.3,4.1c-.1,2.1,2.5,1.5,2.9,3-3.1,5.9-5.8,7.7-10.4,7.1-.9-.1-1.8-.2-2-1.3s1.9-1,2.9-1.2,2-.3,2-1.7-1.2-1.3-2.1-1.7c-3.8-1.6-3.8,1.6-4.8,3.6-2.5.3-.6-2.2-1.7-2.8l-.4-.3a10.3,10.3,0,0,1,1.3-8.9c.6-.6,1.2-1.1,2-.9a3.2,3.2,0,0,1,.9,1.6c.5,2.4,2.6,2.9,4.3,2.4s1.8-3.4,1.7-5.2-2.1-2.1-3.8-1.8-1.9,1-2.7-.3-.3-4.1,1.2-5.7l17.7,1.7c1.7.2,2.7.8,2.6,2.8S443.8,197.3,443.6,200.4Z"/><path class="cls-2" d="M207.6,26.6c-2.8,2-5.8,2.9-8.7,4.3l-22.1,10c-4.3,1.9-4.3,1.9-4.3-2.9a12.1,12.1,0,0,0,0-1.9c-.4-2.7.8-3.6,3.4-4.1,9.4-1.6,18.8-3.6,28.2-5.4A5.2,5.2,0,0,1,207.6,26.6Z"/><path class="cls-2" d="M413.9,171c3.2,4.8,7.2,9.2,9.2,14.8a1.1,1.1,0,0,1-.9.5c-2.2-.3-3.4-1.8-4.4-3.7a27.8,27.8,0,0,0-9.6-11.6,17,17,0,0,1-2.2-1.5,7.5,7.5,0,0,0-3.4-2.1c-1.5-.5-3-1.1-3.2-3.1,1.4-1.1,3.2-.7,4.7-1.2C407.9,165.4,411.7,167.3,413.9,171Z"/><path class="cls-2" d="M342.7,160.5a3.4,3.4,0,0,0,.8-2.7c-1-5.2,1.5-9.2,4.4-13.1,1.7,2.5-.4,4.4-1.1,6.6-1.9,3.8.4,7.3,1,10.8a63.5,63.5,0,0,0-1.2,8.6,20.2,20.2,0,0,1-.9,3.3,3.6,3.6,0,0,1-2.8,2.4c-1.8-1.2-.1-3.5-1.5-4.9C343.4,168.1,343.3,164.3,342.7,160.5Z"/><path class="cls-2" d="M468.2,203.3a73.2,73.2,0,0,1-17.5-1.7c1.6-1.3,2.3-4.1,5.3-3.2S465.8,197.3,468.2,203.3Z"/><path class="cls-2" d="M343.1,176.2l2-2.3c2,.8,1.5,2.4,1,3.7-1.3,3.6-.7,7.3-.9,11s1,3.1,3,3.3a3.6,3.6,0,0,1,2.4,2.4,4.1,4.1,0,0,1,0,1.1,16.9,16.9,0,0,1-4.9,2.3c-2.2.5-.9,2.9-2,3.9s-1.6-.2-2.3-.2a.4.4,0,0,1-.1-.5c1.2-2.1.2-4.5.8-6.6C342,188.3,341.9,182.2,343.1,176.2Z"/><path class="cls-2" d="M343.1,176.2a52.5,52.5,0,0,1-.9,18.1,2.7,2.7,0,0,1-.8-2.7c0-6.7.1-13.3.1-20,1.1-.4,1.5,0,1.5,1.1A20.2,20.2,0,0,0,343.1,176.2Z"/><path class="cls-2" d="M404,163.6c-1,2.4-2.7.8-4.2.7a4,4,0,0,0-3.4,0c-1.1.1-2.2.1-2.8-1.1s1.2-1.1.9-2.1a2.3,2.3,0,0,1,2-.6c1.8.5,1.1-.5,1-1.3,2.5.8,3.2-.2,3.2-2.7s.2-6.9.3-10.4l.3,12.3c.6,1.1,1.8,1.8,2.5,2.7S405.2,162.6,404,163.6Z"/><path class="cls-2" d="M422.2,186h.9l.7.7c-.2,2-.5,4.1-.7,6.1s.5,2.4-1,3.1l-1.5.7c-.6,0-.9-.2-.7-.9l.8-2.9A8.1,8.1,0,0,1,422.2,186Z"/><path class="cls-2" d="M66.7,225.8a2.4,2.4,0,0,1-2.3-2.1c-.6-7.3-2-14.6.6-21.8a5.3,5.3,0,0,1,4.5-3.9c2.7-.3,3.5-1.8,3.2-4.3a95,95,0,0,1-.8-13.1c.2-4.7,1.8-6.9,6.4-7.6s11.1-2,16.7-.6,6.2,5.8,7.6,10.2c1.9,6,2.2,12.5,4.7,18.4a.9.9,0,0,1-.1,1l-.9.6c-1.5.5-1.7-.5-2.2-1.6s-1.1-4.7-3.1-6.4-1.7-3.2-1.8-5c.4-3.7-1.1-6.9-2.8-9.9s-4.6-3.8-7.8-2.9-2.2,2.3-2,4.2c.6,6,1.9,11.8,2.1,17.9a2,2,0,0,1-1.2,1.7c-1.7-.4-1.3-1.8-1.4-2.8-.2,1.2.4,2.5-.7,3.6a1.8,1.8,0,0,1-1.6-.1c-.9-6.2-1.4-12.6-2.6-18.8-.3-1.4-.1-3.5-2-3.5s-2.4,2.1-2.5,3.9a74.9,74.9,0,0,0,.3,8.2c-.8,2.2.9,4.5-.1,6.7s-3,2.1-2.8,4.2-1.2,2.2-2.2.3-.7-1.6-1.8-1.2a6.2,6.2,0,0,0-2.4,2.9c-3.1,3.7-2.5,8-2,12.3l.3,1.1C66.1,220.2,66.5,223,66.7,225.8Z"/><path class="cls-2" d="M113.1,180.7c1.3-1,1.1-2.1.1-3.2-3-3-2.9-5,1.1-6.1s4-2.4,2.2-5.5-2.6-4.7-1.1-7.4c.3-.5,0-1.3.9-1.4a1.2,1.2,0,0,1,1.3,1.1c.3,2.1.8,4,2.9,5.3a1.9,1.9,0,0,1,.3,2.4c-1.3,1.7-.7,3.6-.8,5.4s0,2-.5,2.5c-4.8,5.1-4.1,11.7-5.1,17.8-.4,2.2,1.7,1.8,2.1,3,1.7,4.7,4.8,8.4,8.4,11.7,1.5,1.4,1,2.7-.9,2.8s-3.6,1.5-5.3,2.4a28.4,28.4,0,0,1-7-12.7c-1.4-4.1-4.1-7.6-4.5-12.1a3.5,3.5,0,0,1,1.9-1c1.7-.1,2-1.4,2.3-2.7S111.6,180.8,113.1,180.7Z"/><path class="cls-2" d="M107.2,201.7c0-.2.1-.5.1-.7h3.5c1.3-.2,1.8.9,2,1.7a10,10,0,0,0,2.2,4.2c2.6,3,2.9,5.7.4,8.9-1.2,1.6-.2,3.9-1.5,5.6a60.3,60.3,0,0,1-10.4,3.4c-3.4-2.1-4.3-5.4-4.5-9.1a1.6,1.6,0,0,1,.7-.9c2.9-1.1,6.3-.6,9-2.4a5.6,5.6,0,0,1,2.3-1.2c-1.9-.1-2.5-1.4-2.7-3A28.6,28.6,0,0,0,107.2,201.7Z"/><path class="cls-2" d="M66.7,225.8c-2.3-2.7-1.2-6-1.5-9,2.1.4,1.5,2.2,1.8,3.5.8,3.3,7.6,6.1,10.5,4.3a2.6,2.6,0,0,0,1-1.9,16.6,16.6,0,0,1,1.3-3.5c2.6-6.5,7.8-7.1,13.7-6.5.4-2.5-.5-3.9-3-4.6s-3-.1-4.1-1.4-4-.9-5.9-1.8-3.6-.7-3.3-3.2c1.4-.8,2.6,0,3.9.3s3.1.6,4.4-.9-.4-4.7.5-7.4c2,2,0,4.8,1.7,6.6s1.7,4.5,4.7,4.5,4.3,4.9,6.4,7.4c.5,1,3.1,1.2,1.1,3.1h-.1c-.8,1.1-1.6,2.2-3.2,2.2a16.7,16.7,0,0,1-3.2-.8c-5.7-1.5-10.5,1.9-11.2,7.8-.2,1.7.5,3.6-1.3,4.8-4-.1-7.6-2.3-11.6-2.3Z"/><path class="cls-2" d="M114,221.1c-.2-3-.1-6,2.2-8.4.7-.8,1.2-1.9.3-2.7-2.8-2.5-3.3-6.3-5.5-9.1.3-.7.5-1.4.8-2,2.3,4.2,4.6,8.5,7,12.7.2.7.7.7,1.2.8-.8,3.9-2.3,7.7-2.5,11.7-2.7,1.5-2.5-1.1-3.3-2.4A1.4,1.4,0,0,1,114,221.1Z"/><path class="cls-2" d="M109.4,186.6l-2.2.2c-.4-1.6.9-2.9.9-4.4l1.5-5.3a4.7,4.7,0,0,1,2.2,2.2C112.1,182.1,111.8,184.7,109.4,186.6Z"/><path class="cls-2" d="M125.3,152.5c.9,1.3-.5,1.8-.9,2.6a3.8,3.8,0,0,1-5.1.3,2,2,0,0,1-.9-1.7A23.8,23.8,0,0,1,125.3,152.5Z"/><path class="cls-2" d="M114.1,164.9c1.7.4,1.5,1.7,1.2,2.8s-1.7,1-2.7,1C113.2,167.5,113.6,166.2,114.1,164.9Z"/><path class="cls-2" d="M399.7,228.8a6.2,6.2,0,0,0,5.5,4.4q12.9,1.7,25.8,3c8.4.8,16.8,1.4,25,3.1,3.5.9,7.1.8,10.5,2.2s5,.8,7.4,1.6h.1c.6,1.2,0,1.5-1.2,1.4-8.6,0-17.2.5-25.7-.1-15.8-1.1-31.6-1.3-47-5.9-3.1-.9-6.3-1.4-9.4-2.1-.4-.1-.8,0-1.1-.2-2.1-.9-4.5-2.4-4.3-4.5s3-1.9,4.8-2.1S396.5,229.6,399.7,228.8Z"/><path class="cls-2" d="M473.9,243a15.7,15.7,0,0,1-7.4-1.6C469.1,241.6,471.6,241.7,473.9,243Z"/><path class="cls-2" d="M77.2,237.8l6.4-1.2c1.6-.3,2.3-.8,1-2.3s0-2.2,1.3-2.8,5.7.9,8.5-.3,2.4.8,3.6,1.3,4.9-.1,7.4-.5c4.5-.6,9.1-1.1,13.7-1.9,0-1.4-1.3-2.3-1-3.6s1.4-1.7,2.6-1.9,1.8.7,2.7,1.1c4.6,2.6,8.3.3,8.5-5.1.1-2.4-1.6-4.2-1.7-6.4a2,2,0,0,1,2.7-1.6h0a12,12,0,0,1,4.2,11.6c-.5,3.2,3,3.3,5.1,4.3s2-.3,2.2.8-.8,1.6-1.4,2.4c-2.4,3.4-6.4,3.2-9.7,4.1-13.3,3.9-27.2,5.6-41,6.5-5.6.4-11.8,1.8-17.4-1.5-1.5-.9-3.9-.1-6.5-.1C71.4,238.6,74.7,239.3,77.2,237.8Z"/><path class="cls-2" d="M371.2,204.7a6.8,6.8,0,0,0-1.5,3.2c-1,5.1-6,9.1-10.3,8.9-2.7-.1-3.8-2.1-5.3-3.6S352,211,351,210s-2.3.2-2.4-1.5a19,19,0,0,0,2.2-3.3c.6-.6,1.5-.7,2.9-1.2-3.7-.6-3.5-3.5-4.5-5.5a2.5,2.5,0,0,1,1.2-2.4,2,2,0,0,1,1.7.2,2.2,2.2,0,0,1,.9,1.6c.1,2.9,1.9,3.6,4.4,4,7.4,1.1,8.1,2.5,5.1,9.2-1,2.2-2.3,3.2-4.5,1.3s-.6-3-.9-4.1a10.4,10.4,0,0,0,.8,3.9c2.2,2.3,3.7,1.3,4.7-1.1s.9-2.8,1.5-4.2C365.6,202.8,367.1,202.3,371.2,204.7Z"/><path class="cls-2" d="M371.2,204.7c-3.6-1.2-6.1-.8-6.7,3.7a10.8,10.8,0,0,1-2.1,4.3c-1.6,2.1-3.3,2.6-4.6-.4h0c2.8,1.5,4.2.5,4.5-2.5l.3-1.8c1.1-4.6,1.1-4.5-3.7-4.7-1.3-.1-2.7-.6-4-.7s-3.5-.4-2.6-3.1c.3-.8-.3-1.9-.5-2.8s1.9-.3,2.9-.5a1.2,1.2,0,0,1,.9.4h3.7l-1.6,1.4,14.8,1.5c.8.1,1.8-.9,2.4.1s-.7,1.7-1,2.6A11,11,0,0,1,371.2,204.7Z"/><path class="cls-2" d="M348.8,208.5l2.1,1.6c-2.2,1.2-3.4-.4-4.8-1.6s-3-4.8-4.7-7.1c.7-.5,1.4,0,2.1.1C345.8,203.5,348.1,205.4,348.8,208.5Z"/><path class="cls-2" d="M417.9,263.4c.3-1.9-.3-4.5,3.2-4.3s5.3,1.3,5.5,4.8a16.2,16.2,0,0,1,0,2.2h.3l-2.7,18.5a6.2,6.2,0,0,1-3.3,4.8,6.1,6.1,0,0,1-5.4.3c-1.6-.8-.6-2.7-.4-4.1"/><path class="cls-2" d="M71.5,300.9c-1,7.4-1.8,14.9-3.1,22.4-.7,4.5-2.5,5.5-7,5.4-2.1-.1-2.6-.9-2.4-2.7l3.9-30.1a1.8,1.8,0,0,1,2.2-1.8c2.2.1,4.7-.3,5.7,2.5A18.4,18.4,0,0,1,71.5,300.9Z"/><path class="cls-2" d="M63.7,289.3c1.2-9.5,2.3-18.3,3.5-27,.2-1.3-.3-3.4,2.1-3.2s5-.6,5.8,2.7a9.6,9.6,0,0,1,.3,2.9c-.9,7.4-1.8,14.8-2.8,22.2a5.4,5.4,0,0,1-5.4,5.1C64.6,292.2,62.6,291.9,63.7,289.3Z"/><path class="cls-2" d="M100.4,306.7c.3,1.5,1.5,1.4,2.6,1.4h8.6c-3.6,2-7.4.8-11.1.7C99.5,308.7,99.6,307.5,100.4,306.7Z"/><path class="cls-2" d="M97.6,233.3l-3.1-1.5c-.6-1.3.5-2.1.8-3.1,1-3.1.3-6.4-1.9-7.8a5,5,0,0,0-5.9.1c-2.4,1.8-3,4.8-1.7,8,.4.9,1.1,1.7.3,2.7s-1.7,1.3-1.6,2.5c-1-.5-1.2-2.1-2.7-1.8l-1.2-3.2c.2-3.8-.3-7.7,2.7-10.9s7.2-4.4,13.1-1.5c3.8,2.3,5,5.7,4.7,9.9-.1.6-.3,1.1-.4,1.7S100.5,232.9,97.6,233.3Z"/><path class="cls-2" d="M393.7,162.7c.8,1.1,1.9.6,2.9.8s2.4-.3,2.3,1.2-1.9,1.6-3,1.3c-8.5-2.6-17.4-2.4-25.9-4.9a15.2,15.2,0,0,0-4.7-1c-1.6,0-2.7.5-2.8,2.3s-2.5.6-3.2-.5-2.1-1.2-3.3-.4c-2-.8-2.2-2.1-1.1-3.9,2.6-4.2,2.2-7.1-1.3-10.9-1.6-1.8-2.6-1.5-3.5.5a13.4,13.4,0,0,1-1.3,2.7c-.8,1.1-1.7,1.9-3.1.9,1.2-1.9,2.3-3.8,2.1-6.1,2.2-1.2,3.3-6.5,7.1-2a8,8,0,0,1,2.2,2.3c1.4,2.1,2.7,4.4,2.7,6.9s2,4.4,4.9,4.6a15.4,15.4,0,0,1,3,.4c7.8,2,15.9,2.4,23.6,4.8A4,4,0,0,1,393.7,162.7Z"/><path class="cls-2" d="M397.5,159.2c.4.9,2.3,2.1-.6,2.1h-2.6c-1.5.8-2.6-.1-3.8-.7-4.7-2.2-9.7-3.9-14.3-6.4-1.4-.7-2.9-.5-4.3-.9a4.6,4.6,0,0,1-3.4-3.1c-.3-1.5.8-2,1.8-2.4,3.3-1,5.1,2.1,7.7,3.1C384.6,153.4,391,156.4,397.5,159.2Z"/><path class="cls-2" d="M370.3,147.8c-.3.8-1.4,1.1-1.3,2.1a1.1,1.1,0,0,1-.9.5c-3.2-.7-5.9-2.6-8.9-3.6a12.3,12.3,0,0,1-2.9-2.2,2.2,2.2,0,0,1-1.3-2c4.4.4,8.1,2.9,12.1,4.1Z"/><path class="cls-2" d="M449.9,232.5l-.8.8c-4.1,1.9-8.3,0-12.4-.1s-8.9-.9-13.3-1.3-9-.9-13.2-2.5-2.7-1.6-5.2,1-2.7-.6-3.5-1.5,0-6,2.4-6.7c.7-.2,1.7-.9,1.6,1.1s2,.8,3.1,1c4.6,1.8,9.5,1.3,14.3,2.1,7.5,1.3,15.1,1.5,22.5,2.9A6.4,6.4,0,0,1,449.9,232.5Z"/><path class="cls-2" d="M453,226.1c-2.1.4-3.9,3.6-5.1-.5-.1-.3-.9-.5-1.3-.4-3.7,1.2-7.7-1.1-10.7-.5-5.5,1.1-10.2-2.6-15.5-1.2a7.8,7.8,0,0,1-6.4-1.3c-1.3-.9-2.4-1.4-3.1.7s-1.2.8-1.9.3-1.6-.9-1.4-2,1.2-.8,1.8-1,4-.5,5.9-1,1.1,3.4,3.2,2.5.7-3.1,3.2-2.8,7.2.7,10.8,1.1a40.7,40.7,0,0,0,5.9.6c2.7-.1,1.3,2.9,2.7,3.4s1.6-3.1,4.1-1.6S450.2,224.1,453,226.1Z"/><path class="cls-2" d="M449.9,232.5c-5.6-4.1-12.5-3.3-18.8-4.4s-14-1.6-21-2.4a1.4,1.4,0,0,1-1.4-1.4l22.8,2.5c5,.6,10,1.6,15.1,1.8C449.7,228.7,450.4,229.9,449.9,232.5Z"/><path class="cls-2" d="M410.3,229.5l26.7,2.8,12.2,1v.7c-1.5,2-3.5,1.4-5.5,1.2-8.6-1-17.2-2.1-25.8-2.7-1.1-.1-2.2-.3-3.1.7a2.4,2.4,0,0,1-2.4-.6c-1.3-1.7-3.7-.9-5.2-2.2C408,229.1,409.2,229.6,410.3,229.5Z"/><path class="cls-2" d="M414.8,233.2c0-2.1,1.2-2,2.8-1.6a109.1,109.1,0,0,0,16,1.9c5.1.4,10.4,2.7,15.6.6,1.4,1.7,1.3,2.5-1.2,2.3-8.5-.9-17-1.6-25.4-2.6C420,233.4,417.4,233.4,414.8,233.2Z"/><path class="cls-2" d="M418.5,216.8l-.3-1.5c2.5-1.7,5.1-.2,7.6-.1,4.2.3,8.4.4,12.4,1.7-.5,1.4-1.2,2.3-3,2.1A155.7,155.7,0,0,1,418.5,216.8Z"/><path class="cls-2" d="M407.3,230.3a8.3,8.3,0,0,1,4.9.7c1,.4.9.9.2,1.6S407.9,233.7,407.3,230.3Z"/><path class="cls-2" d="M455.1,230.9c0,1-.4,1.6-1.1,1.3s-2.4-.2-2.4-1.8.5-1.5,1.3-1.4S454.7,230.2,455.1,230.9Z"/><path class="cls-2" d="M139.4,168c-5.3-2-8.9-6.2-13.1-9.6-.7-.6-1-1-.5-1.8s1.2-4.3,4-4.3H135c-.5,4.4,1.3,8.1,3.5,11.6C139.3,165.1,140.2,166.4,139.4,168Z"/><path class="cls-2" d="M132.7,212.7c-1,.4-2,.8-2.3,2a1.5,1.5,0,0,1-.7.3c-7.4.1-8.4,1.1-8.4,8.5a1.9,1.9,0,0,1-.5,1.3c-.4,1.1-1.7.8-2.3,1.5s-.3.6-.7.5a2.2,2.2,0,0,1-1.3-1.5,1.4,1.4,0,0,1,.3-.9c-.3-4.3.2-8.5,3-12C124.9,208.8,129.1,208.9,132.7,212.7Z"/><path class="cls-2" d="M139.4,168c-.6-3.6-3.4-6.2-4.8-9.6s-.5-4.1.4-6.1c1.2-.3,2.8-.8,3.1.7C139.3,157.9,140.5,162.9,139.4,168Z"/><path class="cls-2" d="M109.4,186.6l2.4-7.3a2,2,0,0,1,1.3,1.4c-.4,1.4-.8,2.8-1.1,4.2S111.1,187.2,109.4,186.6Z"/><path class="cls-2" d="M447.7,203.2c5.5.5,11,.9,16.5,1.6s6.8,2.1,6,7.4c-4,1.3-8,2.3-11.5-1.3a3.1,3.1,0,0,0-2.3-.6,2.6,2.6,0,0,0-1.7.7c-2.8,3-5.8,2.2-8.6.2a2.6,2.6,0,0,0-3-.2c-1.9.8-3.5,2.3-5.8,2.1s-3.1-.7-3.2-2.8c.6-4,3.3-6.9,7.1-7.3C443.3,202.8,445.6,202.5,447.7,203.2Z"/><path class="cls-2" d="M435,210.7a3.1,3.1,0,0,0,5.2.8c1.3-1.4,3.3-1.1,4.2-2.8s.7-.3,1.1.3c2.7,3.6,5.3,3.8,8.4.8.9-.8,1.8-.6,2.8-.7s1.2,1.5,2.3.7c2.1,2.6,4.9,3,8,2.2,1.1-.3,2.1-.7,3.2.1,0,5.8-.5,5.9-6.2,5.9s-11.5-1.9-17.4-1.6a7.1,7.1,0,0,1-5.5-2.3c-1.8-1.7-5-.2-7.5-1.3-.8-.3-1.8,0-2.4-.8a1.7,1.7,0,0,1,.8-1.2C433,210.7,433.9,210.2,435,210.7Z"/><path class="cls-2" d="M422.2,186a15.8,15.8,0,0,1-1.6,6.8c-3.4-.8-5-3.9-7.4-5.9s-2.4-4.9-3.2-7.4a10,10,0,0,0-1.4-5.3c-.6-1.3-1.1-2.5,0-3.8a27.5,27.5,0,0,1,10.1,12.5C419.4,184.4,420.9,185.1,422.2,186Z"/><path class="cls-2" d="M432.1,211.5l-.9.9-7.8-.8c-4.8-.3-5.4-1.1-4.2-5.8,1.3.5.3,2.3,1.5,2.8a2,2,0,0,1,2.2.8c3,1.1,5.9,1.6,8.1-1.7a54.6,54.6,0,0,1,3.9-4.5c.5-2.6,2.1-3.2,4.5-2.3s2.4-1.1,3.7-.4-1.7,1.1-2.2,2C436.8,204.3,434.3,207.7,432.1,211.5Z"/><path class="cls-2" d="M411,179.3a33.1,33.1,0,0,0,2.2,7.6c-.1,1.7-.2,3.3-2.6,3.1-.1-3.2-1.9-5.5-4-7.7.2-2.3-.9-4.4-.9-6.6s.2-2.7,1.7-3,1.7,1.3,2.2,2.2S410.4,177.7,411,179.3Z"/><path class="cls-2" d="M432.1,211.5c1-4.9,3.8-8,8.8-9,2.2.4,4.6-.7,6.8.8-3.9-.2-7.7-.2-10.8,2.9-1.3,1.3-2.2,2.7-1.9,4.6A5.7,5.7,0,0,1,432.1,211.5Z"/><path class="cls-2" d="M422.1,195.8c.3-1,.7-2,1-3.1,1.9-1.9,4.1-1.8,6.2-.6s1,3.1.6,4.7,1,4.5-2.6,4.1S421.1,200.2,422.1,195.8Z"/><path class="cls-2" d="M431.3,200.9a28,28,0,0,1,0-2.9c.6-5.7.7-5.6,6.5-5.3,2.6.2,3.5,1.3,3.1,3.7s-1.6,3.4-3.7,3.2S433.5,202,431.3,200.9Z"/><path class="cls-2" d="M422.9,209.3c-.8-.1-1.6,0-2.2-.8,0-5.3,2.6-6.8,7.3-4.3,1.5.8.9,2.2.9,3.3s-.7,1.7-1.9,1.7Z"/><path class="cls-2" d="M431.3,200.9c2.1-1.2,4.1-2.7,6.8-2.3s1.9-1.3,2.7-2.2c.5,1.8-.3,3.2-1.5,4.4a6,6,0,0,0-4.5,2.3C433.4,202.9,431,204.1,431.3,200.9Z"/><path class="cls-2" d="M362.3,162.7c-1.9-2.2-1-3.3,1.5-3.7a7.7,7.7,0,0,1,3.7.1c7.6,2.8,15.7,3,23.6,4.4,2.4.4,4.7,2,7.4,1.5-.1-1.2-1.5-.7-1.8-1.6,1.6-2,2.4-.9,3.1.7s2.9,2.5,4.7,2.9,2.1,1,2,2.4-.8,5.3-.5,8-1.5,2.1-3.1,1.4-4.9-2.9-7.6-4c-6.9-2.8-14.1-5-21.1-7.4C370.1,166.2,365.9,165.1,362.3,162.7Z"/><path class="cls-2" d="M362.3,162.7c11.5,3.3,22.8,7.2,34,11.5,2.3.9,4.3,2.4,6.6,3.5.7.4,1.3,1.5,2.2.8a2.3,2.3,0,0,0,.5-2.8,6.2,6.2,0,0,1,.9-6.3l2.1.8c-.2,3.2,2.9,5.7,2.3,9-1.6-1.8-1.2-4.8-3.7-6.3-1.7,2.5-.3,4.9.2,7.2s.2,1.7-.9,2.1-3.4-3-5.9-2.8-6.1-2.7-9.1-4.1a34,34,0,0,0-16.6-3.2c-4.8.2-9.7-.1-14.5.2-2.9,1.4-2,4.2-2.3,6.5-.6,3.9-.8,7.9-1.3,11.8-.5,2-.9,4-1.4,6h-.8a11.7,11.7,0,0,1-4.4-1.3c-.6-.9-.9-2-1.9-2.5-.8-5.9-.4-11.9-1.3-17.8a4.6,4.6,0,0,1,.6-3.6c2.8-.5,2.7,1.7,2.7,3.2,0,4.3.8,8.4.9,12.7a4.3,4.3,0,0,0,1.7,4.1c1.7-10.3,1.6-20.3,3.2-30.1.2-1.3.7-2.5,2.2-2.6s.7,1.3,1.1,2.1A3,3,0,0,0,362.3,162.7Z"/><path class="cls-2" d="M356.2,161.2c1.8,3.8,0,7.5-.1,11.3-.2,5.6-1,11.1-1.3,16.6-.1,1.8-.5,3.4-2.5,3.4s-1.9-1.8-2-3.3c-.3-5.1-.5-10.2-.8-15.2-.1-1.3,0-2.6-1.6-2.9l-.4-.5c-1.2-2.8.1-5.8-.3-8.6s-3-7.2-1.4-11.2c2.2.2,2.5-1.5,3.1-3.1,1.7-4.5,2.5-4.5,5.7-1.3s3.3,5.4,3.1,8.8c0,1-.1,1.9-1.3,2.4S355,159.9,356.2,161.2Z"/><path class="cls-2" d="M347.9,171.1l1.5,18a4.1,4.1,0,0,1-.9,3.5c-3.4.7-4.8-.4-4.3-4s-.6-8.5,1.6-12.4a1.7,1.7,0,0,0-.6-2.3,4.7,4.7,0,0,1,.7-2.8,1.2,1.2,0,0,1,2,0Z"/><path class="cls-2" d="M347.9,171.1h-2a17.6,17.6,0,0,1,1.3-9.1C348.7,164.9,347.9,168,347.9,171.1Z"/><path class="cls-2" d="M348.8,208.5c-1.8-2.3-4.1-4.2-5.3-6.9,0-1.2-.1-2.4,0-3.6s1-1.8,2.2-.7,1.4,1.4,2,2.2,3.2,3.6,3.6,6.1S351.1,208.7,348.8,208.5Z"/><path class="cls-2" d="M347.1,199.5c-.4-.8-2.8-.4-1.4-2.3,1.5-.4,2.3-2.8,4.4-1.4a.5.5,0,0,1,.3.4c0,.2-.1.3-.2.3l-.6,2.4C349.1,200.4,348.1,200.1,347.1,199.5Z"/><path class="cls-2" d="M350.3,196.5a1.7,1.7,0,0,1-.1-.7c.1-.2.1-.5.2-.7,1.6,0,3.3-.6,4.4,1.3-.8,1.7-2,.4-3,.3Z"/><path class="cls-2" d="M368.1,150h.9a3,3,0,0,0,2.3,2.3c8.3,1.4,15.3,6.3,23,9.1.8.9.4,1.3-.6,1.4l-26.4-5.2c.9-1.1,2.1-1,3.3-1.1,3-.1,5.9.8,8.9,1a37.6,37.6,0,0,0-7.5-2.9C369.8,154,367.5,153.2,368.1,150Z"/><path class="cls-2" d="M77.2,201.8c1.9,2.7,4.9,2.7,7.6,2.8s2,.5,2.1,1.8a1.6,1.6,0,0,1-1.7.5,56.1,56.1,0,0,1,9.2,6.8h-3c-7.6,0-10.7,2.7-12,10.2-.2,1.3-.8,2.1-2.1,2.1a34.1,34.1,0,0,1-5.5-.5c-4.8-.9-5.5-1.8-5.9-6.8-.1-.8-.1-1.5-.8-2h0c-.7-2.3.9-2.1,2.2-2,6.1.1,7.3-1.2,5.4-7-.8-2.3,1.3-3.9.6-6s-1.1-4.9,3-3.8C77.9,199,78.3,200.2,77.2,201.8Z"/><path class="cls-2" d="M93.7,194.9c1.8-2,3.6-4.1,6.4-4.9,1.4.7-1.5,3.9,2,3.4,1.1,3.7,1.8,7.5,3,11.2s.6,5.9-2.6,7.7h-1.2c-2-3.8-1.7-8.4-3.9-12.3-1-1.7-1.9-3-3.8-3.6C93.2,196,93.3,195.5,93.7,194.9Z"/><path class="cls-2" d="M73.5,201.8c.3,3.2,1,6.5.8,9.7-.4,4.7-1.4,5.2-6.2,4.3-1.2-.2-2.5-1.2-2.8.9-1.3-4.8-1.9-9.5,2.1-13.5,1,.4,2.1.9,3-.2s-.3-2-.6-3c2.5-1.5,3-.1,3,2.1v.3C73.5,202.6,73.4,202.1,73.5,201.8Z"/><path class="cls-2" d="M101.1,212.1h.8c5-1.2,2.1-4.8,2.3-7.5a24.3,24.3,0,0,1-2.2-11.3,16.2,16.2,0,0,1,3,7.6c.3,1.3.8.9,1.5.7,2.8,3.2,2,7.5,3.1,11.1-2.8,2.7-6.4,2-9.8,2.3,1-1.8-1.2-1.3-1.5-2.1A2.5,2.5,0,0,1,101.1,212.1Z"/><path class="cls-2" d="M93.7,194.9a6.6,6.6,0,0,0,.1,1.4c-1.6,2.8-.8,6.1-1.4,9.1-4.1.6-3.9-2.7-4.7-5.1l.7-1.3C89.3,196.4,91.7,196,93.7,194.9Z"/><path class="cls-2" d="M80.4,200.9c1.2.9,2.4.2,3.6,0h1.4c.2,2.2-1.3,2.5-2.9,2.2s-3.6-1-5.4-1.4c-.3-1.2-.5-2.5-.8-3.7s-1.7-4.6,0-6.9v.2c1.8,1.5,1.5,3.8,2.2,5.7S78.8,200.1,80.4,200.9Z"/><path class="cls-2" d="M109.6,212.9c-2.4-3.3-1.7-7.5-3.1-11.1h.8c1.3.2,1.2,1.2,1.6,2.1s-.8,5.6,2.7,7.2C112.1,211.3,110.3,212.2,109.6,212.9Z"/><path class="cls-2" d="M69.7,200.1c1.6,0,2.6.7,2.4,2.5s-2.1,2-3.4,2.5-1.1-1.1-1.4-1.8A5.6,5.6,0,0,1,69.7,200.1Z"/><path class="cls-2" d="M103.5,224.3c-.9,1-1.6,2.4-3.1,2.7.3-4-1.5-7.2-3.9-10.1l3.2-1.6A21.7,21.7,0,0,0,103.5,224.3Z"/><path class="cls-2" d="M94.5,213.7c-4.3-.9-6.4-4.9-10.3-6.6,1.1-1.2,2-.7,2.8-.8,3.6.8,7.4,1.2,8.5,5.7C95.8,213.2,95.7,213.6,94.5,213.7Z"/><path class="cls-2" d="M116.9,225.1c-2.7.1-2.9-1.8-2.9-3.8,2.3-.2.8,3.1,2.9,3Z"/><path class="cls-2" d="M359.7,171.1c7.4,0,14.8-.9,22,.1s13.5,3.3,18.8,8.2c-.1,1.1-1,1.3-1.9,1.5l-39.2,9h-1.1c-1.8-.8-1.6-2.4-1.4-3.8.5-4.4.7-8.8,1.5-13.1A4.6,4.6,0,0,1,359.7,171.1Z"/><path class="cls-2" d="M359.7,171.1c-1.1,6.2-2.8,12.4-1.3,18.8l-1.6.7c-1.7-4.6.5-9,.4-13.5,0-1.3.4-2.7.5-4.1S358.2,170.8,359.7,171.1Z"/><path class="cls-2" d="M86.2,231.7c-.3-2-2.5-3.1-2.3-5.4s1.3-6,4.5-7.1a5.7,5.7,0,0,1,7,2c2,2.6,1.9,5.5.6,8.4a15.9,15.9,0,0,1-1.5,2.1C91.8,233.2,89,234.2,86.2,231.7Z"/><path class="cls-2" d="M120.8,224.8c-.3-2.1-1.2-4-.4-6.2,1.5-4.3,4.9-5.7,9.9-3.9a8.6,8.6,0,0,1,2.3,8.2,6.1,6.1,0,0,1-4.1,4.8C125.3,228.9,122.9,227.1,120.8,224.8Z"/><path class="cls-2" d="M100,227.9c.7,1.2,1,2.2,3.1,1.8,4.2-.9,8.5-1.2,12.7-1.7,1.2-.1,1.9-.5,2-1.7h.7c.2,1.7,1.5,2.8,2.9,4.6-5.7.8-11,1.7-16.3,2.2-2.5.2-5,1.9-7.5.2C99.6,232,99.5,229.8,100,227.9Z"/><path class="cls-2" d="M347.1,199.5c.8-.3,1.9.4,2.5-.7s1.4.8,1.4,1.8a2.3,2.3,0,0,0,2.4,2.6c.8.1,2-.1,1.8,1.2s-1.4.4-2.1.7a9.7,9.7,0,0,1-1.8.3C349.9,203.5,347.8,202.1,347.1,199.5Z"/><path class="cls-2" d="M357.7,212.2a7,7,0,0,1-1.2-6.2c.2-.6.7-1.1,1.4-.8s.5.9.4,1.2c-.8,1.9-.5,3.9-.6,5.8Z"/><path class="cls-2" d="M371.2,157.5h-3.9l-2.6-.2c-3.5-.2-6.5-.7-5.8-5.6.4-2.6-1.9-4.7-2.7-7.1,1.1.4,2.2.6,2.9,1.6s2,3,2.3,4.8,1.8,3.7,4.4,4.2S370.3,154.8,371.2,157.5Z"/><path class="cls-2" d="M371.2,157.5a11.5,11.5,0,0,0-6-1.4c-3,0-4.1-1.6-4.6-4.2s-.9-3.8-1.4-5.7a43.4,43.4,0,0,1,8.9,3.8,4.9,4.9,0,0,0,4.7,3.9c2.9.3,5.4,2,8.2,3.1.6.2,1.2.6,1.1,1.3s-1.1.9-1.8.8C377.3,158.5,374.4,157.4,371.2,157.5Z"/><path class="cls-2" d="M429.5,223.1c-.6-.2-1.1-.5-1-1.2a1.3,1.3,0,0,1,1.2-1.2,1.1,1.1,0,0,1,1.2,1.4A1.7,1.7,0,0,1,429.5,223.1Z"/><path class="cls-2" d="M459,210c-.2.9.1,2.3-1.4,2.1s-.8-1.8-1-2.8S458.5,209.1,459,210Z"/><path class="cls-2" d="M378.8,170.5c-6.2,0-12.4.2-18.5-.1-3.1-.1-1.7-2.8-1.7-4.4s1-2.7,2.9-2.1l17.4,5.4C378.9,169.7,378.8,170.1,378.8,170.5Z"/><path class="cls-2" d="M346.7,177.7c.5,4,1.7,7.9,1.3,12-.1,1,0,2.1-1.4,2.2s-1.6-.8-1.6-1.9C344.9,185.8,344.8,181.6,346.7,177.7Z"/><path class="cls-2" d="M80.4,200.9c-1.7,0-2.3-.9-2.5-2.5s-.9-4.7-1.4-7.1c2.6.3,2.8,2.3,3.1,4.2S80.1,199.2,80.4,200.9Z"/><path class="cls-2" d="M104.2,204.8c1.4,1.5,1.1,3.7,1.5,5.4s-1.4,3.3-3.8,2.1C104.3,210.2,104.5,207.6,104.2,204.8Z"/><path class="cls-2" d="M73.2,211.9c.4,2.1-.4,2.8-2.2,2.8s-3.5-.4-3.6-3,1.9-3.6,3.7-3.7S72.3,210.9,73.2,211.9Z"/><path class="cls-2" d="M93.6,225.9a2.8,2.8,0,0,1-3.1,2.9c-1.8,0-2.7-1-2.7-2.8s.9-3.1,2.8-3.2S93.1,224.3,93.6,225.9Z"/><path class="cls-2" d="M129.6,221c-.3,1.9-1.4,3.2-3.2,3.1s-2.8-1.5-2.6-3.4,1.1-3.1,3.1-3S129.4,219.3,129.6,221Z"/></g></g></g></svg>