<svg xmlns="http://www.w3.org/2000/svg" viewBox="0 0 250 47.7"><defs><style>.cls-1{fill:#11335e;}.cls-2{fill:#10345e;}.cls-3{fill:#0d345f;}.cls-4{fill:#0d3460;}.cls-5{fill:#10345f;}.cls-6{fill:#0f3562;}.cls-7{fill:#103460;}.cls-8{fill:#133460;}.cls-9{fill:#153660;}.cls-10{fill:#4b5b63;}.cls-11{fill:#4a5a66;}.cls-12{fill:#394b62;}.cls-13{fill:#525e65;}.cls-14{fill:#193249;}.cls-15{fill:#153244;}.cls-16{fill:#394e65;}.cls-17{fill:#efefef;}.cls-18{fill:#a5afaf;}.cls-19{fill:#11335d;}.cls-20{fill:#f4f6e3;}.cls-21{fill:#869398;}.cls-22{fill:#10325c;}.cls-23{fill:#0d345e;}.cls-24{fill:#0f335f;}.cls-25{fill:#0f335e;}.cls-26{fill:#0f335d;}.cls-27{fill:#0f335a;}.cls-28{fill:#607775;}.cls-29{fill:#ebb418;}.cls-30{fill:#e9ae2a;}.cls-31{fill:#62807b;}.cls-32{fill:#18365b;}.cls-33{fill:#f1bd0a;}.cls-34{fill:#d7a630;}.cls-35{fill:#6c7b6d;}.cls-36{fill:#d0ab57;}.cls-37{fill:#fcfcfc;}.cls-38{fill:#2e4039;}.cls-39{fill:#cc900c;}.cls-40{fill:#988048;}.cls-41{fill:#f5e9b7;}.cls-42{fill:#e7b733;}.cls-43{fill:#f6a900;}.cls-44{fill:#6e7d6e;}.cls-45{fill:#e6a30f;}.cls-46{fill:#b08a47;}.cls-47{fill:#88816a;}.cls-48{fill:#807d64;}.cls-49{fill:#8f895a;}.cls-50{fill:#0e243f;}.cls-51{fill:#0f273b;}.cls-52{fill:#627a73;}.cls-53{fill:#708880;}.cls-54{fill:#37352c;}.cls-55{fill:#2f311c;}.cls-56{fill:#e1a130;}.cls-57{fill:#6e8691;}.cls-58{fill:#728a85;}.cls-59{fill:#142924;}.cls-60{fill:#86a099;}.cls-61{fill:#516862;}.cls-62{fill:#213d38;}.cls-63{fill:#302607;}.cls-64{fill:#233e36;}.cls-65{fill:#90a9a2;}.cls-66{fill:#ffae00;}.cls-67{fill:#373115;}.cls-68{fill:gold;}.cls-69{fill:#f8f5da;}.cls-70{fill:#ebd494;}.cls-71{fill:#fb0;}.cls-72{fill:#fb9600;}.cls-73{fill:#ffa600;}.cls-74{fill:#7f7431;}.cls-75{fill:#ad8d40;}.cls-76{fill:#e5b219;}.cls-77{fill:#9dd3d4;}.cls-78{fill:#9bd9d8;}.cls-79{fill:#75aba2;}.cls-80{fill:#7aadaa;}.cls-81{fill:#ffb000;}.cls-82{fill:#db9a19;}.cls-83{fill:#ffb400;}.cls-84{fill:#f8cc60;}.cls-85{fill:#e6ac21;}.cls-86{fill:#e6e1b5;}.cls-87{fill:#947835;}.cls-88{fill:#534422;}.cls-89{fill:#ffa800;}.cls-90{fill:#6d7c6d;}.cls-91{fill:#c29841;}.cls-92{fill:#908a74;}.cls-93{fill:#ab7e19;}.cls-94{fill:#80652a;}.cls-95{fill:#4a2100;}.cls-96{fill:#ffd200;}.cls-97{fill:#e4d09e;}.cls-98{fill:#503c2f;}.cls-99{fill:#6a8280;}.cls-100{fill:#6f837f;}.cls-101{fill:#a6afac;}.cls-102{fill:#454a2c;}.cls-103{fill:#423f2b;}.cls-104{fill:#183155;}.cls-105{fill:#66746e;}.cls-106{fill:#b77500;}.cls-107{fill:#1f3043;}.cls-108{fill:#83692a;}.cls-109{fill:#362001;}.cls-110{fill:#122219;}.cls-111{fill:#192d25;}</style></defs><title>logo_1</title><g id="Capa_2" data-name="Capa 2"><g id="Pagina_principal_-_mobil" data-name="Pagina principal - mobil"><path class="cls-1" d="M225.8,22.8c3.1.9,3.9,2,3.6,4.9s-.5,4.4-.8,6.5c0,.5-.3,1.2.4,1.4s.7-.5.9-.9.2-.6.5-.4.2.4.1.7a3.3,3.3,0,0,1-3.7,2.2,3,3,0,0,1-2.6-3,30.4,30.4,0,0,1,.5-6,24.8,24.8,0,0,0,.3-2.7c.1-.8.1-1.7-.8-2.1s-2.1-.2-2.3,1.3c-.4,3.4-.8,6.8-1.3,10.3-.1.7-.2,1.3.9,1.2a.4.4,0,0,1,.4.4c0,.2-.2.3-.5.3h-6.6c-.2,0-.5-.1-.4-.3a.4.4,0,0,1,.4-.4c1,.1,1.2-.4,1.3-1.2.9-7.4,1.8-14.8,2.8-22.2.1-.8.2-1.4-.9-1.4s-.5-.1-.4-.4.2-.2.4-.2h1.9c1.8,0,3.7.1,5.6,0,5.6-.1,6.6,4.9,4.8,8.5A6.9,6.9,0,0,1,225.8,22.8Z"/><path class="cls-2" d="M100.2,36.6c-3.1.7-6.3.2-9.5.3-.3.1-.7.1-.7-.4s.3-.3.6-.3.7-.2.8-.7c.5-4.9,1.1-9.8,1.7-14.7.6-2.9.8-5.7,1.2-8.6.1-.6-.2-.7-.7-.7s-.6,0-.7-.4.3-.4.6-.4c2.8.1,5.7-.2,8.5.3s5.5,5.3,3.2,9a9.6,9.6,0,0,1-4.2,3.5v.2c4,1.7,5.2,5.4,3,9.4A8.6,8.6,0,0,1,100.2,36.6Z"/><path class="cls-3" d="M214.7,11c-.3,2.1-.5,4.3-.8,6.5,0,.3-.2.4-.5.4s-.3-.4-.3-.6a10.1,10.1,0,0,0-1.2-4.5,2.7,2.7,0,0,0-4.9,0,5.3,5.3,0,0,0,.5,5.9,32.2,32.2,0,0,0,3.9,4.3c3.5,3.6,3.4,9.5-.1,12.6a5.9,5.9,0,0,1-7.6.5c-.9-.6-1.7-.8-2.2.5s-.2.4-.5.2-.2-.3-.2-.5c.3-2.3.5-4.5.8-6.8.1-.3.1-.7.5-.6s.4.4.4.7a8.6,8.6,0,0,0,.3,2.8,6.7,6.7,0,0,0,1,2.3,3.6,3.6,0,0,0,3.9,1.7,4,4,0,0,0,2.8-3.2,6.6,6.6,0,0,0-1.7-5.3c-1.6-1.9-3.6-3.5-4.9-5.7a8.5,8.5,0,0,1,2-10.4,5.1,5.1,0,0,1,6.1-.6c.9.6,1.7.9,2.4-.5Z"/><path class="cls-2" d="M128,36.9c-1.6,0-3.2.1-4.8,0s-.8.2-.8-.3.4-.5.7-.4.9-.4.9-1l1.8-13.8c.3-2.9.7-5.8,1.1-8.7.1-.7.2-1.3-.8-1.2s-.5-.1-.5-.4.2-.3.4-.3h6.7c.2,0,.5.1.5.4s-.3.4-.5.4-1.1.7-1.3,1.5l-2.7,21.7c-.2,1.5.3,1.9,1.7,1.3a6.1,6.1,0,0,0,3-3.7c.3-.7.4-1.5.7-2.2a.4.4,0,0,1,.4-.4c.3.1.3.3.2.6-.2,2-.5,4-.8,6s-.5.6-1,.6Z"/><path class="cls-4" d="M169.6,36.9c-1.6,0-3.3.1-4.9,0s-.8.2-.8-.3.4-.5.7-.4.9-.4.9-1.1c1-7.5,1.9-14.9,2.9-22.4.1-.7.2-1.4-.9-1.2s-.5-.2-.4-.4.2-.4.5-.4h6.5c.2,0,.5.1.5.4s-.3.4-.6.3-.9.5-1,1.2c-1,7.5-1.9,14.9-2.9,22.4-.1,1.2.4,1.3,1.3,1.1a3.9,3.9,0,0,0,2.7-2.3,11.3,11.3,0,0,0,1.4-3.6c.1-.2.1-.6.5-.4s.2.3.2.5c-.2,2-.5,4-.8,6.1s-.6.5-1,.5Z"/><path class="cls-5" d="M236.9,36.9h-4.8c-.3,0-.8.1-.8-.4s.4-.3.7-.3.8-.3.9-.9c.9-7.5,1.9-15.1,2.9-22.7.1-.6.1-1.2-.9-1.1a.4.4,0,0,1-.4-.4.5.5,0,0,1,.5-.4h6.6c.2,0,.4,0,.5.3s-.2.5-.5.4-1.2.7-1.3,1.5c-.9,7.4-1.8,14.8-2.8,22.2-.1,1,.3,1.2,1.2,1s2.8-2.1,3.6-3.8a12.9,12.9,0,0,0,.6-2.1c.1-.2.1-.5.4-.4s.3.3.3.6c-.3,1.9-.6,3.8-.8,5.8s-.4.8-1,.7Z"/><path class="cls-6" d="M140.7,36.9c-2.2-.7-3-2.6-3.4-4.5a25.1,25.1,0,0,1,3.4-18.9,7.8,7.8,0,0,1,2.6-2.5c1.1-.6,2.3-.9,3.3.1s1,.8,1.6.1.3-.5.6-.3.2.4.2.7l-.6,5c0,.3-.1.7-.5.7s-.3-.4-.3-.7a18,18,0,0,0-.8-3.9c-.3-.7-.7-1.4-1.6-1.4s-1.2.7-1.4,1.4a22.5,22.5,0,0,0-.5,2.2c-.9,6.7-1.7,13.4-2.5,20.1,0,1.4,1,1.6,2.1,1.7A2.4,2.4,0,0,1,140.7,36.9Z"/><path class="cls-7" d="M117.9,14.6c.3,4.2.7,8.4,1.1,12.6.2,2.6.5,5.2.7,7.8,0,.7,0,1.3,1,1.2s.6,0,.6.3-.4.4-.7.4h-6c-.3,0-.7.1-.7-.3s.3-.5.6-.4.8-.3.7-.9-.2-3.2-.4-4.8-.1-.9-.7-.8h-3.3c-.7-.1-.8.6-1.2.9l-.3-.3a6.6,6.6,0,0,1,.8-2.1c.2-.2.1-.6.4-.6s.4.3.4.6v.3a3.3,3.3,0,0,0,3.3,0c-.1-2.5-.4-5-.7-7.5,0-.3-.2-.4-.4-.5s-.2-.6-.1-.9c.9-2.8,1.9-5.6,2.8-8.4.2-.6.5-.8,1-.8s.7.6.7,1a7.1,7.1,0,0,0,.3,2.1A.8.8,0,0,1,117.9,14.6Z"/><path class="cls-2" d="M184.4,17.7l2.1-6.6a1,1,0,0,1,1.1-.7c.7.1.6.6.6,1l2.1,23.5c.1.7.1,1.4,1.1,1.3s.6,0,.6.4-.3.3-.6.3h-6.2c-.3,0-.5,0-.5-.3s.1-.4.4-.4.9-.6.8-1.2-.3-3.5-.4-5.2-2.6-.1-3.9-.2-1,.2-1-.4.6-.4,1-.4h2.7c.6,0,.8-.3.8-.9a21.2,21.2,0,0,0-.5-4.4,7.4,7.4,0,0,1-.3-2.9C184.2,19.6,183.9,18.6,184.4,17.7Z"/><path class="cls-8" d="M155.9,15.6c.5-1.5.9-3,1.4-4.5a1,1,0,0,1,1.1-.7c.6.1.5.6.6,1,.5,5.2.9,10.4,1.4,15.6.3,2.7.5,5.3.8,7.9,0,.7,0,1.4,1,1.3a.4.4,0,0,1,.6.4c-.1.4-.4.3-.7.3-2,.1-4,0-6.1,0-.2,0-.6.1-.6-.3s.3-.5.6-.4.8-.5.7-1-.3-3.6-.5-5.4a11.4,11.4,0,0,0-4.5,0h0c-.6-.1-.4-.5-.3-.9h0c1-.3,2,.1,3-.1s1,.2,1.3-.3a.8.8,0,0,0,.1-.4,27.3,27.3,0,0,0-.6-7.6C154.7,18.5,155.6,17.2,155.9,15.6Z"/><path class="cls-9" d="M250,34.3c0,1.7-1,2.9-2.5,2.9a2.7,2.7,0,0,1-2.8-2.9,2.7,2.7,0,0,1,2.6-2.9A2.6,2.6,0,0,1,250,34.3Z"/><path class="cls-10" d="M184.9,23.4a23.3,23.3,0,0,1,.7,5.3c0,.5-.5.5-.9.5h-3.8a17.7,17.7,0,0,0,3.3.2c.4,0,1-.3,1.3.3-1.3-.2-2.6,0-3.8-.1s-.8.4-1,.9-.6,2.5-1.3,3.6-.5,0-.6-.2c1.7-5.3,3.5-10.5,5.3-15.7,0-.2.2-.4.3-.6s.4,1.8.3,2.8a47.7,47.7,0,0,0-2.6,7.2c-.2.5.1.8.6.9s2.3-.2,2.1-2S184.3,24.4,184.9,23.4Z"/><path class="cls-11" d="M156.2,28.6c0,.5-.3.6-.7.6a11.2,11.2,0,0,1-4.1-.3c1.3-4.5,2.8-9,4.5-13.3h0c-1.4,3,.1,6,.1,9,.1,1.2.2,2.5.2,3.8a.7.7,0,0,1-.6-.8c-.1-2.2-.4-4.3-.6-6.5-.6,2.1-1.3,4.1-2,6.1s-.1,1.3.9,1.3A17.7,17.7,0,0,1,156.2,28.6Z"/><path class="cls-12" d="M109.3,30.3l.3.3c.1,1.2-.5,2.2-.8,3.3s-.4,1.7,1.1,2.3a.4.4,0,0,1,.4.4c0,.3-.2.3-.5.4H106c-.3-.1-.6-.1-.5-.5s.2-.4.5-.3,1.5-.9,1.8-1.8S108.6,31.6,109.3,30.3Z"/><path class="cls-13" d="M110.6,28.4v-.6l-.4.4a78.9,78.9,0,0,1,2.9-8.6c.1.2,0,.6.3.8s.2.9.1,1.3l-2.1,6.1C111.2,28,111.2,28.5,110.6,28.4Z"/><path class="cls-14" d="M178.8,34c.3-.2.6-.5.6.2s-.5,1.9,1,2,.6,0,.6.3-.4.4-.7.4h-3.4c-.3,0-.6,0-.7-.3a.4.4,0,0,1,.4-.4C178.1,36.1,178.4,35,178.8,34Z"/><path class="cls-11" d="M151.4,28.9c0,.3,0,.7.3.9l-1.2,3.7c-.7,2.1-.7,2.1,1.2,2.9-1.4.5-2.1,0-2.2-1.4v-.8A33.5,33.5,0,0,1,151.4,28.9Z"/><path class="cls-15" d="M149.5,34.2c.1.2.3.4.3.6s.7,1.7,1.9,1.6,0,.5-.3.5h-3.9c-.3,0-.5-.1-.5-.3a.4.4,0,0,1,.4-.4C148.8,36.3,149.1,35.1,149.5,34.2Z"/><path class="cls-6" d="M145.8,32.3a3.7,3.7,0,0,1,.5-1.8c.6-.1.4.4.4.7a42.6,42.6,0,0,1-.6,5c-.1,1-.7.4-1.1-.1l-.3-.2a1.1,1.1,0,0,1,0-1.1h0A8,8,0,0,0,145.8,32.3Z"/><path class="cls-16" d="M144.7,34.8v1.1c-1,.7-1.8,1.7-3.3,1.3a.7.7,0,0,1-.7-.3h1.9c-1.1-.2-2.1-.4-1.8-1.9.7,1.8,1.8,2,3.1.6Z"/><path class="cls-16" d="M145,36.1c.6.5,1.1.6,1.1-.5a16.5,16.5,0,0,1,.5-3.8c0-.4.2-.9-.3-1.3s.1-.9.5-.8.3.5.2.8c-.2,1.9-.5,3.7-.7,5.5s0,.8-.4.9S145.1,36.6,145,36.1Z"/><path class="cls-11" d="M151.7,29.8a6.3,6.3,0,0,1,4.5,0A22.6,22.6,0,0,0,151.7,29.8Z"/><path class="cls-16" d="M145.8,32.3a3.1,3.1,0,0,1-1.1,2.5C145.1,33.9,145.4,33.1,145.8,32.3Z"/><path class="cls-17" d="M226.6,14c-.4,2.2-.7,4.3-1,6.5a2,2,0,0,1-1.2,1.7,2.1,2.1,0,0,1-1.9.1c-.5-.3-.2-.9-.1-1.4.3-2.7.6-5.3,1-7.9.1-.7-.1-1.6,1.1-1.5s1.9.4,2,1.7V14Z"/><path class="cls-17" d="M100.4,26.3c-.4,2.6-.7,5.3-1.1,8s-.9,1.9-2.5,1.9-.9-.3-.8-1c.4-3.5.9-7.1,1.3-10.6.1-.6.4-.7.8-.7s1.7-.1,2,.9A8,8,0,0,1,100.4,26.3Z"/><path class="cls-17" d="M97.6,22.2c.4-3.4.8-6.5,1.2-9.6.1-.4-.1-1.2.8-1.1s1.8-.2,2,.9a2.1,2.1,0,0,1,.1,1.1c-.3,2.6-.6,5.2-1,7.9a1.9,1.9,0,0,1-1.9,1.8C97.9,23.2,97.2,23.1,97.6,22.2Z"/><path class="cls-13" d="M110.6,28.4c.1.6.6.5,1,.5h3c-1.3.7-2.6.3-3.9.2S110.3,28.7,110.6,28.4Z"/><path class="cls-18" d="M85.1,43.6c.3.7.9.5,1.4.6l1.1.4a1.7,1.7,0,0,1,.6.8h-.4l-1.3-.2a10.5,10.5,0,0,1-1.9-.5C84.3,44.2,84.5,43.9,85.1,43.6Z"/><path class="cls-19" d="M87.9,45.3h.3c1.9.3,3.8.8,5.7,1.3a28,28,0,0,1,3.1.9,13.4,13.4,0,0,1-4-.1h0a38.1,38.1,0,0,0-4.7-.7C80.8,46,73.2,45.4,65.7,45c-10.3-.5-20.5-.5-30.8-.1S14.7,46.1,4.7,47L0,47.4a122.1,122.1,0,0,1,13.3-3.1h.4c-.3.6-.9.4-1.3.5A4.7,4.7,0,0,1,14,45a17,17,0,0,0,4.5-.1l3.2-.5a24.9,24.9,0,0,0,3.7-.9.8.8,0,0,0,.5-.5c0-.3-.3-.2-.5-.3s-.8-.6-.7-1.2a2,2,0,0,0-.6-1.6c0-.3.4-.5.3-.8s.1-2.8,0-4.1.2-.8.8-.7L53.1,39l2.2.3a9.3,9.3,0,0,0,2.4-.4l5.4-1.4h.1c.3.2.3.5.5.7a1.5,1.5,0,0,0,1.3.9,4.6,4.6,0,0,1,.7.7,1.2,1.2,0,0,0,1.9,0,2.1,2.1,0,0,0,.6-1,2,2,0,0,1,.4-.8c.1,0,.1-.1.2-.2s.3-.5-.2-.5a13.6,13.6,0,0,1-2-.2c-.2,0-.5,0-.5-.2s.2-.3.3-.4L71.7,35l1.5-.4c.3,0,.6-.1.8,0a.9.9,0,0,1,.4.8c0,1.9,0,3.8-.1,5.7a7.7,7.7,0,0,1-.2,1.5c-.2.3-.5.3-.8.4h-.8c-.3.1-.8,0-.8.4s.4.4.7.5a39.7,39.7,0,0,0,6,1.1,72.6,72.6,0,0,0,8,.4Z"/><path class="cls-20" d="M12.2,42.4h0a3.8,3.8,0,0,1,2.1.4.5.5,0,0,1,.3.5v.2h-.3"/><path class="cls-21" d="M13.7,44.4h-.4c.2-.2.6-.2.9-.3s.5-.3.3-.6.1-.1.1,0,.5.1.7.3a.3.3,0,0,1-.3.5A1.9,1.9,0,0,1,13.7,44.4Z"/><path class="cls-19" d="M55.7,19V.7c0-.2-.2-.5.1-.7s.4.2.6.3L61.9,4a1.2,1.2,0,0,1,.7,1.2c-.1,10.1-.1,20.3,0,30.4,0,.6-.2.8-.7.9l-5.6,1.6c-.6.2-.6,0-.6-.6Z"/><path class="cls-22" d="M24.5,27.8V9.7a2.8,2.8,0,0,1,.1-.9l4.9-2.5c.7-.3.7-.3.7.5V33.5c0,.6-.1.8-.8.6l-4.3-.7c-.5,0-.7-.2-.6-.7V31.4c.3-.3.5,0,.7,0s.4.1.4-.2l-.3-2.4c0-.4,0-.8-.7-.7S24.4,28,24.5,27.8Z"/><path class="cls-23" d="M54.8,1.9c0,1.7,0,1.7-1.5,2.2L33.8,11l-1.8.6c-.4.2-.5,0-.5-.4-.1-2.3-.1-2.3,2.1-3.1L54,.4c.8-.3.8-.3.8.6Z"/><path class="cls-24" d="M54.7,13.8c0,1.9,0,1.9-1.8,2.2L34.7,18.9l-2.6.5c-.5.1-.6-.1-.6-.5s0-1.9,1.9-2.3l20.2-4.4c1.1-.3,1.1-.3,1.1.9Z"/><path class="cls-22" d="M43.1,27.2H32.3c-.6,0-.8-.1-.8-.8s0-1.7,1.8-1.8l20.7-1c.6-.1.8.1.7.7v2.3c.1.6-.1.7-.7.7H43.1Z"/><path class="cls-25" d="M33.7,23.2l-1.7.2c-.4,0-.5-.2-.5-.5v-.2c0-1.8,0-1.8,1.8-2l19.3-2.5,1.5-.2c.4-.1.6,0,.6.5v2.7c0,.4-.1.6-.5.6L36.5,23l-2.8.2Z"/><path class="cls-24" d="M54.7,7.9c0,1.8,0,1.8-1.8,2.3L32.4,15.6c-.9.2-.9.2-.9-.7s0-1.6,1.5-2.1L51.9,6.9l2.2-.7c.5-.2.7-.1.6.5Z"/><path class="cls-26" d="M43.1,29.2l11,.4c.5,0,.6.1.6.6v2.5c0,.5-.1.6-.6.6l-7.5-.6L34.4,31.6,32,31.4c-.4,0-.5-.2-.5-.5a6.6,6.6,0,0,0,0-1.4c0-.5.2-.7.7-.6l10.4.3Z"/><path class="cls-19" d="M63.3,8.7,65.8,11l8.1,7.1a1.1,1.1,0,0,1,.4,1.3c0,1.6,0,1.6-1.4,1.1l-9.2-3.4c-.5-.1-.6-.4-.6-.8V9.2A.4.4,0,0,1,63.3,8.7Z"/><path class="cls-24" d="M54.7,36.5c0,1.6,0,1.6-1.5,1.3L32.3,34.6c-.3-.1-.7,0-.7-.3a2.9,2.9,0,0,1,0-1.6c.1-.2.3-.1.5-.1l10.3,1.1,11.5,1.2c.7,0,.9.3.8,1Z"/><path class="cls-19" d="M63.1,21V19.4c0-.6.1-.7.7-.5l7.8,2.7,2.3.7a.5.5,0,0,1,.4.6v2.3c0,.4-.1.5-.5.4L63.5,23.4a.5.5,0,0,1-.4-.6V21Z"/><path class="cls-27" d="M63.4,29.9c-.4-.1-.3-.3-.3-.6V25.8c0-.5.2-.6.6-.5L73.9,27a.4.4,0,0,1,.4.2,16.2,16.2,0,0,0-.1,2.2c0,.4-.1.5-.5.4s-3.1-1.2-4.5-1.9l-.7-.2a23.1,23.1,0,0,1-2.8-1c-.7-.5-1,0-1.3.4a3.2,3.2,0,0,0-.7,2.3A.5.5,0,0,1,63.4,29.9Z"/><path class="cls-28" d="M74,42.7c.2-2.4.1-4.9.1-7.3,0-.2.1-.6-.2-.7s.4-.2.5,0a2.8,2.8,0,0,1,.1.9V40c0,.7.1.8.7.6l2.2-.3a19,19,0,0,1,2.5.3,1.6,1.6,0,0,0,1.2-.2c.2,0,.3,0,.2.2a.3.3,0,0,0,.3.3,11.7,11.7,0,0,1,2.4.9c1,.4,1.2.7,1.1,1.8a2.1,2.1,0,0,0-.6,1c-.1.2-.2.2-.4.1l-8.9-1a1,1,0,0,1-.9-.4C74.1,43.1,73.9,43,74,42.7Z"/><path class="cls-29" d="M24.5,27.8c0,.1.1.3.2.2s.7-.1.7.4.2,2,.4,3-.1.5-.5.3-.5-.3-.8-.3S23.4,30.7,23,30s-1.1,1.2-1,2.1a.8.8,0,0,1-.2.5c-.6.6-.6,1.5-.9,2.3a.4.4,0,0,0,.3.6.5.5,0,0,1,.2.4c.1,1.4,1.1,2.2,2.2,2.9s.4.5.8.3.3.6-.3.6H24a2.1,2.1,0,0,0-2.3,0c-.2,0-.3-.1-.3-.2s.4-.5.8-.6.4-.3.1-.5-1-1.5-1.6-2.2-.2-.2-.2-.3a7.3,7.3,0,0,1,.6-3c.5-1,.8-1.9.1-2.9s0-.3-.2-.3.1.9.3,1.3.2.8-.3,1-.7.4-.4,1.1a.4.4,0,0,1,0,.6c-.2.1-.3-.1-.5-.2l-.3-.5a2.4,2.4,0,0,1,.5-1.6c.4-.1.5-.3.3-.7a4.8,4.8,0,0,1,0-1.2c.1-.5.2-.9.8-.9a.5.5,0,0,1,.2.4c.1.2-.1.6.3.6s.4-.3.5-.6l.3-.6C23.2,28,23.9,28.1,24.5,27.8Z"/><path class="cls-30" d="M81.3,40.6h-.1a26.4,26.4,0,0,1-2.8-.2H76.9c-.4-.2-.6-.5-.4-.9a1.6,1.6,0,0,0,.1-1.2,11.1,11.1,0,0,1-.7-2.6,4.6,4.6,0,0,0,.7-.7c.5.2.9.8,1.4,1.1a.6.6,0,0,1-.1.6c-.5.1-.6-.3-.9-.5a20.2,20.2,0,0,0,.7,2.3.3.3,0,0,1,.1.2c-.1.5.1.8.7.8a3.9,3.9,0,0,1,1.5.2,21,21,0,0,1,2.4.6,18.4,18.4,0,0,0,4.1.4c.5-.1.5-.5.5-.9s-.2-1-1-1.2L83,38H81.8c-.3-.4.1-.4.2-.5s.2-.1.2,0a2,2,0,0,0,1.3.2,9.3,9.3,0,0,1,3.3.3,2.4,2.4,0,0,1,.4,2.9c-.3.3-.6.2-.9.2l-4.4-.5Z"/><path class="cls-31" d="M82.2,37.4h-.1a.8.8,0,0,1-.7.1c-.1-.3.2-.6.1-.9s-.4-.5-.8-.5-.5.2-.5.5a2.2,2.2,0,0,0-.1.8c0,.4.5.3.5.6s-1,1.4-1.9,1.3-.3,0-.4-.2.4-.2.6-.3.4,0,.4-.3-.3-.2-.4-.3-.7.3-.9.7-.1-.4-.3-.5h-.1a2.1,2.1,0,0,1,.2-1.7c.1-.1.3-.2.4-.1s.2.1.2.3a.6.6,0,0,0,.8.4c.4-.1.3-.6.3-1s-.4-.3-.7-.3-.4.2-.5,0-.1-.8.2-1.1l3.3.3c.4,0,.5.2.5.5A10.9,10.9,0,0,1,82.2,37.4Z"/><path class="cls-32" d="M38.1,4.9l-1.6.8L32.3,7.5c-.8.4-.8.4-.8-.5V6.6c-.1-.5.2-.6.7-.7l5.2-1A.8.8,0,0,1,38.1,4.9Z"/><path class="cls-33" d="M76.7,31.9a15.3,15.3,0,0,1,1.7,2.7h-.2c-.4,0-.6-.3-.8-.6a4.9,4.9,0,0,0-1.8-2.2l-.4-.3c-.1-.2-.4-.3-.6-.4s-.6-.2-.6-.6.6-.1.9-.2A5.2,5.2,0,0,1,76.7,31.9Z"/><path class="cls-34" d="M63.4,29.9a.9.9,0,0,0,.1-.5,3.3,3.3,0,0,1,.8-2.5c.4.5,0,.9-.2,1.3s.1,1.3.2,2a8.8,8.8,0,0,0-.2,1.6c-.1.2-.1.4-.2.6a.6.6,0,0,1-.5.5c-.3-.2,0-.7-.3-.9A3.1,3.1,0,0,0,63.4,29.9Z"/><path class="cls-35" d="M86.8,37.9a18.4,18.4,0,0,1-3.3-.3c.3-.3.5-.8,1-.6S86.4,36.8,86.8,37.9Z"/><path class="cls-36" d="M63.4,32.8l.4-.4a.5.5,0,0,1,.2.7,14.9,14.9,0,0,0-.2,2.1.5.5,0,0,0,.6.6.4.4,0,0,1,.4.4c.1.1.1.2,0,.2l-.9.5c-.4.1-.1.5-.3.7s-.3,0-.5,0h0c.2-.4,0-.9.2-1.3A13,13,0,0,1,63.4,32.8Z"/><path class="cls-37" d="M62.9,16.6h-.2"/><path class="cls-37" d="M62.7,11.1h.2"/><path class="cls-38" d="M63.4,32.8a9.6,9.6,0,0,1-.1,3.4c-.2-.1-.2-.3-.2-.5V32c.2-.1.3,0,.3.2Z"/><path class="cls-39" d="M74.8,30.5c-.2.4-.5.1-.8.1a.6.6,0,0,0-.6,0c-.2,0-.4,0-.5-.2s.2-.2.1-.4h.4c.3.1.2-.1.2-.2s.6-.1.6-.5v-2a17.7,17.7,0,0,1,.1,2.3l.5.5C74.9,30.2,75,30.3,74.8,30.5Z"/><path class="cls-40" d="M78.2,34.7h.2v.2c0,.4-.1.7-.1,1.1s.1.5-.2.6h-.3c-.1,0-.1,0-.1-.1v-.6A1.8,1.8,0,0,1,78.2,34.7Z"/><path class="cls-41" d="M74.8,30.5c.2-.5-.6-.5-.5-1s.6.3.7.7.2.3.5.5,1,.5,1.2,1.2A8.5,8.5,0,0,0,74.8,30.5Z"/><path class="cls-42" d="M11.8,42.1c-.3,0-.4-.2-.5-.4a11.4,11.4,0,0,1,.1-4.1,1.3,1.3,0,0,1,.9-.7c.5,0,.6-.3.6-.8a19.4,19.4,0,0,1-.2-2.4A1.4,1.4,0,0,1,14,32.2a10.6,10.6,0,0,1,3.1-.1c1,.3,1.1,1.1,1.4,1.9a35.8,35.8,0,0,0,.9,3.5v.2h-.2c-.3.1-.3-.1-.4-.3s-.2-.9-.6-1.2-.3-.6-.3-1a2.8,2.8,0,0,0-.6-1.8,1.2,1.2,0,0,0-1.4-.6c-.5.2-.4.5-.4.8s.4,2.2.4,3.3a.5.5,0,0,1-.2.4c-.4-.1-.3-.4-.3-.6s.1.5-.1.7a.2.2,0,0,1-.3,0c-.2-1.2-.3-2.3-.5-3.5s0-.7-.4-.7-.4.4-.5.8.1,1,.1,1.5.2.8,0,1.2-.6.4-.5.8-.3.5-.4.1-.2-.3-.4-.2a1,1,0,0,0-.4.5,2.7,2.7,0,0,0-.4,2.3v.2A7.8,7.8,0,0,0,11.8,42.1Z"/><path class="cls-43" d="M20.4,33.7c.3-.2.2-.4.1-.6s-.6-.9.2-1.1.7-.5.4-1.1a1.2,1.2,0,0,1-.2-1.4c0-.1,0-.2.1-.2s.3.1.3.2a1.1,1.1,0,0,0,.5,1c.1,0,.2.3.1.4s-.1.7-.2,1a.7.7,0,0,1-.1.5c-.9,1-.7,2.2-.9,3.3s.3.4.4.6a5.7,5.7,0,0,0,1.5,2.2c.3.2.2.5-.1.5s-.7.3-1,.4a4.1,4.1,0,0,1-1.3-2.3,10.9,10.9,0,0,1-.9-2.3l.4-.2c.3,0,.4-.2.4-.5S20.1,33.7,20.4,33.7Z"/><path class="cls-44" d="M19.3,37.6a.1.1,0,0,1,.1-.1H20c.3-.1.4.1.4.3a2,2,0,0,0,.4.8,1,1,0,0,1,.1,1.6c-.2.3,0,.8-.3,1.1l-1.9.6a2.2,2.2,0,0,1-.9-1.7H18c.5-.3,1.2-.2,1.7-.5a.5.5,0,0,1,.4-.2c-.4,0-.5-.3-.5-.6Z"/><path class="cls-45" d="M11.8,42.1c-.5-.5-.3-1.1-.3-1.7s.3.4.3.7a1.8,1.8,0,0,0,2,.8l.2-.4a1.4,1.4,0,0,1,.2-.6,2.1,2.1,0,0,1,2.6-1.2c0-.5-.1-.8-.6-.9s-.6,0-.8-.3-.7-.1-1.1-.3-.6-.1-.6-.6.5,0,.8,0,.5.2.8-.1a3.3,3.3,0,0,1,.1-1.4c.3.4-.1.9.3,1.2s.3.9.9.9.8.9,1.1,1.4.6.2.2.5h0a.7.7,0,0,1-.6.4l-.6-.2a1.7,1.7,0,0,0-2.1,1.5c0,.3.1.6-.2.9s-1.4-.5-2.2-.5Z"/><path class="cls-46" d="M20.6,41.2a2,2,0,0,1,.4-1.5c.1-.2.2-.4.1-.5S20.4,38,20,37.5l.2-.4a17.1,17.1,0,0,0,1.3,2.3c0,.2.1.2.2.2s-.4,1.4-.5,2.2-.4-.2-.6-.5Z"/><path class="cls-47" d="M19.7,34.8h-.4c0-.3.2-.5.2-.8l.3-1a.8.8,0,0,1,.4.4A1.6,1.6,0,0,1,19.7,34.8Z"/><path class="cls-48" d="M22.7,28.4c.2.2-.1.3-.1.5a.8.8,0,0,1-1,.1.5.5,0,0,1-.2-.4Z"/><path class="cls-49" d="M20.6,30.7c.3.1.3.3.2.6s-.3.1-.5.1Z"/><path class="cls-50" d="M74,42.7a1.3,1.3,0,0,0,1,.8l4.9.5c1.5.2,3.1.3,4.6.6l2,.4,1.4.3h0c.1.3,0,.3-.2.3s-3.2.1-4.8,0a43.2,43.2,0,0,1-8.8-1.1l-1.8-.4h-.2c-.4-.2-.8-.5-.8-.9s.6-.4.9-.4Z"/><path class="cls-19" d="M87.9,45.3a2.2,2.2,0,0,1-1.4-.3A5.8,5.8,0,0,1,87.9,45.3Z"/><path class="cls-51" d="M13.7,44.4l1.2-.3c.3,0,.4-.1.2-.4s0-.4.3-.5a2,2,0,0,0,1.5-.1,1.5,1.5,0,0,1,.7.3,6.6,6.6,0,0,0,1.4-.1l2.6-.4c0-.2-.3-.4-.2-.6a.4.4,0,0,1,.4-.4l.5.2c.9.5,1.6.1,1.6-.9s-.3-.8-.3-1.2.2-.4.5-.3h0a2.1,2.1,0,0,1,.8,2.1c-.1.6.6.7,1,.9s.3-.1.4.1-.2.3-.3.5-1.2.5-1.8.7a28.7,28.7,0,0,1-7.6,1.2c-1.1.1-2.3.4-3.3-.2s-.7-.1-1.2-.1S13.2,44.6,13.7,44.4Z"/><path class="cls-52" d="M68.7,38.2a.6.6,0,0,0-.3.6,2,2,0,0,1-1.9,1.6c-.5,0-.7-.3-1-.6l-.6-.6c-.2-.1-.4,0-.5-.3l.5-.6a.6.6,0,0,1,.5-.2c-.7-.1-.6-.7-.8-1.1s0-.3.2-.4.2,0,.3,0,.2.2.2.3.3.7.8.8,1.5.4,1,1.7-.5.6-.9.2-.1-.5-.2-.7,0,.5.2.7.7.2.9-.2.1-.5.2-.8S67.9,37.7,68.7,38.2Z"/><path class="cls-53" d="M68.7,38.2c-.7-.3-1.2-.2-1.3.7a2,2,0,0,1-.4.8c-.3.4-.6.4-.8-.1h0c.5.3.7.1.8-.5a.4.4,0,0,1,.1-.3c.2-.9.2-.9-.7-.9h-.8c-.3-.1-.6-.1-.5-.6a.4.4,0,0,0-.1-.5c.2-.2.4-.1.6-.1h.8l-.3.3,2.8.3c.2,0,.3-.2.4,0s-.1.3-.1.5S68.8,38,68.7,38.2Z"/><path class="cls-54" d="M64.5,38.9l.4.3c-.4.2-.6-.1-.9-.3a10.1,10.1,0,0,1-.9-1.3c.2-.1.3,0,.4,0A2.2,2.2,0,0,1,64.5,38.9Z"/><path class="cls-55" d="M17.5,43.5l-.5-.3c-.2-.2.1-.4.1-.5a1.3,1.3,0,0,0-.3-1.5,1.1,1.1,0,0,0-1.1,0,1.1,1.1,0,0,0-.3,1.5c0,.2.2.3,0,.5s-.3.3-.3.5-.2-.4-.5-.3-.1-.4-.2-.6a2.7,2.7,0,0,1,.5-2.1c.6-.7,1.3-.8,2.4-.2a1.7,1.7,0,0,1,.9,1.8.4.4,0,0,1-.1.3C18,43,18.1,43.4,17.5,43.5Z"/><path class="cls-33" d="M72.9,30.3c.1.2.4.1.5.2s.5-.1.5.2a.4.4,0,0,1-.6.2c-1.6-.5-3.2-.4-4.8-.9l-.9-.2c-.3,0-.5.1-.5.4s-.5.2-.6,0-.4-.3-.6-.1-.5-.4-.3-.7a1.5,1.5,0,0,0-.2-2.1c-.3-.3-.5-.3-.7.1a.8.8,0,0,1-.2.5c-.1.2-.3.4-.6.2a1.4,1.4,0,0,0,.4-1.2c.4-.2.6-1.2,1.4-.3s.3.2.4.4a2.9,2.9,0,0,1,.5,1.3c0,.6.4.8.9.9H68c1.5.4,3,.5,4.5.9Z"/><path class="cls-56" d="M73.6,29.7c.1.1.4.4-.1.3H73c-.3.1-.5-.1-.7-.2l-2.7-1.2h-.8a.9.9,0,0,1-.6-.6c-.1-.3.1-.4.3-.5s1,.4,1.4.6Z"/><path class="cls-57" d="M68.5,27.5c0,.2-.2.2-.2.4h-.2c-.6-.1-1.1-.5-1.7-.6s-.3-.3-.5-.5-.2-.2-.2-.3a8.1,8.1,0,0,1,2.2.7Z"/><path class="cls-58" d="M83.4,43.4h-.1c-.8.4-1.6,0-2.3,0l-2.5-.2a10.1,10.1,0,0,1-2.5-.5c-.6-.3-.5-.3-1,.2s-.5-.1-.6-.3a1,1,0,0,1,.4-1.3c.2,0,.3-.1.3.2s.4.2.6.2a8.4,8.4,0,0,0,2.7.4c1.4.3,2.8.3,4.2.6A1,1,0,0,1,83.4,43.4Z"/><path class="cls-59" d="M84,42.2c-.4,0-.7.6-1-.1s-.2-.1-.2-.1-1.5-.2-2-.1-1.9-.5-2.9-.2a1.3,1.3,0,0,1-1.2-.3c-.3-.1-.5-.2-.6.2s-.2.1-.4,0-.3-.2-.2-.4.2-.1.3-.1l1.1-.2c.5-.1.2.6.6.4s.2-.5.6-.5l2,.2,1.1.2c.5-.1.3.5.5.6s.3-.6.8-.3A6.6,6.6,0,0,1,84,42.2Z"/><path class="cls-60" d="M83.4,43.4c-1-.8-2.3-.7-3.5-.9L76,42.1a.3.3,0,0,1-.3-.3l4.3.5,2.8.3C83.4,42.7,83.5,42.9,83.4,43.4Z"/><path class="cls-61" d="M76,42.8l5,.5,2.3.2v.2c-.3.3-.7.2-1.1.2l-4.8-.5a.5.5,0,0,0-.6.1h-.4c-.2-.3-.7-.2-1-.4S75.8,42.8,76,42.8Z"/><path class="cls-62" d="M76.8,43.5c0-.4.3-.4.6-.3a14.3,14.3,0,0,0,2.9.3c1,.1,2,.6,3,.2s.2.4-.3.4l-4.7-.5Z"/><path class="cls-63" d="M77.5,40.4v-.3c.4-.3.9,0,1.4,0a8.5,8.5,0,0,1,2.3.4c-.1.2-.2.4-.5.3A17.5,17.5,0,0,1,77.5,40.4Z"/><path class="cls-64" d="M75.4,43a1.6,1.6,0,0,1,1,.1.2.2,0,0,1,0,.3C76.1,43.2,75.5,43.6,75.4,43Z"/><path class="cls-65" d="M84.4,43.1c0,.2-.1.3-.2.2s-.5,0-.5-.3a.3.3,0,0,1,.3-.3C84.2,42.7,84.3,42.9,84.4,43.1Z"/><path class="cls-66" d="M25.4,31.3a11.4,11.4,0,0,1-2.5-1.8c-.1-.1-.2-.2-.1-.3s.2-.8.8-.8h.9a3.1,3.1,0,0,0,.7,2.1C25.3,30.8,25.5,31,25.4,31.3Z"/><path class="cls-67" d="M24.1,39.7c-.2,0-.4.1-.4.3h-.2c-1.3,0-1.5.2-1.5,1.6v.2c-.1.2-.3.2-.5.3h-.1c-.1-.1-.2-.2-.2-.3v-.2a3.5,3.5,0,0,1,.6-2.2A1.6,1.6,0,0,1,24.1,39.7Z"/><path class="cls-68" d="M25.4,31.3c-.2-.7-.7-1.2-.9-1.8a1.4,1.4,0,0,1,0-1.1c.3-.1.6-.2.6.1A6.5,6.5,0,0,1,25.4,31.3Z"/><path class="cls-69" d="M21.6,29h1a1.9,1.9,0,0,1-.5,1c-.2.2-.4.1-.5-.1A.6.6,0,0,1,21.6,29Z"/><path class="cls-70" d="M19.7,34.8l.5-1.4c.1.1.2.2.2.3a3.1,3.1,0,0,1-.2.8C20.2,34.7,20.1,34.9,19.7,34.8Z"/><path class="cls-71" d="M83,37.9l3.1.3a1.1,1.1,0,0,1,1.1,1.4c-.8.2-1.5.4-2.2-.3h-.7a1,1,0,0,1-1.6.1.5.5,0,0,0-.6-.1c-.3.2-.6.5-1,.4s-.6-.1-.7-.5a1.6,1.6,0,0,1,1.4-1.3A2.4,2.4,0,0,1,83,37.9Z"/><path class="cls-72" d="M80.6,39.3a.6.6,0,0,0,1,.1c.2-.2.6-.2.8-.5s.1,0,.2.1,1,.7,1.5.1h.6c.1.2.2.3.4.2a1.6,1.6,0,0,0,1.5.4c.2-.1.4-.2.6,0s-.1,1.1-1.2,1.1-2.1-.4-3.2-.3a1.3,1.3,0,0,1-1-.4c-.4-.3-1-.1-1.5-.3h-.4a.2.2,0,0,1,.2-.2A.4.4,0,0,1,80.6,39.3Z"/><path class="cls-73" d="M78.2,34.7a2.7,2.7,0,0,1-.3,1.2c-.6-.1-.9-.7-1.4-1.1s-.4-.9-.6-1.4a4.4,4.4,0,0,0-.2-1,.6.6,0,0,1,0-.7,5.7,5.7,0,0,1,1.9,2.4C77.7,34.4,78,34.5,78.2,34.7Z"/><path class="cls-74" d="M80.1,39.4l-.2.2-1.5-.2c-.8,0-1-.2-.7-1s0,.4.2.5h.5a1.1,1.1,0,0,0,1.5-.3l.7-.8c.1-.5.4-.6.8-.4s.5-.3.7-.1-.3.2-.4.4A3.1,3.1,0,0,0,80.1,39.4Z"/><path class="cls-75" d="M76.1,33.4c.1.5.3,1,.4,1.4s0,.7-.5.6a1.9,1.9,0,0,0-.7-1.4c0-.5-.2-.9-.2-1.3s.1-.5.3-.5.4.2.4.4S76,33.1,76.1,33.4Z"/><path class="cls-76" d="M80.1,39.4a1.8,1.8,0,0,1,1.6-1.6c.4,0,.9-.2,1.3.1a2.8,2.8,0,0,0-2,.5,1.1,1.1,0,0,0-.4.9C80.4,39.4,80.3,39.5,80.1,39.4Z"/><path class="cls-77" d="M78.2,36.5c.1-.2.1-.4.2-.6a.9.9,0,0,1,1.1-.1c.4.2.2.6.2.9s.1.8-.5.8S78,37.3,78.2,36.5Z"/><path class="cls-78" d="M79.9,37.5v-.6c.1-1.1.1-1,1.2-1s.7.3.6.7-.3.7-.7.6S80.3,37.7,79.9,37.5Z"/><path class="cls-79" d="M78.4,39h-.5c0-1,.5-1.3,1.4-.8s.2.4.2.6-.2.3-.4.3Z"/><path class="cls-80" d="M79.9,37.5a2.1,2.1,0,0,1,1.3-.5c.3.1.4-.2.5-.4a.8.8,0,0,1-.3.9.9.9,0,0,0-.8.4C80.3,37.8,79.9,38.1,79.9,37.5Z"/><path class="cls-81" d="M67,30.3c-.3-.4-.2-.6.3-.7H68a31.1,31.1,0,0,0,4.4.8,3.2,3.2,0,0,0,1.4.3c0-.3-.3-.2-.4-.3s.5-.2.6.1a1,1,0,0,0,.9.5c.3.1.4.2.4.5a7.6,7.6,0,0,0-.1,1.5c0,.4-.3.4-.6.3l-1.4-.8-4-1.4A6.8,6.8,0,0,1,67,30.3Z"/><path class="cls-82" d="M67,30.3c2.2.6,4.3,1.4,6.4,2.2l1.2.6c.1.1.2.3.4.2a.3.3,0,0,0,.1-.5,1.1,1.1,0,0,1,.2-1.2h.4c0,.6.5,1.1.4,1.7s-.2-.9-.7-1.2,0,.9.1,1.4,0,.3-.2.4-.6-.6-1.1-.6l-1.7-.7a5.6,5.6,0,0,0-3.1-.6,24.3,24.3,0,0,0-2.7,0c-.6.3-.4.8-.5,1.2s-.1,1.5-.2,2.2a5.2,5.2,0,0,0-.2,1.1h-.2l-.8-.2a1,1,0,0,0-.4-.5c-.1-1.1,0-2.2-.2-3.3s-.1-.5.1-.7.5.3.5.6.2,1.6.2,2.4a.8.8,0,0,0,.3.8c.3-2,.3-3.8.6-5.7a.4.4,0,0,1,.4-.4c.2-.1.1.2.2.3S66.7,30.3,67,30.3Z"/><path class="cls-83" d="M65.9,30c.3.7,0,1.4,0,2.2l-.3,3.1c0,.3-.1.6-.5.6s-.3-.3-.3-.6-.1-1.9-.2-2.9,0-.4-.3-.5h-.1c-.2-.5.1-1.1,0-1.6a2.6,2.6,0,0,1-.3-2.1c.4,0,.5-.3.6-.6s.5-.8,1.1-.2a1.9,1.9,0,0,1,.6,1.6c0,.2,0,.4-.3.5S65.7,29.8,65.9,30Z"/><path class="cls-38" d="M64.3,31.9l.3,3.4a.7.7,0,0,1-.2.6c-.6.1-.9-.1-.8-.7a6.6,6.6,0,0,1,.3-2.4.2.2,0,0,0-.1-.4.9.9,0,0,1,.1-.5c.2-.2.3-.1.4,0Z"/><path class="cls-84" d="M64.3,31.9h-.4a4.7,4.7,0,0,1,.3-1.7C64.5,30.7,64.3,31.3,64.3,31.9Z"/><path class="cls-85" d="M64.5,38.9c-.3-.5-.8-.8-1-1.3v-.7c0-.3.2-.3.4-.1s.3.2.4.4.6.7.7,1.1S64.9,38.9,64.5,38.9Z"/><path class="cls-86" d="M64.2,37.2c-.1-.1-.5-.1-.3-.4s.5-.6.8-.3a.1.1,0,0,1,.1.1h0v.5C64.6,37.4,64.4,37.3,64.2,37.2Z"/><path class="cls-87" d="M64.8,36.6a.1.1,0,0,1-.1-.1.1.1,0,0,0,.1-.1c.3,0,.6-.1.8.2s-.4.1-.6.1Z"/><path class="cls-88" d="M68.1,27.9h.2a.7.7,0,0,0,.4.5c1.6.2,2.9,1.1,4.3,1.7s.1.2-.1.2L68,29.4c.1-.2.4-.2.6-.2a8.6,8.6,0,0,1,1.6.1l-1.4-.5C68.4,28.7,68,28.5,68.1,27.9Z"/><path class="cls-89" d="M13.7,37.6a1.7,1.7,0,0,0,1.5.5c.3,0,.3.1.3.4s-.1.1-.3.1a7.4,7.4,0,0,1,1.7,1.2h-.5a2,2,0,0,0-2.3,1.9c0,.2-.1.4-.3.4H12.7c-.9-.2-1-.4-1.1-1.3a.6.6,0,0,0-.1-.4h0c-.2-.4.2-.4.4-.4s1.4-.2,1-1.3.3-.7.1-1.1-.2-.9.6-.7A.5.5,0,0,1,13.7,37.6Z"/><path class="cls-90" d="M16.8,36.3a3.8,3.8,0,0,1,1.2-.9c.3.2-.3.8.4.7s.3,1.4.5,2.1a1.1,1.1,0,0,1-.5,1.4h-.2c-.4-.7-.3-1.6-.7-2.3a1.6,1.6,0,0,0-.7-.7A.2.2,0,0,1,16.8,36.3Z"/><path class="cls-45" d="M13,37.6a11,11,0,0,1,.2,1.8c-.1.9-.3,1-1.2.8s-.4-.2-.5.2a2.1,2.1,0,0,1,.4-2.5c.2.1.4.2.5,0s0-.4-.1-.6.6,0,.6.4h0C13,37.8,13,37.7,13,37.6Z"/><path class="cls-91" d="M18.2,39.6h.2c.9-.2.4-.9.4-1.4a3.9,3.9,0,0,1-.4-2.1,3.4,3.4,0,0,1,.5,1.4c.1.2.2.2.3.1s.4,1.4.6,2.1-1.2.4-1.9.4-.2-.2-.2-.3S18,39.5,18.2,39.6Z"/><path class="cls-92" d="M16.8,36.3v.3c-.3.5-.1,1.1-.2,1.7s-.8-.5-.9-1v-.2C16,36.6,16.4,36.5,16.8,36.3Z"/><path class="cls-93" d="M14.3,37.5c.2.1.5,0,.7,0h.3c0,.4-.3.4-.6.4l-1-.3c0-.2-.1-.4-.1-.7s-.3-.8,0-1.3h0c.3.2.3.7.4,1S14,37.3,14.3,37.5Z"/><path class="cls-94" d="M19.8,39.7c-.5-.6-.3-1.4-.6-2.1h.1c.3,0,.3.2.3.4s-.1,1,.5,1.3S19.9,39.6,19.8,39.7Z"/><path class="cls-95" d="M12.3,37.3c.3,0,.5.1.5.5s-.4.3-.7.4-.2-.2-.2-.3S12.1,37.5,12.3,37.3Z"/><path class="cls-91" d="M18.6,41.8c-.1.2-.3.5-.5.5a2.5,2.5,0,0,0-.8-1.8l.6-.3A4.6,4.6,0,0,0,18.6,41.8Z"/><path class="cls-96" d="M16.9,39.8c-.8-.1-1.1-.9-1.9-1.2a.5.5,0,0,1,.5-.1c.7.1,1.4.2,1.6,1S17.2,39.8,16.9,39.8Z"/><path class="cls-97" d="M21.1,42c-.5,0-.5-.4-.5-.7s.1.6.5.5Z"/><path class="cls-26" d="M66.5,31.9a29.4,29.4,0,0,1,4.2,0,6.8,6.8,0,0,1,3.5,1.5c0,.2-.2.3-.4.3l-7.3,1.7h-.2a.7.7,0,0,1-.3-.7l.3-2.5C66.3,32.1,66.4,32,66.5,31.9Z"/><path class="cls-98" d="M66.5,31.9a8.2,8.2,0,0,0-.2,3.5H66c-.3-.8.1-1.7.1-2.5a2.2,2.2,0,0,1,.1-.8C66.2,32,66.3,31.8,66.5,31.9Z"/><path class="cls-99" d="M15.4,43.2c-.1-.3-.5-.6-.4-1a1.2,1.2,0,0,1,.8-1.3,1,1,0,0,1,1.3.4,1.2,1.2,0,0,1,.1,1.5.5.5,0,0,1-.2.4C16.4,43.5,15.9,43.7,15.4,43.2Z"/><path class="cls-100" d="M21.9,41.9a2.1,2.1,0,0,1-.1-1.1c.3-.8.9-1.1,1.9-.8a1.9,1.9,0,0,1,.4,1.6,1.4,1.4,0,0,1-.8.9C22.7,42.7,22.3,42.3,21.9,41.9Z"/><path class="cls-101" d="M18,42.5a.4.4,0,0,0,.6.3l2.3-.3c.3,0,.4-.1.4-.3h.1a3.5,3.5,0,0,0,.6.9l-3.1.4c-.4,0-.9.3-1.4,0S17.9,42.9,18,42.5Z"/><path class="cls-102" d="M64.2,37.2a.5.5,0,0,0,.5-.1c.2,0,.2.1.2.3s.1.5.5.5.3,0,.3.2-.3.1-.4.2H65A2.3,2.3,0,0,1,64.2,37.2Z"/><path class="cls-53" d="M66.2,39.6a1.4,1.4,0,0,1-.3-1.2c.1-.1.2-.2.3-.1a.3.3,0,0,1,.1.2c-.2.3-.1.7-.1,1.1Z"/><path class="cls-103" d="M68.7,29.3H67.5c-.7,0-1.2-.1-1.1-1s-.4-.9-.5-1.4l.6.3c.3.2.3.6.4.9a.9.9,0,0,0,.8.8C68.1,29,68.5,28.8,68.7,29.3Z"/><path class="cls-104" d="M68.7,29.3a2.2,2.2,0,0,0-1.1-.2c-.6,0-.8-.3-.9-.8a4.3,4.3,0,0,1-.2-1.1l1.6.7a1,1,0,0,0,.9.8,4.4,4.4,0,0,1,1.5.5c.1.1.2.1.2.3s-.2.1-.3.1A10.1,10.1,0,0,0,68.7,29.3Z"/><path class="cls-105" d="M79.6,41.6a.2.2,0,0,1,0-.4c.2-.1.3.1.2.2A.2.2,0,0,1,79.6,41.6Z"/><path class="cls-106" d="M85.1,39.2c0,.1,0,.4-.2.3s-.2-.3-.2-.5A.4.4,0,0,1,85.1,39.2Z"/><path class="cls-17" d="M70.1,31.8H66.6c-.5-.1-.3-.6-.3-.9s.2-.5.6-.4l3.2,1Z"/><path class="cls-107" d="M64.1,33.1a9,9,0,0,1,.2,2.3c0,.1.1.3-.2.4s-.3-.2-.3-.4A4.6,4.6,0,0,1,64.1,33.1Z"/><path class="cls-108" d="M18.8,38.2a3.8,3.8,0,0,1,.3,1c.1.4-.3.6-.7.4A1.8,1.8,0,0,0,18.8,38.2Z"/><path class="cls-109" d="M13,39.5c0,.4-.1.5-.4.5s-.7,0-.7-.5a.6.6,0,0,1,.7-.7C13.1,38.8,12.8,39.3,13,39.5Z"/><path class="cls-110" d="M16.8,42.1c-.1.4-.2.6-.6.6a.5.5,0,0,1-.5-.5c0-.4.1-.6.5-.6S16.7,41.8,16.8,42.1Z"/><path class="cls-111" d="M23.5,41.2a.5.5,0,0,1-.6.6c-.3,0-.5-.3-.5-.7s.2-.5.6-.5S23.5,40.9,23.5,41.2Z"/></g></g></svg>