<svg xmlns="http://www.w3.org/2000/svg" viewBox="0 0 518.9 331.3"><defs><style>.cls-1{fill:#a7aeae;}.cls-2{fill:#24365c;}.cls-3{fill:#24365d;}.cls-4{fill:#24375d;}.cls-5{fill:#23375e;}.cls-6{fill:#23375f;}.cls-7{fill:#24375e;}.cls-8{fill:#243861;}.cls-9{fill:#24375f;}.cls-10{fill:#25375f;}.cls-11{fill:#27395f;}.cls-12{fill:#515b63;}.cls-13{fill:#505a65;}.cls-14{fill:#414c61;}.cls-15{fill:#565e65;}.cls-16{fill:#27354a;}.cls-17{fill:#253545;}.cls-18{fill:#f5f7e4;}.cls-19{fill:#424f64;}.cls-20{fill:#8a9397;}.cls-21{fill:#23355b;}.cls-22{fill:#23375d;}.cls-23{fill:#23365e;}.cls-24{fill:#23365d;}.cls-25{fill:#23365c;}.cls-26{fill:#233659;}.cls-27{fill:#677674;}.cls-28{fill:#ddb432;}.cls-29{fill:#daad3b;}.cls-30{fill:#6b7f7a;}.cls-31{fill:#28395a;}.cls-32{fill:#e4bd2f;}.cls-33{fill:#caa53e;}.cls-34{fill:#707a6d;}.cls-35{fill:#c6aa5d;}.cls-36{fill:#37423c;}.cls-37{fill:#bd9026;}.cls-38{fill:#91804d;}.cls-39{fill:#dbb742;}.cls-40{fill:#e4a81e;}.cls-41{fill:#727c6e;}.cls-42{fill:#d6a32b;}.cls-43{fill:#a68a4d;}.cls-44{fill:#86816b;}.cls-45{fill:#7e7c65;}.cls-46{fill:#8d895d;}.cls-47{fill:#1d2940;}.cls-48{fill:#1e2b3d;}.cls-49{fill:#697973;}.cls-50{fill:#778880;}.cls-51{fill:#393830;}.cls-52{fill:#f6faf6;}.cls-53{fill:#f7fbf6;}.cls-54{fill:#f6f9f7;}.cls-55{fill:#333423;}.cls-56{fill:#d1a13d;}.cls-57{fill:#758690;}.cls-58{fill:#798a85;}.cls-59{fill:#212d29;}.cls-60{fill:#8ea099;}.cls-61{fill:#596862;}.cls-62{fill:#2f3f3b;}.cls-63{fill:#312a12;}.cls-64{fill:#304039;}.cls-65{fill:#97a8a2;}.cls-66{fill:#efae0a;}.cls-67{fill:#38341d;}.cls-68{fill:#f7d710;}.cls-69{fill:#e5d497;}.cls-70{fill:#f1bb0f;}.cls-71{fill:#e4960e;}.cls-72{fill:#f0a60d;}.cls-73{fill:#7b7339;}.cls-74{fill:#a48d47;}.cls-75{fill:#d8b232;}.cls-76{fill:#aed3d4;}.cls-77{fill:#afd9d8;}.cls-78{fill:#86aaa2;}.cls-79{fill:#8aacaa;}.cls-80{fill:#f2af0b;}.cls-81{fill:#cb9a2e;}.cls-82{fill:#f6b40a;}.cls-83{fill:#edcc67;}.cls-84{fill:#d7ab35;}.cls-85{fill:#e5e1b7;}.cls-86{fill:#8c773c;}.cls-87{fill:#504629;}.cls-88{fill:#f2a809;}.cls-89{fill:#717b6d;}.cls-90{fill:#b79849;}.cls-91{fill:#8e8a74;}.cls-92{fill:#9f7d29;}.cls-93{fill:#796532;}.cls-94{fill:#432603;}.cls-95{fill:#f7d20f;}.cls-96{fill:#dfd0a0;}.cls-97{fill:#4c3e33;}.cls-98{fill:#71827f;}.cls-99{fill:#75837e;}.cls-100{fill:#a8aeac;}.cls-101{fill:#484b31;}.cls-102{fill:#434130;}.cls-103{fill:#263455;}.cls-104{fill:#6a736e;}.cls-105{fill:#a77402;}.cls-106{fill:#edeee2;}.cls-107{fill:#293344;}.cls-108{fill:#79775a;}.cls-109{fill:#7c6932;}.cls-110{fill:#34250b;}.cls-111{fill:#1e271f;}.cls-112{fill:#25312a;}</style></defs><title>logo-empresa</title><g id="Capa_2" data-name="Capa 2"><g id="Capa_1-2" data-name="Capa 1"><path class="cls-1" d="M455.1,233.5c1.6,3.3,4.9,2.3,7.5,3a21.9,21.9,0,0,0,6,2.3c1.2,1.1,2.6,2.1,2.9,3.9a1.8,1.8,0,0,1-1,.4h-1.1a42.7,42.7,0,0,0-7-1.2c-3.4-.7-6.9-.8-10.1-2.3C450.9,236.7,451.8,235,455.1,233.5Z"/><path class="cls-2" d="M470.1,242.6h1.4c10.4,1.8,20.6,4.3,30.8,7,5.6,1.5,11.1,3.2,16.6,5.2-7.3,1.2-14.5.2-21.7-.4h.1c-8.2-2-16.7-2.6-25.1-3.6-40.2-4.7-80.5-7.9-120.9-9.9-54.8-2.8-109.6-2.8-164.5-.5S78.8,246.6,25,251.6c-8.3.8-16.6,1.6-25,2,23.3-7.3,47.2-11.8,71.1-16.4a2.4,2.4,0,0,1,2.3-.1c-1.6,3.3-4.8,1.8-7.2,2.7,2.9-.8,5.7.3,8.5.7,8,1.2,16.1.6,24.1-.4,5.8-.8,11.5-1.9,17.4-2.5s13-3.3,19.5-5c1.2-.3,2.5-1.2,2.6-2.4s-1.5-1.4-2.4-1.8c-2.6-1.2-4.2-2.9-3.7-6.1s-1.2-6.3-3.3-8.8c-.2-1.7,2-2.6,1.6-4.4.1-7.2.3-14.5.1-21.7-.1-3.6,1-4,4.3-3.5l148.9,24.7,11.8,1.9c4.6.7,8.8-1.4,13.1-2.5,9.6-2.3,19.1-4.9,28.6-7.4l.5.2c1.5.9,1.8,2.6,2.6,3.9s3.6,4.6,6.9,4.8a29.2,29.2,0,0,1,4.1,3.7c3.5,3.2,6.7,3.1,10-.3a10.6,10.6,0,0,0,3.1-5.4,7.3,7.3,0,0,1,2-3.9l1-1.1c1.7-1.7,1.5-2.6-1-2.9s-7.2-.1-10.7-1c-1.1-.3-2.6,0-2.9-1.2s1.3-1.6,2.1-2.2c9.1-3.1,18.6-4.9,27.8-7.5,2.8-.8,5.5-1.6,8.3-2.2s2.9-.8,4.4-.1,1.7,2.7,1.7,4.3c0,10.2.1,20.4-.1,30.6A49.2,49.2,0,0,1,396,228c-1,1.7-2.8,1.9-4.5,2.2s-3,0-4.5.2-3.8-.2-4,1.8,2,2.5,3.6,2.8c10.7,2.1,21.2,5.3,32.3,6.2,14.3,1.3,28.6,2,42.9,1.9C464.9,242.9,467.5,243.1,470.1,242.6Z"/><path class="cls-3" d="M420.8,290.5c8.9,2.5,11.1,5.6,10.2,13.9-.7,6.1-1.5,12.1-2.2,18.2-.2,1.4-.9,3.3,1,3.9s2.1-1.4,2.6-2.6.5-1.6,1.5-1.1.4,1.3.2,2c-1.1,4.1-5.3,6.7-10.3,6.3s-7.2-3.8-7.5-8.5,1-11.2,1.5-16.8c.2-2.6.8-5.2.9-7.8s.1-4.6-2.4-5.8-5.9-.7-6.4,3.5c-1.2,9.7-2.4,19.3-3.7,29-.3,2.1-.6,3.8,2.5,3.4a1.1,1.1,0,0,1,1.3,1.1c0,.8-.7,1-1.3,1H390c-.7,0-1.3-.2-1.2-1a1.1,1.1,0,0,1,1.3-1c2.7.4,3.3-1.1,3.6-3.4,2.5-20.8,5.2-41.6,7.8-62.4.3-2.2.7-4.1-2.5-3.8a.9.9,0,0,1-1-1.2,1,1,0,0,1,1.1-.8H420c15.9-.3,18.7,13.7,13.8,23.8C431.1,285.4,426.8,288.4,420.8,290.5Z"/><path class="cls-4" d="M67.1,329.4c-8.9,1.8-17.9.5-26.8.9-.8,0-2,.2-1.9-1.1s.9-1.1,1.7-1,2-.5,2.2-1.9c1.6-13.8,3.3-27.7,5-41.5,1.6-7.9,2.2-16,3.3-24,.3-1.9-.6-2.2-2-2.1s-1.7,0-1.7-.9.8-1.2,1.6-1.1c8,.2,16-.8,23.9.6,10.9,1.9,15.4,15.2,8.9,25.4-2.9,4.6-7.1,7.6-11.9,9.8.1.3,0,.7.1.8,11.3,4.6,14.7,15,8.4,26.2A24.7,24.7,0,0,1,67.1,329.4Z"/><path class="cls-5" d="M389.5,257.1c-.7,6.1-1.5,12.3-2.3,18.4-.1.7-.5,1.2-1.3,1.1s-.9-1-.9-1.7a25.9,25.9,0,0,0-3.3-12.5c-3.5-5.9-10.4-6-13.8,0s-2.2,11.3,1.2,16.6,7.4,8.1,11.2,12c9.6,10,9.4,26.9-.4,35.7a17,17,0,0,1-21.3,1.4c-2.5-1.7-4.8-2.5-6.2,1.2-.2.6-.7,1.1-1.4.7s-.6-1-.6-1.6c.7-6.3,1.5-12.6,2.3-18.9.1-.9.3-2,1.4-1.8s1,1.3.9,2.2a30,30,0,0,0,1.1,7.8,19.5,19.5,0,0,0,2.7,6.5c2.7,3.8,6.3,5.7,10.9,4.9s7.1-4.8,7.8-9.2-1-10.5-4.7-14.8-10.3-9.9-13.8-16.2c-5.2-9.4-2.9-22.6,5.5-29.2,5.3-4.1,11.1-5.1,17.1-1.6,2.7,1.5,5,2.4,6.8-1.5A1.9,1.9,0,0,1,389.5,257.1Z"/><path class="cls-4" d="M145.5,330.3H132c-.9,0-2.3.4-2.4-1s1.1-1.2,2-1.1,2.5-.9,2.7-2.7c1.6-13,3.3-26,4.9-39,1-8.2,2-16.3,3.1-24.5.2-1.9.5-3.6-2.3-3.4-.6,0-1.3-.1-1.3-.9s.6-1.1,1.3-1.1h18.7c.7,0,1.3.2,1.3,1a1.1,1.1,0,0,1-1.2,1.1c-3.5-.5-3.3,1.9-3.6,4.2l-7.8,61.3c-.5,4.2.8,5.2,4.7,3.5s6.9-6,8.6-10.4c.8-2,1.2-4.1,1.8-6.1s.4-1.3,1.2-1.1.8.9.8,1.5c-.8,5.7-1.7,11.4-2.4,17-.2,1.8-1.3,1.8-2.7,1.8-4.7-.2-9.3-.1-13.9-.1Z"/><path class="cls-6" d="M262.5,330.3H248.6c-.9,0-2.3.4-2.3-1.1s1.2-1.2,2-1.1,2.5-1.1,2.7-3q3.9-31.7,8-63.1c.3-2.1.5-3.9-2.5-3.5a.9.9,0,0,1-1.1-1.1c.1-.8.7-.9,1.4-.9h18.4c.6,0,1.3.1,1.4.9s-.9,1.2-1.5,1.1c-2.5-.3-2.8,1.2-3,3.2-2.6,21.1-5.3,42.1-8.1,63.2-.4,3.3,1.1,3.6,3.5,3.2s5.9-3.6,7.8-6.5a30.3,30.3,0,0,0,3.9-10.1c.2-.7.3-1.6,1.4-1.3s.7,1,.6,1.6c-.8,5.7-1.6,11.4-2.3,17.1-.2,1.8-1.6,1.6-2.8,1.6-4.6-.2-9.1-.2-13.6-.2Z"/><path class="cls-7" d="M452.1,330.3H438.6c-.9,0-2.3.3-2.3-1.1s1.3-1,2.1-.9,2.2-.8,2.4-2.4l8.1-63.8c.2-1.8.5-3.6-2.4-3.4-.6.1-1.3-.2-1.1-1.1s.9-.9,1.4-.9h18.4c.6,0,1.3,0,1.4.8a1,1,0,0,1-1.2,1.1c-3.4-.5-3.4,1.9-3.7,4.2q-3.9,31.2-7.9,62.4c-.4,3,.8,3.6,3.3,3,5.7-1.3,8-6,10.1-10.7a42.7,42.7,0,0,0,1.8-6.1c.2-.6.4-1.3,1.2-1.2s.9,1,.8,1.7c-.8,5.4-1.6,10.9-2.2,16.3-.2,1.8-1.1,2.2-2.7,2.2-4.8-.2-9.4-.1-14-.1Z"/><path class="cls-8" d="M181.2,330.3c-6.1-2.1-8.4-7.5-9.5-12.9-3.9-18.9-.8-36.7,9.6-53.1a19.3,19.3,0,0,1,7.2-7c3.1-1.6,6.5-2.6,9.3.3s2.8,2.2,4.4.1c.4-.6,1-1.2,1.9-.8s.6,1.3.5,2c-.6,4.7-1.1,9.4-1.7,14.1-.1.9-.2,1.9-1.3,2s-1-1.2-1.1-1.9a38.4,38.4,0,0,0-2.2-11c-.8-2-1.8-4-4.4-4s-3.3,2-3.9,4a43.1,43.1,0,0,0-1.5,6.2q-3.6,28.2-7,56.5c-.1,4.1,2.9,4.5,6,5C185.4,331,183.3,330.7,181.2,330.3Z"/><path class="cls-9" d="M116.8,267.3c1,11.9,2.1,23.8,3.1,35.7.7,7.3,1.4,14.6,2,22,.2,1.9.2,3.6,2.8,3.2.7-.1,1.7,0,1.7,1s-1.1,1.2-1.9,1.2H107.7c-.9,0-2,.1-2-1.1s.9-1.2,1.6-1.1,2.3-.9,2.1-2.5c-.4-4.5-.8-8.9-1.1-13.4-.1-1.3-.4-2.5-2.1-2.5H96.8c-1.9,0-2.2,1.7-3.2,2.7s-.6-.6-.8-1c.1-2.2,1.2-4.1,2.2-6,.5-.4.2-1.6,1.1-1.6s.9.9,1,1.6.1.7.1,1a9.4,9.4,0,0,0,9.2-.1c-.2-7.1-1.1-14.1-2-21.1a2,2,0,0,0-1.1-1.4c-.8-.8-.5-1.7-.3-2.6,2.6-7.9,5.3-15.7,7.8-23.6.5-1.6,1.3-2.2,2.9-2.1s1.8,1.6,1.9,2.9-.1,4,.8,5.8A1.8,1.8,0,0,1,116.8,267.3Z"/><path class="cls-4" d="M304.2,276.1c2-6.2,4-12.3,5.9-18.5a2.5,2.5,0,0,1,3.1-2c1.9.2,1.6,1.6,1.7,2.8,2,22.1,4.1,44.2,6,66.3.2,1.9,0,3.9,3,3.5.8-.1,1.6.1,1.6,1.1s-.8,1.1-1.6,1.1H306.3c-.6,0-1.3,0-1.5-.8s.5-1.4,1.3-1.3c3,.3,2.4-1.7,2.2-3.4-.4-4.8-.9-9.7-1.3-14.5-3.6-1.2-7.3-.2-11-.6-1-.1-2.7.5-2.6-1.1s1.6-1.2,2.7-1.1h7.5a2.2,2.2,0,0,0,2.5-2.5,58.4,58.4,0,0,0-1.4-12.5c-1.1-2.7-.9-5.4-.9-8.2S302.7,278.7,304.2,276.1Z"/><path class="cls-10" d="M224,270.1c1.3-4.1,2.7-8.3,3.9-12.4a2.5,2.5,0,0,1,3-2c1.8.2,1.6,1.6,1.7,2.8,1.4,14.6,2.7,29.3,4.1,43.9l2.1,22.3c.2,1.9.1,3.9,3,3.5.8-.1,1.6.3,1.5,1.2s-1,.9-1.8.9H224.3c-.7,0-1.7.1-1.8-.8s.9-1.4,1.7-1.3c2.5.3,2.2-1.3,2.1-2.8l-1.5-15.2a33.4,33.4,0,0,0-12.6.1h0c-1.9-.2-1.1-1.5-1-2.5h0c2.8-.8,5.6.1,8.5-.2,1.3-.1,2.8.4,3.7-1.1a2.3,2.3,0,0,0,.3-1.1,70.2,70.2,0,0,0-1.9-21.5C220.6,278.4,223.2,274.6,224,270.1Z"/><path class="cls-11" d="M489,322.8c0,4.9-2.9,8.2-7.2,8.3s-7.7-3.4-7.7-8.2,3.1-8.3,7.2-8.3S489,317.9,489,322.8Z"/><path class="cls-12" d="M305.8,292c1.7,4.8,1.3,9.9,1.8,14.9.1,1.6-1.3,1.5-2.4,1.5-3.6,0-7.2,0-10.9.2,3.1.9,6.2.3,9.4.6,1.3.1,2.8-.7,3.6,1-3.5-.7-7.1-.1-10.7-.3-1.8-.1-2.2,1.1-2.7,2.5-1.4,3.4-1.8,7.1-3.8,10.3-.3-.8-1.3-.1-1.7-.7,5-14.7,9.9-29.5,14.9-44.2a12.9,12.9,0,0,1,.9-1.6c-1.3,2.7,1.1,5.1.8,7.7-3.2,6.5-4.8,13.6-7.2,20.4-.5,1.5.2,2.2,1.8,2.5,5.1.8,6.4-.4,5.7-5.6C304.9,298.1,304,295,305.8,292Z"/><path class="cls-13" d="M224.7,306.9c.1,1.4-.7,1.7-1.8,1.6-3.9-.1-7.9.6-11.7-.8,3.7-12.7,8-25.2,12.8-37.6,0,.1.1.3,0,.4-4.1,8.4.2,16.8.4,25.2.1,3.6.5,7.1.3,10.7-1.3-.2-1.4-1.3-1.5-2.3-.3-6.1-1.2-12.1-1.7-18.2-1.8,5.8-3.7,11.5-5.7,17.2-1,2.7-.1,3.6,2.6,3.5S222.6,306.4,224.7,306.9Z"/><path class="cls-14" d="M92.9,311.5l.8,1c.3,3.3-1.6,6.1-2.3,9.2s-1,5,3.1,6.5c.6.2,1.2.5,1.2,1.2s-.7,1-1.3,1H83.5c-.8,0-1.5-.2-1.5-1.2s.7-1,1.4-1c3.4.2,4.3-2.3,5.3-4.8S90.9,315.2,92.9,311.5Z"/><path class="cls-15" d="M96.5,306.2c-.1-.5-.3-1-.4-1.5l-1.1.9a245.3,245.3,0,0,1,8.1-24.2c.3.8-.1,1.9.9,2.5s.6,2.4.2,3.5c-2.1,5.7-3.9,11.4-5.9,17.1C98.1,305.2,98,306.5,96.5,306.2Z"/><path class="cls-16" d="M288.4,321.9c.8-.4,1.9-1.3,1.7.7s-1.4,5.4,2.9,5.5c.8,0,1.7.1,1.7,1s-1.1,1.1-1.9,1.1h-9.7c-.8,0-1.6,0-1.8-.9a1.1,1.1,0,0,1,1.1-1.2C286.4,328,287.3,324.9,288.4,321.9Z"/><path class="cls-13" d="M211.2,307.6c.2.9,0,1.9,1,2.5l-3.4,10.6c-1.9,5.7-1.8,5.9,3.4,8-4,1.3-5.9.1-6.1-3.9a8.2,8.2,0,0,0-.2-2.2C207.6,317.6,208.7,312.4,211.2,307.6Z"/><path class="cls-17" d="M205.9,322.6c.3.5.9,1,.9,1.5-.3,4,1.9,5,5.4,4.6.6.9,0,1.5-.8,1.5-3.7.1-7.4,0-11.1,0-.7,0-1.3-.2-1.3-1a1.1,1.1,0,0,1,1.2-1.1C204.1,328.4,204.7,325.2,205.9,322.6Z"/><path class="cls-8" d="M195.5,317.2a12.5,12.5,0,0,1,1.4-5c1.8-.2,1.3,1.2,1.3,2-.2,4.7-1.1,9.3-1.7,13.9-.4,2.9-2.1,1.2-3.3,0l-.7-.6c-1-1.1-.4-2.2-.1-3.3h0A19.5,19.5,0,0,0,195.5,317.2Z"/><path class="cls-18" d="M77.6,232c-.6.2-1.2.6-1.7.5A48.8,48.8,0,0,1,65,226.9l.2-.3c4.1-1.5,7.6.8,11.3,1.8a3.3,3.3,0,0,1,1.7,2.8A.9.9,0,0,1,77.6,232Z"/><path class="cls-19" d="M192.4,324.1c0,1.1,0,2.2.1,3.3-2.8,1.9-5.3,4.7-9.3,3.7-.7-.2-1.5-.2-2-.8h5.3c-3.2-.7-5.9-1.4-5.1-5.6,1.9,5.1,5,5.7,8.8,1.8Z"/><path class="cls-19" d="M193.2,328c1.9,1.3,3.1,1.5,3.1-1.5s.8-7.1,1.3-10.7c.2-1.3.6-2.8-.8-3.8.2-1,.2-2.4,1.3-2.3s.9,1.5.7,2.4c-.7,5.2-1.3,10.3-2,15.5-.1.9.1,2.2-1.2,2.4S193.6,329.4,193.2,328Z"/><path class="cls-20" d="M73.3,237.3H71.1c1.3-1.3,3.2-1.1,4.6-2s2.9-1.2,1.9-3.2H78c1.8-.8,2.6.5,3.5,1.6a2,2,0,0,1-1.2,3.2C78,237.5,75.7,238.3,73.3,237.3Z"/><path class="cls-13" d="M212.1,310.1a18.2,18.2,0,0,1,12.6-.1A88.4,88.4,0,0,0,212.1,310.1Z"/><path class="cls-19" d="M195.5,317.2c.4,3-.9,5.1-3,7C193.4,321.8,194.4,319.5,195.5,317.2Z"/><path class="cls-2" d="M301.3,203.7c-3.3,1-3.7,0-3.7-2.9q.1-49.5.1-98.9V3.7c0-1.2-.7-2.8.6-3.5s2.2.8,3.2,1.5l29.6,19.7c2.4,1.6,3.5,3.3,3.4,6.3q-.2,81.4,0,163c0,2.9-.8,4-3.7,4.7"/><path class="cls-21" d="M130.9,148.9c0-32.4.1-64.7.1-97.1,0-1.6.2-3.2.2-4.9l26.5-13c3.7-1.8,3.8-1.8,3.8,2.4q0,71.4.1,142.8c0,3.5-.9,4.2-4.3,3.5-7.7-1.5-15.5-2.7-23.3-3.8-2.5-.4-3.5-1.3-3.3-3.8s.1-4.7.1-7.1,2.4-.1,3.5.3,2.3.4,2.1-1.5c-.6-4.2-1.1-8.3-1.4-12.5-.2-2-.2-4.4-3.5-3.7C130.9,150.7,130.6,149.7,130.9,148.9Z"/><path class="cls-22" d="M293.2,10.3c0,8.8,0,8.9-8.1,11.8L180.5,58.8,171.3,62c-2.3.9-2.8.1-2.8-2.1-.5-12.2-.5-12.2,10.9-16.4L288.7,2.3c4.5-1.7,4.5-1.7,4.5,3.2Z"/><path class="cls-23" d="M292.5,74.1c0,9.9,0,10-9.5,11.5l-97.5,15.8c-4.7.8-9.4,1.5-14,2.4-2.4.5-3-.4-3-2.7-.2-10.2-.3-10.1,9.9-12.3L286.6,65.2c5.9-1.3,5.9-1.4,5.9,4.8Z"/><path class="cls-21" d="M230.4,145.5c-19.2,0-38.5-.1-57.7.1-3.1,0-4.4-.5-4.3-4.1.3-9.5.1-9.5,9.6-9.9,36.9-1.8,73.9-3.5,110.8-5.4,3-.2,4,.6,3.8,3.6a85.5,85.5,0,0,0,0,12.4c.3,3.4-.8,4.2-4.1,4.1-19.4-.2-38.7-.1-58.1-.1Z"/><path class="cls-24" d="M180.1,124.4l-9,.7c-2,.2-2.8-.6-2.7-2.5v-.7c-.2-10-.2-9.9,9.7-11.1L281,97.6c2.7-.3,5.5-.6,8.2-1.1s3.5-.1,3.4,2.7c-.2,4.7-.2,9.5,0,14.2.1,2.3-.8,3-3,3.2L195,123.4c-4.9.2-9.9.6-14.9,1Z"/><path class="cls-23" d="M292.6,42.1c0,10,0,10-9.6,12.5L173.3,83.3c-4.7,1.2-4.7,1.2-4.7-3.5,0-8.6,0-8.7,8.1-11.2L277.8,36.7c3.8-1.2,7.6-2.3,11.4-3.7s3.8-.1,3.5,2.8A44.2,44.2,0,0,0,292.6,42.1Z"/><path class="cls-25" d="M230.3,156.3l59.1,1.9c2.4.1,3.3.8,3.2,3.2q-.3,6.8,0,13.5c.1,2.7-.8,3.4-3.4,3.2l-39.9-3.4L184,169c-4.3-.4-8.7-.9-13-1.1-2-.1-2.5-1.1-2.5-2.9a56.1,56.1,0,0,0,0-7.1c-.3-3,.8-3.8,3.8-3.7,18.6.7,37.2,1.2,55.8,1.8a7.8,7.8,0,0,0,2.2.3Z"/><path class="cls-2" d="M338.2,46.8,352,58.9c14.3,12.6,28.6,25.3,43.1,37.7,2.5,2.2,2.5,4.6,2.4,7.3-.1,8.2-.1,8.2-7.7,5.4-16.4-5.9-32.8-12-49.3-17.8-2.4-.9-3.2-2-3.2-4.5.1-12.6.1-25.2.1-37.8C337.4,48.5,337.1,47.7,338.2,46.8Z"/><path class="cls-23" d="M292.6,195.4c0,8.2,0,8.2-8.3,6.9L172.5,185c-1.4-.2-3.5.3-3.8-1.6s-.7-5.7.2-8.5c.3-.9,1.5-.5,2.4-.4l55.1,5.8c20.5,2.2,41,4.4,61.5,6.3,4.1.4,5.1,1.8,4.6,5.5C292.4,193.2,292.6,194.3,292.6,195.4Z"/><path class="cls-2" d="M337.4,112.3c0-2.9.2-5.8,0-8.6s.6-3.7,3.5-2.6c14,4.9,28.1,9.6,42.1,14.3l12.1,4a2.8,2.8,0,0,1,2.3,3.2c-.2,4.1-.2,8.2-.1,12.3,0,2-.6,2.5-2.7,2-18.2-4.1-36.5-8-54.8-11.9-1.9-.4-2.4-1.3-2.4-3s0-6.4,0-9.7Z"/><path class="cls-26" d="M338.8,160c-1.7-.4-1.4-1.8-1.4-3,0-6.4.1-12.7-.1-19.1-.1-2.6.9-2.9,3.1-2.5l54.5,9c.9.1,1.8.2,2.1,1.3a110.3,110.3,0,0,0-.1,11.5c.1,2.3-.9,2.9-2.9,2.4-8.2-3.2-16.5-6.3-24.3-10.5a8.9,8.9,0,0,0-3.2-.8c-5.4-1.1-10.2-3.9-15.4-5.5-3.4-2.3-5,.4-6.7,2.5-2.4,3.7-4.8,7.4-4,12.2A2.2,2.2,0,0,1,338.8,160Z"/><path class="cls-27" d="M395.8,228.3c1.3-12.9.5-25.8.7-38.7,0-1.4.5-3.1-1.3-4,1.2-2,2-.8,2.7.4s.6,2.9.6,4.4v24c0,3.7.3,3.9,3.9,3.2a93.5,93.5,0,0,1,11.8-1.9,117.8,117.8,0,0,1,13.3,1.6c2.3.3,4.4.3,6.4-1.1s1.2.1,1,1,.3,1.7,1.5,1.9c4.5.7,8.6,2.5,12.7,4.3,5.7,2.6,6.4,3.9,6,10.1a9.8,9.8,0,0,0-3,5.2,2.7,2.7,0,0,1-2.4.7c-15.8-2.5-31.7-3.2-47.5-5.5a9.3,9.3,0,0,1-5.1-2.1C396.1,230.8,394.9,229.9,395.8,228.3Z"/><path class="cls-28" d="M130.9,148.9c.3.5.6,1.4,1.3.9,3.1-2.3,3.4-.4,3.7,2.1.6,5.3,1.1,10.6,1.8,15.9.3,2.5-.5,2.9-2.6,1.7s-2.5-1.7-4.1-1.7c-2.5-2.3-6-3.6-8-7.4-2.1,4-5.9,6.6-5.4,11.5a3.2,3.2,0,0,1-.9,2.4c-3.6,3.4-3.6,8.1-4.9,12.3-.4,1.5-.6,3,1.5,3.6a1.7,1.7,0,0,1,1.1,1.8c.6,7.7,5.7,12.1,11.8,15.5,1.2.7,2.3,2.6,4.2,1.5.4,1.5,1.7,3.4-1.5,3.3h-.5c-4.2-2.6-8.3-1.9-12.4,0-.8,0-1.4-.2-1.6-1.1s2.4-2.5,4-3,2.3-1.4.8-2.6c-4.1-3.2-5.5-8.2-8.8-12a2.7,2.7,0,0,1-.8-1.6c.4-5.5.2-11.1,3.1-16s4.4-10.1.7-15.4c-.3-.5-.1-1.3-1-1.5-1,2.7.4,4.9,1.5,7.1s.8,4.1-1.8,5.3-3.9,1.9-1.8,5.9a2.2,2.2,0,0,1-.4,3c-1,.3-1.6-.4-2.3-.9a8.4,8.4,0,0,1-2-2.9c.3-3,.7-6,3-8.3a2.8,2.8,0,0,0,1.5-3.9,36.4,36.4,0,0,1-.1-6.6c.3-2.4,1.1-4.9,4.5-4.7a3.2,3.2,0,0,1,1.1,1.7c.2,1.3-.7,3.5,1.1,3.7s2.3-2.1,3-3.6a9,9,0,0,1,1.7-3C124.1,149.6,127.8,150.1,130.9,148.9Z"/><path class="cls-29" d="M434.9,217.1l-.6-.7c-5.1.7-10-.7-15-.9a32.4,32.4,0,0,0-4.4-.2,7.8,7.8,0,0,1-3.7-.5c-2.1-.8-3.1-2.3-2-4.4s.7-4.3.2-6.5c-1.1-4.7-3.3-9.1-3.7-14,1.2-1.4,2.7-2.4,3.7-4,3.1,1.3,4.9,4.4,7.7,6.2a2.6,2.6,0,0,1-.7,3c-2.4.6-2.9-1.8-4.5-2.8a42.1,42.1,0,0,0,3.7,12.2,1.9,1.9,0,0,1,.3,1c-.6,3,.5,4.5,3.7,4.3s5.4.7,8.1,1.1c4.3,1.3,8.9,2.1,13.2,3.2a69.9,69.9,0,0,0,21.5,2.2c3-.2,2.9-2.6,2.9-4.7-.2-4.6-1-5.5-5.4-6.5s-10.6-.7-15.8-1.8c-2-.8-4.3-.2-6.3-.9s.4-2,1-2.8a.9.9,0,0,1,1,0c2.1,1.9,4.6,1.1,7,1.2a51.6,51.6,0,0,1,17.5,1.7c3.7,2.4,5.1,12.3,2,15.5-1.4,1.4-3.2,1.3-4.9,1.1l-23.7-2.6C436.7,216.7,435.8,216.4,434.9,217.1Z"/><path class="cls-30" d="M439.7,199.9h-.5c-1.2.4-2.3,1.3-3.7.6s1-3.1.5-4.7-2.5-2.6-4.4-2.6-2.6,1.1-2.9,2.8a14.2,14.2,0,0,0-.3,4.1c-.1,2.1,2.5,1.5,2.9,3-3.1,5.9-5.8,7.7-10.4,7.1-.9-.1-1.8-.2-2-1.3s1.9-1,2.9-1.2,2-.3,2-1.7-1.2-1.3-2.1-1.7c-3.8-1.6-3.8,1.6-4.8,3.6-2.5.3-.6-2.2-1.7-2.8l-.4-.3a10.3,10.3,0,0,1,1.3-8.9c.6-.6,1.2-1.1,2-.9a3.2,3.2,0,0,1,.9,1.6c.5,2.4,2.6,2.9,4.3,2.4s1.8-3.4,1.7-5.2-2.1-2.1-3.8-1.8-1.9,1-2.7-.3-.3-4.1,1.2-5.7l17.7,1.7c1.7.2,2.7.8,2.6,2.8S439.9,196.8,439.7,199.9Z"/><path class="cls-31" d="M203.7,26.1c-2.8,2-5.8,2.9-8.7,4.3l-22.1,10c-4.3,1.9-4.3,1.9-4.3-2.9a12.1,12.1,0,0,0,0-1.9c-.4-2.7.8-3.6,3.4-4.1,9.4-1.6,18.8-3.6,28.2-5.4A5.2,5.2,0,0,1,203.7,26.1Z"/><path class="cls-32" d="M410,170.5c3.2,4.8,7.2,9.2,9.2,14.8a1.1,1.1,0,0,1-.9.5c-2.2-.3-3.4-1.8-4.4-3.7a27.8,27.8,0,0,0-9.6-11.6,17,17,0,0,1-2.2-1.5,7.5,7.5,0,0,0-3.4-2.1c-1.5-.5-3-1.1-3.2-3.1,1.4-1.1,3.2-.7,4.7-1.2C404,164.9,407.8,166.8,410,170.5Z"/><path class="cls-33" d="M338.8,160a3.4,3.4,0,0,0,.8-2.7c-1-5.2,1.5-9.2,4.4-13.1,1.7,2.5-.4,4.4-1.1,6.6-1.9,3.8.4,7.3,1,10.8a63.5,63.5,0,0,0-1.2,8.6,20.2,20.2,0,0,1-.9,3.3,3.6,3.6,0,0,1-2.8,2.4c-1.8-1.2-.1-3.5-1.5-4.9C339.5,167.6,339.4,163.8,338.8,160Z"/><path class="cls-34" d="M464.3,202.8a73.2,73.2,0,0,1-17.5-1.7c1.6-1.3,2.3-4.1,5.3-3.2S461.9,196.8,464.3,202.8Z"/><path class="cls-35" d="M339.2,175.7l2-2.3c2,.8,1.5,2.4,1,3.7-1.3,3.6-.7,7.3-.9,11s1,3.1,3,3.3a3.6,3.6,0,0,1,2.4,2.4,4.1,4.1,0,0,1,0,1.1,16.9,16.9,0,0,1-4.9,2.3c-2.2.5-.9,2.9-2,3.9s-1.6-.2-2.3-.2a.4.4,0,0,1-.1-.5c1.2-2.1.2-4.5.8-6.6C338.1,187.8,338,181.7,339.2,175.7Z"/><path class="cls-36" d="M339.2,175.7a52.5,52.5,0,0,1-.9,18.1,2.7,2.7,0,0,1-.8-2.7c0-6.7.1-13.3.1-20,1.1-.4,1.5,0,1.5,1.1A20.2,20.2,0,0,0,339.2,175.7Z"/><path class="cls-37" d="M400.1,163.1c-1,2.4-2.7.8-4.2.7a4,4,0,0,0-3.4,0c-1.1.1-2.2.1-2.8-1.1s1.2-1.1.9-2.1a2.3,2.3,0,0,1,2-.6c1.8.5,1.1-.5,1-1.3,2.5.8,3.2-.2,3.2-2.7s.2-6.9.3-10.4l.3,12.3c.6,1.1,1.8,1.8,2.5,2.7S401.3,162.1,400.1,163.1Z"/><path class="cls-38" d="M418.3,185.5h.9l.7.7c-.2,2-.5,4.1-.7,6.1s.5,2.4-1,3.1l-1.5.7c-.6,0-.9-.2-.7-.9l.8-2.9A8.1,8.1,0,0,1,418.3,185.5Z"/><path class="cls-39" d="M62.8,225.3a2.4,2.4,0,0,1-2.3-2.1c-.6-7.3-2-14.6.6-21.8a5.3,5.3,0,0,1,4.5-3.9c2.7-.3,3.5-1.8,3.2-4.3a95,95,0,0,1-.8-13.1c.2-4.7,1.8-6.9,6.4-7.6s11.1-2,16.7-.6,6.2,5.8,7.6,10.2c1.9,6,2.2,12.5,4.7,18.4a.9.9,0,0,1-.1,1l-.9.6c-1.5.5-1.7-.5-2.2-1.6s-1.1-4.7-3.1-6.4-1.7-3.2-1.8-5c.4-3.7-1.1-6.9-2.8-9.9s-4.6-3.8-7.8-2.9-2.2,2.3-2,4.2c.6,6,1.9,11.8,2.1,17.9a2,2,0,0,1-1.2,1.7c-1.7-.4-1.3-1.8-1.4-2.8-.2,1.2.4,2.5-.7,3.6a1.8,1.8,0,0,1-1.6-.1c-.9-6.2-1.4-12.6-2.6-18.8-.3-1.4-.1-3.5-2-3.5s-2.4,2.1-2.5,3.9a74.9,74.9,0,0,0,.3,8.2c-.8,2.2.9,4.5-.1,6.7s-3,2.1-2.8,4.2-1.2,2.2-2.2.3-.7-1.6-1.8-1.2a6.2,6.2,0,0,0-2.4,2.9c-3.1,3.7-2.5,8-2,12.3l.3,1.1C62.2,219.7,62.6,222.5,62.8,225.3Z"/><path class="cls-40" d="M109.2,180.2c1.3-1,1.1-2.1.1-3.2-3-3-2.9-5,1.1-6.1s4-2.4,2.2-5.5-2.6-4.7-1.1-7.4c.3-.5,0-1.3.9-1.4a1.2,1.2,0,0,1,1.3,1.1c.3,2.1.8,4,2.9,5.3a1.9,1.9,0,0,1,.3,2.4c-1.3,1.7-.7,3.6-.8,5.4s0,2-.5,2.5c-4.8,5.1-4.1,11.7-5.1,17.8-.4,2.2,1.7,1.8,2.1,3,1.7,4.7,4.8,8.4,8.4,11.7,1.5,1.4,1,2.7-.9,2.8s-3.6,1.5-5.3,2.4a28.4,28.4,0,0,1-7-12.7c-1.4-4.1-4.1-7.6-4.5-12.1a3.5,3.5,0,0,1,1.9-1c1.7-.1,2-1.4,2.3-2.7S107.7,180.3,109.2,180.2Z"/><path class="cls-41" d="M103.3,201.2c0-.2.1-.5.1-.7h3.5c1.3-.2,1.8.9,2,1.7a10,10,0,0,0,2.2,4.2c2.6,3,2.9,5.7.4,8.9-1.2,1.6-.2,3.9-1.5,5.6a60.3,60.3,0,0,1-10.4,3.4c-3.4-2.1-4.3-5.4-4.5-9.1a1.6,1.6,0,0,1,.7-.9c2.9-1.1,6.3-.6,9-2.4a5.6,5.6,0,0,1,2.3-1.2c-1.9-.1-2.5-1.4-2.7-3A28.6,28.6,0,0,0,103.3,201.2Z"/><path class="cls-42" d="M62.8,225.3c-2.3-2.7-1.2-6-1.5-9,2.1.4,1.5,2.2,1.8,3.5.8,3.3,7.6,6.1,10.5,4.3a2.6,2.6,0,0,0,1-1.9,16.6,16.6,0,0,1,1.3-3.5c2.6-6.5,7.8-7.1,13.7-6.5.4-2.5-.5-3.9-3-4.6s-3-.1-4.1-1.4-4-.9-5.9-1.8-3.6-.7-3.3-3.2c1.4-.8,2.6,0,3.9.3s3.1.6,4.4-.9-.4-4.7.5-7.4c2,2,0,4.8,1.7,6.6s1.7,4.5,4.7,4.5,4.3,4.9,6.4,7.4c.5,1,3.1,1.2,1.1,3.1h-.1c-.8,1.1-1.6,2.2-3.2,2.2a16.7,16.7,0,0,1-3.2-.8c-5.7-1.5-10.5,1.9-11.2,7.8-.2,1.7.5,3.6-1.3,4.8-4-.1-7.6-2.3-11.6-2.3Z"/><path class="cls-43" d="M110.1,220.6c-.2-3-.1-6,2.2-8.4.7-.8,1.2-1.9.3-2.7-2.8-2.5-3.3-6.3-5.5-9.1.3-.7.5-1.4.8-2,2.3,4.2,4.6,8.5,7,12.7.2.7.7.7,1.2.8-.8,3.9-2.3,7.7-2.5,11.7-2.7,1.5-2.5-1.1-3.3-2.4A1.4,1.4,0,0,1,110.1,220.6Z"/><path class="cls-44" d="M105.5,186.1l-2.2.2c-.4-1.6.9-2.9.9-4.4l1.5-5.3a4.7,4.7,0,0,1,2.2,2.2C108.2,181.6,107.9,184.2,105.5,186.1Z"/><path class="cls-45" d="M121.4,152c.9,1.3-.5,1.8-.9,2.6a3.8,3.8,0,0,1-5.1.3,2,2,0,0,1-.9-1.7A23.8,23.8,0,0,1,121.4,152Z"/><path class="cls-46" d="M110.2,164.4c1.7.4,1.5,1.7,1.2,2.8s-1.7,1-2.7,1C109.3,167,109.7,165.7,110.2,164.4Z"/><path class="cls-47" d="M395.8,228.3a6.2,6.2,0,0,0,5.5,4.4q12.9,1.7,25.8,3c8.4.8,16.8,1.4,25,3.1,3.5.9,7.1.8,10.5,2.2s5,.8,7.4,1.6h.1c.6,1.2,0,1.5-1.2,1.4-8.6,0-17.2.5-25.7-.1-15.8-1.1-31.6-1.3-47-5.9-3.1-.9-6.3-1.4-9.4-2.1-.4-.1-.8,0-1.1-.2-2.1-.9-4.5-2.4-4.3-4.5s3-1.9,4.8-2.1S392.6,229.1,395.8,228.3Z"/><path class="cls-2" d="M470,242.5a15.7,15.7,0,0,1-7.4-1.6C465.2,241.1,467.7,241.2,470,242.5Z"/><path class="cls-48" d="M73.3,237.3l6.4-1.2c1.6-.3,2.3-.8,1-2.3s0-2.2,1.3-2.8c2.8.6,5.7.9,8.5-.3s2.4.8,3.6,1.3,4.9-.1,7.4-.5c4.5-.6,9.1-1.1,13.7-1.9,0-1.4-1.3-2.3-1-3.6s1.4-1.7,2.6-1.9,1.8.7,2.7,1.1c4.6,2.6,8.3.3,8.5-5.1.1-2.4-1.6-4.2-1.7-6.4a2,2,0,0,1,2.7-1.6h0a12,12,0,0,1,4.2,11.6c-.5,3.2,3,3.3,5.1,4.3s2-.3,2.2.8-.8,1.6-1.4,2.4c-2.4,3.4-6.4,3.2-9.7,4.1-13.3,3.9-27.2,5.6-41,6.5-5.6.4-11.8,1.8-17.4-1.5-1.5-.9-3.9-.1-6.5-.1C67.5,238.1,70.8,238.8,73.3,237.3Z"/><path class="cls-49" d="M367.3,204.2a6.8,6.8,0,0,0-1.5,3.2c-1,5.1-6,9.1-10.3,8.9-2.7-.1-3.8-2.1-5.3-3.6s-2.1-2.2-3.1-3.2-2.3.2-2.4-1.5a19,19,0,0,0,2.2-3.3c.6-.6,1.5-.7,2.9-1.2-3.7-.6-3.5-3.5-4.5-5.5a2.5,2.5,0,0,1,1.2-2.4,2,2,0,0,1,1.7.2,2.2,2.2,0,0,1,.9,1.6c.1,2.9,1.9,3.6,4.4,4,7.4,1.1,8.1,2.5,5.1,9.2-1,2.2-2.3,3.2-4.5,1.3s-.6-3-.9-4.1a10.4,10.4,0,0,0,.8,3.9c2.2,2.3,3.7,1.3,4.7-1.1s.9-2.8,1.5-4.2C361.7,202.3,363.2,201.8,367.3,204.2Z"/><path class="cls-50" d="M367.3,204.2c-3.6-1.2-6.1-.8-6.7,3.7a10.8,10.8,0,0,1-2.1,4.3c-1.6,2.1-3.3,2.6-4.6-.4h0c2.8,1.5,4.2.5,4.5-2.5l.3-1.8c1.1-4.6,1.1-4.5-3.7-4.7-1.3-.1-2.7-.6-4-.7s-3.5-.4-2.6-3.1c.3-.8-.3-1.9-.5-2.8s1.9-.3,2.9-.5a1.2,1.2,0,0,1,.9.4h3.7l-1.6,1.4,14.8,1.5c.8.1,1.8-.9,2.4.1s-.7,1.7-1,2.6A11,11,0,0,1,367.3,204.2Z"/><path class="cls-51" d="M344.9,208l2.1,1.6c-2.2,1.2-3.4-.4-4.8-1.6s-3-4.8-4.7-7.1c.7-.5,1.4,0,2.1.1C341.9,203,344.2,204.9,344.9,208Z"/><path class="cls-52" d="M414,262.9c.3-1.9-.3-4.5,3.2-4.3s5.3,1.3,5.5,4.8a16.2,16.2,0,0,1,0,2.2h.3l-2.7,18.5a6.2,6.2,0,0,1-3.3,4.8,6.1,6.1,0,0,1-5.4.3c-1.6-.8-.6-2.7-.4-4.1"/><path class="cls-53" d="M67.6,300.4c-1,7.4-1.8,14.9-3.1,22.4-.7,4.5-2.5,5.5-7,5.4-2.1-.1-2.6-.9-2.4-2.7L59,295.4a1.8,1.8,0,0,1,2.2-1.8c2.2.1,4.7-.3,5.7,2.5A18.4,18.4,0,0,1,67.6,300.4Z"/><path class="cls-54" d="M59.8,288.8c1.2-9.5,2.3-18.3,3.5-27,.2-1.3-.3-3.4,2.1-3.2s5-.6,5.8,2.7a9.6,9.6,0,0,1,.3,2.9c-.9,7.4-1.8,14.8-2.8,22.2a5.4,5.4,0,0,1-5.4,5.1C60.7,291.7,58.7,291.4,59.8,288.8Z"/><path class="cls-15" d="M96.5,306.2c.3,1.5,1.5,1.4,2.6,1.4h8.6c-3.6,2-7.4.8-11.1.7C95.6,308.2,95.7,307,96.5,306.2Z"/><path class="cls-55" d="M93.7,232.8l-3.1-1.5c-.6-1.3.5-2.1.8-3.1,1-3.1.3-6.4-1.9-7.8a5,5,0,0,0-5.9.1c-2.4,1.8-3,4.8-1.7,8,.4.9,1.1,1.7.3,2.7s-1.7,1.3-1.6,2.5c-1-.5-1.2-2.1-2.7-1.8l-1.2-3.2c.2-3.8-.3-7.7,2.7-10.9s7.2-4.4,13.1-1.5c3.8,2.3,5,5.7,4.7,9.9-.1.6-.3,1.1-.4,1.7S96.6,232.4,93.7,232.8Z"/><path class="cls-32" d="M389.8,162.2c.8,1.1,1.9.6,2.9.8s2.4-.3,2.3,1.2-1.9,1.6-3,1.3c-8.5-2.6-17.4-2.4-25.9-4.9a15.2,15.2,0,0,0-4.7-1c-1.6,0-2.7.5-2.8,2.3s-2.5.6-3.2-.5-2.1-1.2-3.3-.4c-2-.8-2.2-2.1-1.1-3.9,2.6-4.2,2.2-7.1-1.3-10.9-1.6-1.8-2.6-1.5-3.5.5a13.4,13.4,0,0,1-1.3,2.7c-.8,1.1-1.7,1.9-3.1.9,1.2-1.9,2.3-3.8,2.1-6.1,2.2-1.2,3.3-6.5,7.1-2a8,8,0,0,1,2.2,2.3c1.4,2.1,2.7,4.4,2.7,6.9s2,4.4,4.9,4.6a15.4,15.4,0,0,1,3,.4c7.8,2,15.9,2.4,23.6,4.8A4,4,0,0,1,389.8,162.2Z"/><path class="cls-56" d="M393.6,158.7c.4.9,2.3,2.1-.6,2.1h-2.6c-1.5.8-2.6-.1-3.8-.7-4.7-2.2-9.7-3.9-14.3-6.4-1.4-.7-2.9-.5-4.3-.9a4.6,4.6,0,0,1-3.4-3.1c-.3-1.5.8-2,1.8-2.4,3.3-1,5.1,2.1,7.7,3.1C380.7,152.9,387.1,155.9,393.6,158.7Z"/><path class="cls-57" d="M366.4,147.3c-.3.8-1.4,1.1-1.3,2.1a1.1,1.1,0,0,1-.9.5c-3.2-.7-5.9-2.6-8.9-3.6a12.3,12.3,0,0,1-2.9-2.2,2.2,2.2,0,0,1-1.3-2c4.4.4,8.1,2.9,12.1,4.1Z"/><path class="cls-58" d="M446,232l-.8.8c-4.1,1.9-8.3,0-12.4-.1s-8.9-.9-13.3-1.3-9-.9-13.2-2.5-2.7-1.6-5.2,1-2.7-.6-3.5-1.5,0-6,2.4-6.7c.7-.2,1.7-.9,1.6,1.1s2,.8,3.1,1c4.6,1.8,9.5,1.3,14.3,2.1,7.5,1.3,15.1,1.5,22.5,2.9A6.4,6.4,0,0,1,446,232Z"/><path class="cls-59" d="M449.1,225.6c-2.1.4-3.9,3.6-5.1-.5-.1-.3-.9-.5-1.3-.4-3.7,1.2-7.7-1.1-10.7-.5-5.5,1.1-10.2-2.6-15.5-1.2a7.8,7.8,0,0,1-6.4-1.3c-1.3-.9-2.4-1.4-3.1.7s-1.2.8-1.9.3-1.6-.9-1.4-2,1.2-.8,1.8-1,4-.5,5.9-1,1.1,3.4,3.2,2.5.7-3.1,3.2-2.8,7.2.7,10.8,1.1a40.7,40.7,0,0,0,5.9.6c2.7-.1,1.3,2.9,2.7,3.4s1.6-3.1,4.1-1.6S446.3,223.6,449.1,225.6Z"/><path class="cls-60" d="M446,232c-5.6-4.1-12.5-3.3-18.8-4.4s-14-1.6-21-2.4a1.4,1.4,0,0,1-1.4-1.4l22.8,2.5c5,.6,10,1.6,15.1,1.8C445.8,228.2,446.5,229.4,446,232Z"/><path class="cls-61" d="M406.4,229l26.7,2.8,12.2,1v.7c-1.5,2-3.5,1.4-5.5,1.2-8.6-1-17.2-2.1-25.8-2.7-1.1-.1-2.2-.3-3.1.7a2.4,2.4,0,0,1-2.4-.6c-1.3-1.7-3.7-.9-5.2-2.2C404.1,228.6,405.3,229.1,406.4,229Z"/><path class="cls-62" d="M410.9,232.7c0-2.1,1.2-2,2.8-1.6a109.1,109.1,0,0,0,16,1.9c5.1.4,10.4,2.7,15.6.6,1.4,1.7,1.3,2.5-1.2,2.3-8.5-.9-17-1.6-25.4-2.6C416.1,232.9,413.5,232.9,410.9,232.7Z"/><path class="cls-63" d="M414.6,216.3l-.3-1.5c2.5-1.7,5.1-.2,7.6-.1,4.2.3,8.4.4,12.4,1.7-.5,1.4-1.2,2.3-3,2.1A155.7,155.7,0,0,1,414.6,216.3Z"/><path class="cls-64" d="M403.4,229.8a8.3,8.3,0,0,1,4.9.7c1,.4.9.9.2,1.6S404,233.2,403.4,229.8Z"/><path class="cls-65" d="M451.2,230.4c0,1-.4,1.6-1.1,1.3s-2.4-.2-2.4-1.8.5-1.5,1.3-1.4S450.8,229.7,451.2,230.4Z"/><path class="cls-66" d="M135.5,167.5c-5.3-2-8.9-6.2-13.1-9.6-.7-.6-1-1-.5-1.8s1.2-4.3,4-4.3h5.2c-.5,4.4,1.3,8.1,3.5,11.6C135.4,164.6,136.3,165.9,135.5,167.5Z"/><path class="cls-67" d="M128.8,212.2c-1,.4-2,.8-2.3,2a1.5,1.5,0,0,1-.7.3c-7.4.1-8.4,1.1-8.4,8.5a1.9,1.9,0,0,1-.5,1.3c-.4,1.1-1.7.8-2.3,1.5s-.3.6-.7.5a2.2,2.2,0,0,1-1.3-1.5,1.4,1.4,0,0,1,.3-.9c-.3-4.3.2-8.5,3-12C121,208.3,125.2,208.4,128.8,212.2Z"/><path class="cls-68" d="M135.5,167.5c-.6-3.6-3.4-6.2-4.8-9.6s-.5-4.1.4-6.1c1.2-.3,2.8-.8,3.1.7C135.4,157.4,136.6,162.4,135.5,167.5Z"/><path class="cls-69" d="M105.5,186.1l2.4-7.3a2,2,0,0,1,1.3,1.4c-.4,1.4-.8,2.8-1.1,4.2S107.2,186.7,105.5,186.1Z"/><path class="cls-70" d="M443.8,202.7c5.5.5,11,.9,16.5,1.6s6.8,2.1,6,7.4c-4,1.3-8,2.3-11.5-1.3a3.1,3.1,0,0,0-2.3-.6,2.6,2.6,0,0,0-1.7.7c-2.8,3-5.8,2.2-8.6.2a2.6,2.6,0,0,0-3-.2c-1.9.8-3.5,2.3-5.8,2.1s-3.1-.7-3.2-2.8c.6-4,3.3-6.9,7.1-7.3C439.4,202.3,441.7,202,443.8,202.7Z"/><path class="cls-71" d="M431.1,210.2a3.1,3.1,0,0,0,5.2.8c1.3-1.4,3.3-1.1,4.2-2.8s.7-.3,1.1.3c2.7,3.6,5.3,3.8,8.4.8.9-.8,1.8-.6,2.8-.7s1.2,1.5,2.3.7c2.1,2.6,4.9,3,8,2.2,1.1-.3,2.1-.7,3.2.1,0,5.8-.5,5.9-6.2,5.9s-11.5-1.9-17.4-1.6a7.1,7.1,0,0,1-5.5-2.3c-1.8-1.7-5-.2-7.5-1.3-.8-.3-1.8,0-2.4-.8a1.7,1.7,0,0,1,.8-1.2C429.1,210.2,430,209.7,431.1,210.2Z"/><path class="cls-72" d="M418.3,185.5a15.8,15.8,0,0,1-1.6,6.8c-3.4-.8-5-3.9-7.4-5.9s-2.4-4.9-3.2-7.4a10,10,0,0,0-1.4-5.3c-.6-1.3-1.1-2.5,0-3.8a27.5,27.5,0,0,1,10.1,12.5C415.5,183.9,417,184.6,418.3,185.5Z"/><path class="cls-73" d="M428.2,211l-.9.9-7.8-.8c-4.8-.3-5.4-1.1-4.2-5.8,1.3.5.3,2.3,1.5,2.8a2,2,0,0,1,2.2.8c3,1.1,5.9,1.6,8.1-1.7a54.6,54.6,0,0,1,3.9-4.5c.5-2.6,2.1-3.2,4.5-2.3s2.4-1.1,3.7-.4-1.7,1.1-2.2,2C432.9,203.8,430.4,207.2,428.2,211Z"/><path class="cls-74" d="M407.1,178.8a33.1,33.1,0,0,0,2.2,7.6c-.1,1.7-.2,3.3-2.6,3.1-.1-3.2-1.9-5.5-4-7.7.2-2.3-.9-4.4-.9-6.6s.2-2.7,1.7-3,1.7,1.3,2.2,2.2S406.5,177.2,407.1,178.8Z"/><path class="cls-75" d="M428.2,211c1-4.9,3.8-8,8.8-9,2.2.4,4.6-.7,6.8.8-3.9-.2-7.7-.2-10.8,2.9-1.3,1.3-2.2,2.7-1.9,4.6A5.7,5.7,0,0,1,428.2,211Z"/><path class="cls-76" d="M418.2,195.3c.3-1,.7-2,1-3.1,1.9-1.9,4.1-1.8,6.2-.6s1,3.1.6,4.7,1,4.5-2.6,4.1S417.2,199.7,418.2,195.3Z"/><path class="cls-77" d="M427.4,200.4a28,28,0,0,1,0-2.9c.6-5.7.7-5.6,6.5-5.3,2.6.2,3.5,1.3,3.1,3.7s-1.6,3.4-3.7,3.2S429.6,201.5,427.4,200.4Z"/><path class="cls-78" d="M419,208.8c-.8-.1-1.6,0-2.2-.8,0-5.3,2.6-6.8,7.3-4.3,1.5.8.9,2.2.9,3.3s-.7,1.7-1.9,1.7Z"/><path class="cls-79" d="M427.4,200.4c2.1-1.2,4.1-2.7,6.8-2.3s1.9-1.3,2.7-2.2c.5,1.8-.3,3.2-1.5,4.4a6,6,0,0,0-4.5,2.3C429.5,202.4,427.1,203.6,427.4,200.4Z"/><path class="cls-80" d="M358.4,162.2c-1.9-2.2-1-3.3,1.5-3.7a7.7,7.7,0,0,1,3.7.1c7.6,2.8,15.7,3,23.6,4.4,2.4.4,4.7,2,7.4,1.5-.1-1.2-1.5-.7-1.8-1.6,1.6-2,2.4-.9,3.1.7s2.9,2.5,4.7,2.9,2.1,1,2,2.4-.8,5.3-.5,8-1.5,2.1-3.1,1.4-4.9-2.9-7.6-4c-6.9-2.8-14.1-5-21.1-7.4C366.2,165.7,362,164.6,358.4,162.2Z"/><path class="cls-81" d="M358.4,162.2c11.5,3.3,22.8,7.2,34,11.5,2.3.9,4.3,2.4,6.6,3.5.7.4,1.3,1.5,2.2.8a2.3,2.3,0,0,0,.5-2.8,6.2,6.2,0,0,1,.9-6.3l2.1.8c-.2,3.2,2.9,5.7,2.3,9-1.6-1.8-1.2-4.8-3.7-6.3-1.7,2.5-.3,4.9.2,7.2s.2,1.7-.9,2.1-3.4-3-5.9-2.8-6.1-2.7-9.1-4.1a34,34,0,0,0-16.6-3.2c-4.8.2-9.7-.1-14.5.2-2.9,1.4-2,4.2-2.3,6.5-.6,3.9-.8,7.9-1.3,11.8-.5,2-.9,4-1.4,6h-.8a11.7,11.7,0,0,1-4.4-1.3c-.6-.9-.9-2-1.9-2.5-.8-5.9-.4-11.9-1.3-17.8a4.6,4.6,0,0,1,.6-3.6c2.8-.5,2.7,1.7,2.7,3.2,0,4.3.8,8.4.9,12.7a4.3,4.3,0,0,0,1.7,4.1c1.7-10.3,1.6-20.3,3.2-30.1.2-1.3.7-2.5,2.2-2.6s.7,1.3,1.1,2.1A3,3,0,0,0,358.4,162.2Z"/><path class="cls-82" d="M352.3,160.7c1.8,3.8,0,7.5-.1,11.3-.2,5.6-1,11.1-1.3,16.6-.1,1.8-.5,3.4-2.5,3.4s-1.9-1.8-2-3.3c-.3-5.1-.5-10.2-.8-15.2-.1-1.3,0-2.6-1.6-2.9l-.4-.5c-1.2-2.8.1-5.8-.3-8.6s-3-7.2-1.4-11.2c2.2.2,2.5-1.5,3.1-3.1,1.7-4.5,2.5-4.5,5.7-1.3s3.3,5.4,3.1,8.8c0,1-.1,1.9-1.3,2.4S351.1,159.4,352.3,160.7Z"/><path class="cls-36" d="M344,170.6l1.5,18a4.1,4.1,0,0,1-.9,3.5c-3.4.7-4.8-.4-4.3-4s-.6-8.5,1.6-12.4a1.7,1.7,0,0,0-.6-2.3,4.7,4.7,0,0,1,.7-2.8,1.2,1.2,0,0,1,2,0Z"/><path class="cls-83" d="M344,170.6h-2a17.6,17.6,0,0,1,1.3-9.1C344.8,164.4,344,167.5,344,170.6Z"/><path class="cls-84" d="M344.9,208c-1.8-2.3-4.1-4.2-5.3-6.9,0-1.2-.1-2.4,0-3.6s1-1.8,2.2-.7,1.4,1.4,2,2.2,3.2,3.6,3.6,6.1S347.2,208.2,344.9,208Z"/><path class="cls-85" d="M343.2,199c-.4-.8-2.8-.4-1.4-2.3,1.5-.4,2.3-2.8,4.4-1.4a.5.5,0,0,1,.3.4c0,.2-.1.3-.2.3l-.6,2.4C345.2,199.9,344.2,199.6,343.2,199Z"/><path class="cls-86" d="M346.4,196a1.7,1.7,0,0,1-.1-.7c.1-.2.1-.5.2-.7,1.6,0,3.3-.6,4.4,1.3-.8,1.7-2,.4-3,.3Z"/><path class="cls-87" d="M364.2,149.5h.9a3,3,0,0,0,2.3,2.3c8.3,1.4,15.3,6.3,23,9.1.8.9.4,1.3-.6,1.4l-26.4-5.2c.9-1.1,2.1-1,3.3-1.1,3-.1,5.9.8,8.9,1a37.6,37.6,0,0,0-7.5-2.9C365.9,153.5,363.6,152.7,364.2,149.5Z"/><path class="cls-88" d="M73.3,201.3c1.9,2.7,4.9,2.7,7.6,2.8s2,.5,2.1,1.8a1.6,1.6,0,0,1-1.7.5,56.1,56.1,0,0,1,9.2,6.8h-3c-7.6,0-10.7,2.7-12,10.2-.2,1.3-.8,2.1-2.1,2.1a34.1,34.1,0,0,1-5.5-.5c-4.8-.9-5.5-1.8-5.9-6.8-.1-.8-.1-1.5-.8-2h0c-.7-2.3.9-2.1,2.2-2,6.1.1,7.3-1.2,5.4-7-.8-2.3,1.3-3.9.6-6s-1.1-4.9,3-3.8C74,198.5,74.4,199.7,73.3,201.3Z"/><path class="cls-89" d="M89.8,194.4c1.8-2,3.6-4.1,6.4-4.9,1.4.7-1.5,3.9,2,3.4,1.1,3.7,1.8,7.5,3,11.2s.6,5.9-2.6,7.7H97.4c-2-3.8-1.7-8.4-3.9-12.3-1-1.7-1.9-3-3.8-3.6S89.4,195,89.8,194.4Z"/><path class="cls-42" d="M69.6,201.3c.3,3.2,1,6.5.8,9.7-.4,4.7-1.4,5.2-6.2,4.3-1.2-.2-2.5-1.2-2.8.9-1.3-4.8-1.9-9.5,2.1-13.5,1,.4,2.1.9,3-.2s-.3-2-.6-3c2.5-1.5,3-.1,3,2.1v.3C69.6,202.1,69.5,201.6,69.6,201.3Z"/><path class="cls-90" d="M97.2,211.6H98c5-1.2,2.1-4.8,2.3-7.5a24.3,24.3,0,0,1-2.2-11.3,16.2,16.2,0,0,1,3,7.6c.3,1.3.8.9,1.5.7,2.8,3.2,2,7.5,3.1,11.1-2.8,2.7-6.4,2-9.8,2.3,1-1.8-1.2-1.3-1.5-2.1A2.5,2.5,0,0,1,97.2,211.6Z"/><path class="cls-91" d="M89.8,194.4a6.6,6.6,0,0,0,.1,1.4c-1.6,2.8-.8,6.1-1.4,9.1-4.1.6-3.9-2.7-4.7-5.1l.7-1.3C85.4,195.9,87.8,195.5,89.8,194.4Z"/><path class="cls-92" d="M76.5,200.4c1.2.9,2.4.2,3.6,0h1.4c.2,2.2-1.3,2.5-2.9,2.2s-3.6-1-5.4-1.4c-.3-1.2-.5-2.5-.8-3.7s-1.7-4.6,0-6.9v.2c1.8,1.5,1.5,3.8,2.2,5.7S74.9,199.6,76.5,200.4Z"/><path class="cls-93" d="M105.7,212.4c-2.4-3.3-1.7-7.5-3.1-11.1h.8c1.3.2,1.2,1.2,1.6,2.1s-.8,5.6,2.7,7.2C108.2,210.8,106.4,211.7,105.7,212.4Z"/><path class="cls-94" d="M65.8,199.6c1.6,0,2.6.7,2.4,2.5s-2.1,2-3.4,2.5-1.1-1.1-1.4-1.8A5.6,5.6,0,0,1,65.8,199.6Z"/><path class="cls-90" d="M99.6,223.8c-.9,1-1.6,2.4-3.1,2.7.3-4-1.5-7.2-3.9-10.1l3.2-1.6A21.7,21.7,0,0,0,99.6,223.8Z"/><path class="cls-95" d="M90.6,213.2c-4.3-.9-6.4-4.9-10.3-6.6,1.1-1.2,2-.7,2.8-.8,3.6.8,7.4,1.2,8.5,5.7C91.9,212.7,91.8,213.1,90.6,213.2Z"/><path class="cls-96" d="M113,224.6c-2.7.1-2.9-1.8-2.9-3.8,2.3-.2.8,3.1,2.9,3Z"/><path class="cls-25" d="M355.8,170.6c7.4,0,14.8-.9,22,.1s13.5,3.3,18.8,8.2c-.1,1.1-1,1.3-1.9,1.5l-39.2,9h-1.1c-1.8-.8-1.6-2.4-1.4-3.8.5-4.4.7-8.8,1.5-13.1A4.6,4.6,0,0,1,355.8,170.6Z"/><path class="cls-97" d="M355.8,170.6c-1.1,6.2-2.8,12.4-1.3,18.8l-1.6.7c-1.7-4.6.5-9,.4-13.5,0-1.3.4-2.7.5-4.1S354.3,170.3,355.8,170.6Z"/><path class="cls-98" d="M82.3,231.2c-.3-2-2.5-3.1-2.3-5.4s1.3-6,4.5-7.1a5.7,5.7,0,0,1,7,2c2,2.6,1.9,5.5.6,8.4a15.9,15.9,0,0,1-1.5,2.1C87.9,232.7,85.1,233.7,82.3,231.2Z"/><path class="cls-99" d="M116.9,224.3c-.3-2.1-1.2-4-.4-6.2,1.5-4.3,4.9-5.7,9.9-3.9a8.6,8.6,0,0,1,2.3,8.2,6.1,6.1,0,0,1-4.1,4.8C121.4,228.4,119,226.6,116.9,224.3Z"/><path class="cls-100" d="M96.1,227.4c.7,1.2,1,2.2,3.1,1.8,4.2-.9,8.5-1.2,12.7-1.7,1.2-.1,1.9-.5,2-1.7h.7c.2,1.7,1.5,2.8,2.9,4.6-5.7.8-11,1.7-16.3,2.2-2.5.2-5,1.9-7.5.2C95.7,231.5,95.6,229.3,96.1,227.4Z"/><path class="cls-101" d="M343.2,199c.8-.3,1.9.4,2.5-.7s1.4.8,1.4,1.8a2.3,2.3,0,0,0,2.4,2.6c.8.1,2-.1,1.8,1.2s-1.4.4-2.1.7a9.7,9.7,0,0,1-1.8.3C346,203,343.9,201.6,343.2,199Z"/><path class="cls-50" d="M353.8,211.7a7,7,0,0,1-1.2-6.2c.2-.6.7-1.1,1.4-.8s.5.9.4,1.2c-.8,1.9-.5,3.9-.6,5.8Z"/><path class="cls-102" d="M367.3,157h-3.9l-2.6-.2c-3.5-.2-6.5-.7-5.8-5.6.4-2.6-1.9-4.7-2.7-7.1,1.1.4,2.2.6,2.9,1.6s2,3,2.3,4.8,1.8,3.7,4.4,4.2S366.4,154.3,367.3,157Z"/><path class="cls-103" d="M367.3,157a11.5,11.5,0,0,0-6-1.4c-3,0-4.1-1.6-4.6-4.2s-.9-3.8-1.4-5.7a43.4,43.4,0,0,1,8.9,3.8,4.9,4.9,0,0,0,4.7,3.9c2.9.3,5.4,2,8.2,3.1.6.2,1.2.6,1.1,1.3s-1.1.9-1.8.8C373.4,158,370.5,156.9,367.3,157Z"/><path class="cls-104" d="M425.6,222.6c-.6-.2-1.1-.5-1-1.2a1.3,1.3,0,0,1,1.2-1.2,1.1,1.1,0,0,1,1.2,1.4A1.7,1.7,0,0,1,425.6,222.6Z"/><path class="cls-105" d="M455.1,209.5c-.2.9.1,2.3-1.4,2.1s-.8-1.8-1-2.8S454.6,208.6,455.1,209.5Z"/><path class="cls-106" d="M374.9,170c-6.2,0-12.4.2-18.5-.1-3.1-.1-1.7-2.8-1.7-4.4s1-2.7,2.9-2.1l17.4,5.4C375,169.2,374.9,169.6,374.9,170Z"/><path class="cls-107" d="M342.8,177.2c.5,4,1.7,7.9,1.3,12-.1,1,0,2.1-1.4,2.2s-1.6-.8-1.6-1.9C341,185.3,340.9,181.1,342.8,177.2Z"/><path class="cls-108" d="M76.5,200.4c-1.7,0-2.3-.9-2.5-2.5s-.9-4.7-1.4-7.1c2.6.3,2.8,2.3,3.1,4.2S76.2,198.7,76.5,200.4Z"/><path class="cls-109" d="M100.3,204.3c1.4,1.5,1.1,3.7,1.5,5.4s-1.4,3.3-3.8,2.1C100.4,209.7,100.6,207.1,100.3,204.3Z"/><path class="cls-110" d="M69.3,211.4c.4,2.1-.4,2.8-2.2,2.8s-3.5-.4-3.6-3,1.9-3.6,3.7-3.7S68.4,210.4,69.3,211.4Z"/><path class="cls-111" d="M89.7,225.4a2.8,2.8,0,0,1-3.1,2.9c-1.8,0-2.7-1-2.7-2.8s.9-3.1,2.8-3.2S89.2,223.8,89.7,225.4Z"/><path class="cls-112" d="M125.7,220.5c-.3,1.9-1.4,3.2-3.2,3.1s-2.8-1.5-2.6-3.4,1.1-3.1,3.1-3S125.5,218.8,125.7,220.5Z"/></g></g></svg>