<svg xmlns="http://www.w3.org/2000/svg" xmlns:xlink="http://www.w3.org/1999/xlink" viewBox="0 0 161 270.9"><defs><style>.cls-1{fill:none;}.cls-2{isolation:isolate;}.cls-3{fill:#61350c;}.cls-18,.cls-30,.cls-32,.cls-4,.cls-7,.cls-9{fill:#231f20;}.cls-11,.cls-35,.cls-4{opacity:0.3;}.cls-5{fill:#ffbe87;}.cls-19,.cls-27,.cls-32,.cls-6{opacity:0.4;}.cls-11,.cls-12,.cls-13,.cls-22,.cls-24,.cls-27,.cls-30,.cls-6{mix-blend-mode:overlay;}.cls-6{fill:url(#Fade_to_Black_6);}.cls-34,.cls-7{opacity:0.1;}.cls-8{fill:#15598f;}.cls-10,.cls-13,.cls-16,.cls-30{opacity:0.5;}.cls-11,.cls-12,.cls-17,.cls-19,.cls-27,.cls-35{fill:#fff;}.cls-12,.cls-18{opacity:0.2;}.cls-14{fill:#f15a29;}.cls-15{fill:#e6e7e8;}.cls-16{fill:#fff200;}.cls-20{clip-path:url(#clip-path);}.cls-21{fill:#78a836;}.cls-22{fill:url(#New_Gradient_Swatch_5);}.cls-23{clip-path:url(#clip-path-2);}.cls-24{fill:url(#New_Gradient_Swatch_5-2);}.cls-25{fill:#3c2415;}.cls-26{fill:#75400e;}.cls-28{fill:#c48a4a;}.cls-29{fill:#e6535f;}.cls-31{fill:#d64552;}.cls-33{fill:#ffdc15;}</style><linearGradient id="Fade_to_Black_6" x1="68.94" y1="108.89" x2="70.85" y2="139.84" gradientUnits="userSpaceOnUse"><stop offset="0" stop-color="#231f20"/><stop offset="1" stop-color="#231f20" stop-opacity="0"/></linearGradient><clipPath id="clip-path"><path class="cls-1" d="M97.9,81c-3.4,2.7-9.2.8-13.1,2.7-.3-11.2,10.6-15.3,15.3-10.8C101.6,74.4,99.7,79.6,97.9,81Z"/></clipPath><radialGradient id="New_Gradient_Swatch_5" cx="-1211.28" cy="2469.31" r="2.09" gradientTransform="translate(4885.9 -9702.4) scale(3.96 3.96)" gradientUnits="userSpaceOnUse"><stop offset="0" stop-color="#fff"/><stop offset="1" stop-color="#fff" stop-opacity="0"/></radialGradient><clipPath id="clip-path-2"><path class="cls-1" d="M53.2,82.7c6.1,1,11.8.8,17.9,1.7a15.7,15.7,0,0,0-6.3-10.6c-3.5-2.6-7.8-3-12.1-2.3a8.9,8.9,0,0,0-5.1,2.3,4.9,4.9,0,0,0-1.4,5.1C47.2,81.5,50.4,82.3,53.2,82.7Z"/></clipPath><radialGradient id="New_Gradient_Swatch_5-2" cx="-1219.5" cy="2469.39" r="2.09" xlink:href="#New_Gradient_Swatch_5"/></defs><title>objetivos</title><g class="cls-2"><g id="Capa_2" data-name="Capa 2"><g id="Pagina_Principal_-_Escritorio" data-name="Pagina Principal - Escritorio"><g id="Hair"><path class="cls-3" d="M70.6,29.1c8.1-1.2,16,4.2,20.1,10.8s9.4,13.2,11.4,20.7c2.5,9.8,2.4,20.8,4.4,30.8s2.3,17.3,3.6,26c.6,3.7,1,7.6,2.2,11.2s3.3,7.7,3.7,12-.8,10.2-4.6,13.5c.6-1.5,2-4.3,1.3-6a38.6,38.6,0,0,1-4.5,9.1,37.2,37.2,0,0,0,1.9-8,31.5,31.5,0,0,1-4.7,9.1,25,25,0,0,1-3.4,3.9c-.8.7-3.5,2.1-3.8,3a22.9,22.9,0,0,0,1.7-9.3,14.8,14.8,0,0,1-4.4,10V155.4a22.2,22.2,0,0,1-1.2,8.5c-1.9,4.9-6.2,5.3-10.8,6.7A65.4,65.4,0,0,1,66,173.4c-6.5.1-15.1-.2-19.3-5.8a35.2,35.2,0,0,1-4.9-9.4,29.3,29.3,0,0,0,4.4,11,28.8,28.8,0,0,1-5.7-7.3,22.5,22.5,0,0,0,3.5,6.9,40,40,0,0,1-10.8-10.1,9.9,9.9,0,0,0,4.8,7.4,46.7,46.7,0,0,1-23.4-26.8c-4.4-13.2-1.5-26.7,2.4-39.6s8.7-27.1,15.7-39.6S49.3,36.2,61.8,28.5c2.6-1.6,5.9-1,8.9-.3.1.1.3.1.3.3S70.6,29.2,70.6,29.1Z"/><path class="cls-4" d="M46.5,103l-4.1,23.2c.5-8.2.7-16.4.7-24.6-1,6.9-1.8,13.8-2.4,20.8-.3-7.8-.3-15.5,0-23.2a163.4,163.4,0,0,0-2.9,23.2c-1.9-14.4.7-28.9,3.3-43.2a259.7,259.7,0,0,0-8.6,37.9c-1.3-9.4,1.1-18.8,3.4-28-3.1,8.6-4.6,17.8-6,26.8a101,101,0,0,1,2.8-26.8c-4.7,11.1-6.8,23.1-9,34.9l4-28.8A211.1,211.1,0,0,0,19,119.8l7.3-31.2c-4.4,8.6-9,17.6-9.1,27.3.6-12.9,5.5-25.1,10.3-37.1a179,179,0,0,0-10.1,27.3c-1,3.8-2.4,7.2-3.6,10.9s-.6,9.4.2,13.5c2,9.9,7.7,18.5,13.8,26.5a42.4,42.4,0,0,1-7.4-18.1,46.4,46.4,0,0,0,5.2,11.3,33.1,33.1,0,0,1-2.3-17.3,59.1,59.1,0,0,0,10.5,30.3A44.5,44.5,0,0,1,28.2,136a62.1,62.1,0,0,0,5.9,21.1A81.9,81.9,0,0,1,31,136.2a59.7,59.7,0,0,0,9,27.9,32.3,32.3,0,0,1-3.4-9.3,130.7,130.7,0,0,1-2.8-16.6c1,4.8,2.1,9.7,3.3,14.5s2.2,7.9,4.7,11.1a67.1,67.1,0,0,1-4.7-31.6c1.6,11.9,4.2,24.1,11.1,34.1.5.8,1.2,1.6,2.2,1.5a56.2,56.2,0,0,1-9.3-27.7,82.7,82.7,0,0,0,8.9,24,72.4,72.4,0,0,1-4.8-24.3c.1,4.7,2.7,10.3,4.4,14.6a80.5,80.5,0,0,0,7.5,14.2c-1.9-8.5-3.4-16.6-3.1-25.4a71.4,71.4,0,0,0,6,28.5,81.4,81.4,0,0,1-4.1-26.4c1.1,8.4,2.2,16.9,5.9,24.5a116.1,116.1,0,0,1-2.5-20.3c2.7,6.6,2.7,14.4,6.9,20.2-2.7-12.2-5.5-24.7-4.4-37.2,2,11.4,4.4,22.8,7.4,33.9-1.2-9.1-2.4-18.3-2.1-27.5l6,29.9a325.1,325.1,0,0,1-1.7-35.6c2.3,11.4,4.1,22.9,5.5,34.4l-1.3-1.9a4.2,4.2,0,0,0,2.6,3.5c1.2-10.7,1.2-21.5,1.3-32.3,1.1,10.8,2,21.6,2.6,32.4a254.9,254.9,0,0,0,.8-31.5c2.2,9.9,2,20.2,1.8,30.3A191.7,191.7,0,0,0,86.8,136c1.3,10.6,1.2,21.2,1.1,31.9l2.8-33.1c1.3,9.5.5,19.2-.3,28.7,1.7-10,3-20,3.8-30.1,1.7,9.7,2,19.4,2.4,29.2l3.1-30.7c1.6,6.3,1.8,12.9,2.1,19.4a155.4,155.4,0,0,0,2.4-21.5,79.6,79.6,0,0,1-1.5,31.1c4.7-9.6,5.5-20.5,6-31.2a70.7,70.7,0,0,1,.1,17.8l1.6-7.4c.2,3.1.2,6.2.1,9.3a42.5,42.5,0,0,0-.1-19.1,50.7,50.7,0,0,1,1.8,16.5,42,42,0,0,0,.4-13.7,39.7,39.7,0,0,1,2.4,12.7c1.5-4.2-.8-8.6-2.8-12.6a88.8,88.8,0,0,1-8.4-31.5c-.4-5-.4-10-.9-14.9A97,97,0,0,0,99.2,69c3.2,15.2,2.1,30.4,1.1,45.9.6-10-1.1-20-2.7-29.8a205.2,205.2,0,0,1-.3,24.8,84.1,84.1,0,0,0-1.7-21.8c-.2,8.6,0,17.1.4,25.7L93.3,79.5a215,215,0,0,0-1.1,30,136.4,136.4,0,0,0-.8-19.2,232.8,232.8,0,0,0-2,23.5L87.2,76.4a385.4,385.4,0,0,0-1,40.2c-1.6-6.2-2.9-12.7-2.7-19.1a69.6,69.6,0,0,0-.4,10.2v15.9l-2.6-21.7-1,27.4c-2.2-7.4-2.6-15.3-3-23L75.3,85.7c-.8,11.6-1.6,23.2-2.2,34.8L72,98.9a129.7,129.7,0,0,0-.6,21.6,280.4,280.4,0,0,1-3-42.9C66.9,93,66.1,107.8,66,123.3c-.5-5.2-1.2-10.4-2-15.5l-.3,17.3-3.6-38a229.6,229.6,0,0,0-.7,38.9,172.2,172.2,0,0,0-1.9-19,135.2,135.2,0,0,0-.1,18l-1.3-17.7a195.5,195.5,0,0,0-1.2,21.6c-2.7-13.1-1.7-26.8-.6-40.2a123.7,123.7,0,0,0-3.6,40.2l-1.1-25.5a119.3,119.3,0,0,0-2.7,23,171.7,171.7,0,0,1-.7-22.7,1.2,1.2,0,0,0-1.4.3"/></g><path class="cls-5" d="M63,180.1c1.9,3.6,3.7,7.4,3.8,11.3,8.8.2,17.7.7,26.5,1.4.2-7.4,3.1-16.5,1.2-23.9,1.8-2.4,2.2-5.4,3.5-8.1a8,8,0,0,0-3.3-10.5,132.6,132.6,0,0,1-16.2-10.6c-3-2.2-5.9-4.7-7.7-7.9s-2.5-8.7-3.9-13-4.8-8.7-9.3-8.8c-.9,3.8-.3,7.7-.3,11.5s.2,9.8-2.7,12.4-10.8-.1-10.7,5.5a19.1,19.1,0,0,0,.9,5.4Z"/><path class="cls-6" d="M63,180.1c1.9,3.6,3.7,7.4,3.8,11.3,8.8.2,17.7.7,26.5,1.4.2-7.4,3.1-16.5,1.2-23.9,1.8-2.4,2.2-5.4,3.5-8.1a8,8,0,0,0-3.3-10.5,132.6,132.6,0,0,1-16.2-10.6c-3-2.2-5.9-4.7-7.7-7.9s-2.5-8.7-3.9-13-4.8-8.7-9.3-8.8c-.9,3.8-.3,7.7-.3,11.5s.2,9.8-2.7,12.4-10.8-.1-10.7,5.5a19.1,19.1,0,0,0,.9,5.4Z"/><path class="cls-7" d="M69.2,126.5a52.3,52.3,0,0,0-2.3-7.7c-1.5-4.3-4.8-8.7-9.3-8.8-.8,3.6-.3,7.3-.3,11a15.1,15.1,0,0,0,6.3,4.3c2.4,1,3.7,1.3,4,4.3l.7,9.4c.5-3.7,1.5-8.3,1-12.1C69.3,126.8,69.2,126.7,69.2,126.5Z"/><path d="M112.9,270.9c0-2.2-13.8-65.3-17.7-73.7-1.2-2.5-1.6-5.8-1.8-9.3-4.6.4-13.9-.6-17.4,2.4a9.2,9.2,0,0,0-1.9,2.6c-1.2,4.7-3,9.2-3.7,14-.9,6.4,1.1,13.5,3.3,19.5,3.3,9.2,19.9,41.4,18,44.5"/><path class="cls-5" d="M121.4,179.3c1.7-.4,3-1.9,4.5-4A114.7,114.7,0,0,0,136.5,157c2.8-6.1,7-13.1,5.9-20-2.2,2.8-25.7,29.1-25.8,28.9l-8.4-6.2c-4.1-3-8.2-6.1-11.1-10.2s-4.5-9-8.5-11.7c-6.7-4.5-7.4,4-7.2,8.9a18.3,18.3,0,0,0,6.4,13.4c2.3,1.8,4.9,3.1,7.3,4.7,4.2,2.6,8,6,12.1,8.9a37,37,0,0,0,11.3,5.5A4.2,4.2,0,0,0,121.4,179.3Z"/><path class="cls-7" d="M113.1,163.4l-4.9-3.7c-4.1-3-8.2-6.1-11.1-10.2s-4.5-9-8.5-11.7c-6.7-4.5-7.4,4-7.2,8.9a18.3,18.3,0,0,0,6.4,13.4c2.3,1.8,4.9,3.1,7.3,4.7,3.9,2.4,7.4,5.5,11.2,8.2C108.1,169.5,111.2,166.9,113.1,163.4Z"/><path class="cls-8" d="M101.8,171.3a88.5,88.5,0,0,1,10.1-11c-3.5-2.8-9.2-7.5-11.5-10.9s-4.9-10.1-9.7-13.3c-7.9-5.4-9.2,4.2-8.9,10A21.6,21.6,0,0,0,89.4,162a80.3,80.3,0,0,0,8.7,5.6A18.5,18.5,0,0,1,101.8,171.3Z"/><path class="cls-4" d="M100.8,161.1c-.5-3.6-1.6-5.3-7-11-.6-.7-1.8-.8-2.7-1.1a12.6,12.6,0,0,1-5.3-3.5,8.7,8.7,0,0,1-1.6-2.6,21.7,21.7,0,0,0-1.9-3.3,24.1,24.1,0,0,0-.5,6.5A21.6,21.6,0,0,0,89.4,162a80.3,80.3,0,0,0,8.7,5.6,18.5,18.5,0,0,1,3.7,3.7l2.8-3.5c-.4.6-4.9-1.3-4.6-1.8A12.9,12.9,0,0,0,100.8,161.1Z"/><path class="cls-4" d="M97.2,146.4c3.2,5.8,7.9,11.6,13.8,14.7l.9-.8c-3.5-2.8-9.2-7.5-11.5-10.9s-4.8-9.6-9.1-12.9C93.9,139.2,95.5,143.3,97.2,146.4Z"/><path class="cls-9" d="M69.2,270.8C75.4,240,84.7,212,81.2,201c-.9-2.6-.9-5.9-.6-9.5l-18.2-.7v1.7c-.6,5.8-13.6,10.5-16.2,25.6a88.8,88.8,0,0,0,.4,30c1.3,7.3,2.4,15.1,2,22.8"/><path class="cls-10" d="M68.1,228.3c4.5,7.5,5.5,16.3,5,25,5.4-23.6,10.9-43.4,8.1-52.3-.9-2.6-.9-5.9-.6-9.5l-18.2-.7v1.7c-.6,5.3-11.3,9.6-15.2,21.7A30.2,30.2,0,0,1,68.1,228.3Z"/><path class="cls-11" d="M48.1,245.3c-.4-4.1.3-23.8.6-25.8-.5-4.5-1.8-2.4-1.9-.6a90,90,0,0,0,.5,29.3,128.6,128.6,0,0,1,2,15.5c.1-1.9.2-3.8.2-5.7C48.8,253.8,48.4,249.5,48.1,245.3Z"/><g id="Body"><path class="cls-5" d="M49.8,140.9c-5.6-20.1-20.3,27-23.1,46.3l11,4.4c6.3-13,12.6-32.1,13.5-34.1S50.7,143.9,49.8,140.9Z"/><path class="cls-8" d="M94.6,177.9c.6-3.3,2.6-6.7,3.6-9.8s-.4-5.2-.4-7.8-10.7-17.1-9.7-25.7c-4.1,0-13.2-1.1-16.2-1.2.7,3.2.3,5.4-2.9,5.8s-13.3-7.1-14-7.5c-2.9.8-14.6,6.7-17.1,7.2s-8.1,23-12.8,31.6c4.3,4.1,16,3.7,20.1,7.9,2.7-8.8,4.9-14.5,5.9-17.2,10.7,18.5,16.1,33-4.1,48.1a106.8,106.8,0,0,0,27.4,6.2c8.5.8,18.3-.5,26.2.9-1.3-4.5-3-9-4.5-13.5a30.5,30.5,0,0,1-1.7-6.6,33.2,33.2,0,0,1,.2-7.7C95,185,94.1,181.5,94.6,177.9Z"/><path class="cls-12" d="M32.2,161.9c1.5-4.5,5-18.5,6.5-23.1-.4.3-10,26.5-12.8,31.5a11,11,0,0,0,3.2,2C30,168.8,31.1,165.3,32.2,161.9Z"/><path class="cls-4" d="M69.6,143.9c3.2,0,6.6-.5,7.4-4.1a10.7,10.7,0,0,0-.8-6.1l-4.3-.3c.7,3.2.3,5.4-2.9,5.8s-13.3-7.1-14-7.5l-2.3.9C56.4,138.4,62.4,143.9,69.6,143.9Z"/><path class="cls-4" d="M96.1,202.9a30.5,30.5,0,0,1-1.7-6.6,33.2,33.2,0,0,1,.2-7.7c.4-3.6-.5-7.1,0-10.7s2.6-6.7,3.6-9.8-.4-5.2-.4-7.8-10.7-17.1-9.7-25.7l-6.8-.4c1.7,6.2,7.2,29.4-.3,30.7-10.5,1.7-27.5-21.8-32.7-30.4L42,137.3c1.6,1.2,2.5,3.3,3.3,5a34.2,34.2,0,0,1,2.6,8.8c1.3,8.1-1.1,15.3-3.2,23-.3,1.1-.5,2.1-.8,3.2a6.9,6.9,0,0,1,1.3,1.1c2.7-8.8,4.9-14.5,5.9-17.2,10.7,18.5,16.1,33-4.1,48.1a106.8,106.8,0,0,0,27.4,6.2c8.5.8,18.3-.5,26.2.9C99.3,211.9,97.6,207.4,96.1,202.9Z"/><path class="cls-13" d="M94.9,187.7a242,242,0,0,0-38.8,6.6,57.6,57.6,0,0,1-7.9,15.9,2.2,2.2,0,0,1-.2,1.9,17.6,17.6,0,0,0-1.7,5.5c25.6,16.3,49.4,4.6,54.2,2.9C97.6,213.1,94.7,199.1,94.9,187.7Z"/><path class="cls-14" d="M95.9,174.8c1.1-6.1,5.2-11,2.6-16.6s-16.2-25.4-15.6-24.5c-1.9-.1-3.6-.6-5.4-.8,2.2,8.7,4,18.5,1.9,27.2-5-5.2-24.8-25.2-25.7-27.6a58.1,58.1,0,0,0-8.8,3.2c4.9,8.5,8.8,20.8,4.6,29.8,4.6,7.6,7.9,16.9,7.6,20.8-.7,8-7.8,21.5-13.5,27.1,26.5,19,53.7,5.1,58.7,3.3C95.1,207.8,93.5,187,95.9,174.8Z"/><path class="cls-4" d="M80,173.4c.2,6.3.4,12.9,0,19.1a94.1,94.1,0,0,0,2.7,30.4c1.1-.1,0-.3,1.1-.5-3-8.6-3.1-18.1-2.8-27.1.8-29,0-29.9-1.5-35.8-.1.2-1.5-.8-2.4-1.7C79.4,162.6,79.9,168.1,80,173.4Z"/><path class="cls-15" d="M57,183.2c.2,1.3.3,2.5.4,3.8h.1c7.1,2.3,15,0,22-1.6a66.9,66.9,0,0,0,9.9-3.1,34,34,0,0,0,5.7-2.9c.2-1.3.3-2.5.6-3.7C78.6,185,57.4,182.9,57,183.2Z"/><path class="cls-16" d="M57,183.2c.2,1.3.3,2.5.4,3.8h.1c7.1,2.3,15,0,22-1.6a66.9,66.9,0,0,0,9.9-3.1,34,34,0,0,0,5.7-2.9c.2-1.3.3-2.5.6-3.7C78.6,185,57.4,182.9,57,183.2Z"/><path class="cls-15" d="M68.7,181.8c-.4.3-.7,17.4-.7,25.4v12.2c0,1.1.1,2.2.2,3.3h4.1a39.7,39.7,0,0,1-.1-4.9c-.1-3.8-.1-7.6-.1-11.5,0-6.5,1.6-34.9-1.5-43.1s-11.9-22.5-19.1-30.4a21.5,21.5,0,0,0-2.6,1.4c.1.3,14.6,20.6,17.9,29.8C68,167.3,68.8,175.7,68.7,181.8Z"/><path class="cls-16" d="M68.7,181.8c-.4.3-.7,17.4-.7,25.4v12.2c0,1.1.1,2.2.2,3.3h4.1a39.7,39.7,0,0,1-.1-4.9c-.1-3.8-.1-7.6-.1-11.5,0-6.5,1.6-34.9-1.5-43.1s-11.9-22.5-19.1-30.4a21.5,21.5,0,0,0-2.6,1.4c.1.3,14.6,20.6,17.9,29.8C68,167.3,68.8,175.7,68.7,181.8Z"/><path class="cls-15" d="M93.3,185.9c.2-1.1.5-2.2.7-3.3l.6-4.8c.5-3.2,1.1-6.4,1.9-9.5a51.1,51.1,0,0,0,1.3-5.3c.3-2.4-1.4-5.4-2.4-7.5a77.8,77.8,0,0,0-4.2-7.4,166.2,166.2,0,0,1-8.8-14.6,18.4,18.4,0,0,1-3.8-.4,38.7,38.7,0,0,0,2.7,4.3c2,3.2,3.9,6.4,5.8,9.6s3.5,6.5,5,9.8a25.6,25.6,0,0,1,1.7,4.3,10.2,10.2,0,0,1-.1,6.9,70.6,70.6,0,0,0-2.1,9.1c-.5,3-1.9,20.9-.7,26.6a64,64,0,0,0,5.6,15.7,33.1,33.1,0,0,0,3.3-1.5c-.1.1-.4-.7-.4-.7a96.3,96.3,0,0,1-5.6-19.7c-.7-3.6-1.4-7.7-.6-11.3A.4.4,0,0,1,93.3,185.9Z"/><path class="cls-16" d="M93.3,185.9c.2-1.1.5-2.2.7-3.3l.6-4.8c.5-3.2,1.1-6.4,1.9-9.5a51.1,51.1,0,0,0,1.3-5.3c.3-2.4-1.4-5.4-2.4-7.5a77.8,77.8,0,0,0-4.2-7.4,166.2,166.2,0,0,1-8.8-14.6,18.4,18.4,0,0,1-3.8-.4,38.7,38.7,0,0,0,2.7,4.3c2,3.2,3.9,6.4,5.8,9.6s3.5,6.5,5,9.8a25.6,25.6,0,0,1,1.7,4.3,10.2,10.2,0,0,1-.1,6.9,70.6,70.6,0,0,0-2.1,9.1c-.5,3-1.9,20.9-.7,26.6a64,64,0,0,0,5.6,15.7,33.1,33.1,0,0,0,3.3-1.5c-.1.1-.4-.7-.4-.7a96.3,96.3,0,0,1-5.6-19.7c-.7-3.6-1.4-7.7-.6-11.3A.4.4,0,0,1,93.3,185.9Z"/><path class="cls-7" d="M97.3,164.5a23.5,23.5,0,0,1-5.3,4.1,8.3,8.3,0,0,1-6.5.9c-2.2-.7-4.1-2.5-6.4-2.5a7.7,7.7,0,0,0-3.5,1.2c-4.6,2.1-10.1,3.2-14.6,1.1-.2.8-.4,1.6-.5,2.3s.3,1.9.4,2.9a6.1,6.1,0,0,0,1.2,1.6c1.9,1.6,4.8,2.4,5.5,5s-.3,3.8-1.4,5.5-2.6,2.9-2.1,4.6a2.1,2.1,0,0,1-.9,2.6c-.3,7.3-2.7,14-10.6,16.6,5.8-.2,4.3.1,10,1.3,2.2.5,4.4,1.2,6.6,1.6a36.2,36.2,0,0,0,9.3-.2,45.7,45.7,0,0,0,9.1-1.7c2.9-.9,5.6-2.3,8.6-2.5-2.3-4.5-3.1-9.8-3.4-14.9C92.1,184,93,173.6,97.3,164.5Z"/></g><g id="Plans"><path class="cls-17" d="M117.2,206.2l-113,8.5A3.9,3.9,0,0,1,0,210.6H0a3.9,3.9,0,0,1,3.3-3.7L117,188.8c.5-.1,7.3,1.2,5.7,9.6C121.5,204.2,118.4,206.1,117.2,206.2Z"/><path class="cls-18" d="M.3,212.4a4.1,4.1,0,0,0,3.9,2.3l113-8.5c1.2-.1,4.3-2,5.5-7.8.1-1,.2-1.8.2-2.6l-6.9.8-28.2,3.7-18.2,2.5L60.1,204a39.5,39.5,0,0,1-10.7-.8c-2.1-.9-4.5-.7-6.8-.4-6.3.6-12.6,1.6-18.7,2.8a31.8,31.8,0,0,0-5.3,1.4,37.5,37.5,0,0,0-4.1,1.9A24.7,24.7,0,0,1,6,211.5C5.6,211.6.4,212.6.3,212.4Z"/><path class="cls-17" d="M123.6,182.5,16.1,218.2a3.8,3.8,0,0,1-5.1-2.9h0a3.9,3.9,0,0,1,2.3-4.4l104.2-44.5C119.8,165.4,129,177.3,123.6,182.5Z"/><path class="cls-18" d="M125.1,176.4c-.2.1-9.1,3.9-8.1,2.1s-2.7-4-3.3-4.7-1.7-1-3.2-.6c-7.6,1.8-15.1,3.8-22.5,6.1a24.4,24.4,0,0,0-6.4,2.8,7.9,7.9,0,0,0-3.6,5.7,12.2,12.2,0,0,1-.3,2.6c-.7,1.5-3.5,2-5,2.6l-1,.7-2.9,1.1-3.6,1.7c-6.2,2.9-12.3,6.2-18.7,8.6-3,1.1-25.8,8.9-33.9,12.7a4.2,4.2,0,0,0,3.5.4l107.5-35.7C125.2,180.9,125.5,178.7,125.1,176.4Z"/><path class="cls-17" d="M113.9,191.3,11.6,207.6a3.8,3.8,0,0,1-4.5-3.7h0A3.8,3.8,0,0,1,10,200l102-26.1C117.2,175.6,119.6,186.7,113.9,191.3Z"/><path class="cls-18" d="M60.8,196.1c-10.1,2.1-20.2,4-30.3,5.8-7.5,1.4-15,4.1-22.7,4.2a3.9,3.9,0,0,0,3.8,1.5l102.3-16.3a9,9,0,0,0,3.1-5.8C98.3,189.1,79.5,192.2,60.8,196.1Z"/></g><g id="Head"><path class="cls-5" d="M104.5,46.8c1.5,2.6,1.5,5.8,1.3,8.8a113.6,113.6,0,0,1-3.1,20.1c-.6,2.6.9,9.9.4,17.1-.2,3.3-11.4,22.3-17.1,28.1-8.8,8.9-19.5,2.2-25-.7-8.4-4.4-19.7-13.7-20.9-18-.5-1.8-2.3-7.2-2.2-9-4.5,4.1-10,1.2-13.1-3s-5.6-10.6-4.3-15.8,8.9-3.6,12.3-.3c-2.5-2.5-7.7-17.3-5.3-27.1A33.1,33.1,0,0,1,39.6,28.9a45.2,45.2,0,0,1,20.2-8.4,37.9,37.9,0,0,1,9.5-.5,41.9,41.9,0,0,1,9.1,2.3,49.2,49.2,0,0,1,15.9,9c4.6,4.1,8.7,8.9,10.1,14.9.1.1.1.2,0,.2S104.4,46.8,104.5,46.8Z"/><path class="cls-7" d="M105.8,55.6c.2-3,.2-6.2-1.3-8.8-.1,0-.2-.4-.1-.4s.1-.1,0-.2c-1.4-6-5.5-10.8-10.1-14.9a49.2,49.2,0,0,0-15.9-9A41.9,41.9,0,0,0,69.3,20a37.9,37.9,0,0,0-9.5.5,45.2,45.2,0,0,0-20.2,8.4A33.1,33.1,0,0,0,27.5,47c-1.5,6-.1,13.8,1.7,19.6,8.3-2.4,16.7-4.1,25.3-4.1a2.1,2.1,0,0,1,1.9-1.1c7.4-.6,14.8-1.7,22.2-1.2,4.8.3,14.2-1.2,18.3,1.7,1.3,1,2.3,3.9,1.7,5.3-4,.2-10.1,3.5-11.1,7.4a6.5,6.5,0,0,1,3.4-3.3c1.4-.7,6-2.3,7.2-.5s.1,1.7.2,2.5a21.5,21.5,0,0,0,1.4,4.5c1.6,5.4,2.2,15.4.8,17.8-3,5-15.1,26.4-22.3,30.2,2.8-.4,5.2-2,7.8-4.9,7.9-9,16.9-24.8,17.1-28.1.5-7.2-1-14.5-.4-17.1A113.6,113.6,0,0,0,105.8,55.6Z"/><path class="cls-19" d="M84.2,85.5c2.4-2.6,5.9-1.6,9-1.5s5.1,0,6-1.8a5.9,5.9,0,0,0,.5-2.3,4.3,4.3,0,0,0-.1-.5c-.8,2.2-3.4,2.7-5.5,2.8s-5.5,0-8.3.8a2.3,2.3,0,0,0-1.6,2.6Z"/><path class="cls-19" d="M49.4,84.8c4.2,1.2,8.4.8,12.8.4,2.5-.2,9.4-.2,10.6,2.5A2.6,2.6,0,0,0,71.2,85c-3.7-1.5-7.7-1.4-11.7-1.3a36.8,36.8,0,0,1-5.8-.5,12,12,0,0,1-7.8-3.4C46.4,81.8,48,83.5,49.4,84.8Z"/><g class="cls-20"><path class="cls-17" d="M97.9,81c-3.4,2.7-9.2.8-13.1,2.7-.1-10.8,10.6-15.3,15.3-10.8C101.6,74.4,99.7,79.6,97.9,81Z"/><path class="cls-21" d="M80.3,76.9c.1,3.9,4.2,6.9,8.9,7s8.6-3,8.7-6.9-3.9-8.4-8.6-8.5S80.2,71.8,80.3,76.9Z"/><path class="cls-22" d="M80.3,76.9c.1,3.9,4.2,6.9,8.9,7s8.6-3,8.7-6.9-3.9-8.4-8.6-8.5S80.2,71.8,80.3,76.9Z"/><path class="cls-9" d="M85.7,77c.1,2,2.2,3.6,4.7,3.7a4,4,0,0,0,4.1-3.9,4.1,4.1,0,0,0-4.1-4.2A4.4,4.4,0,0,0,85.7,77Z"/><path class="cls-9" d="M85.7,77c.1,2,2.2,3.6,4.7,3.7a4,4,0,0,0,4.1-3.9,4.1,4.1,0,0,0-4.1-4.2A4.4,4.4,0,0,0,85.7,77Z"/><path class="cls-17" d="M89.1,76.1c.1.9,2.2,1.6,4.7,1.6s4-.7,4-1.6-1.6-1.8-4.1-1.8S89,75,89.1,76.1Z"/></g><g class="cls-23"><path class="cls-17" d="M53.3,82.7c6.3,1,12.1.8,18.3,1.8-.6-4.4-2.6-7.4-6.2-10.1a16.6,16.6,0,0,0-12.6-3.1,9.1,9.1,0,0,0-5.2,2.3,5.1,5.1,0,0,0-1.4,5.2C47.2,81.5,50.5,82.3,53.3,82.7Z"/><path class="cls-21" d="M47.8,77.2c.1,3.9,4.1,6.9,8.9,7s8.6-3,8.6-6.9-3.9-8.4-8.6-8.5S47.7,72.1,47.8,77.2Z"/><path class="cls-24" d="M47.8,77.2c.1,3.9,4.1,6.9,8.9,7s8.6-3,8.6-6.9-3.9-8.4-8.6-8.5S47.7,72.1,47.8,77.2Z"/><path class="cls-9" d="M52,76.9c.1,2.2,2,3.9,4.6,3.9s4.5-1.7,4.5-3.9a4.7,4.7,0,0,0-4.5-4.7A4.3,4.3,0,0,0,52,76.9Z"/><path class="cls-9" d="M52,76.9c.1,2.2,2,3.9,4.6,3.9s4.5-1.7,4.5-3.9a4.7,4.7,0,0,0-4.5-4.7A4.3,4.3,0,0,0,52,76.9Z"/><path class="cls-17" d="M55.4,76.6c0,.8,2,1.5,4.6,1.5s4.5-.6,4.5-1.4-1.9-1.7-4.6-1.8S55.3,75.5,55.4,76.6Z"/></g><path class="cls-3" d="M69.8,60.2h0a1.4,1.4,0,0,1-2,1.3c-12.3-6.4-22.5-2.2-26.9.5C51.7,51.4,69.4,59.6,69.8,60.2Z"/><path class="cls-3" d="M105.8,60.9a4.5,4.5,0,0,0-.1,1.1,16.6,16.6,0,0,0-16.6.8c-.7.4-1.5-.4-1.5-1.4h0C87.9,60.9,97.9,55.7,105.8,60.9Z"/><path class="cls-25" d="M58.5,72a18.3,18.3,0,0,0-7.7,1.1c-6.4,2-9.4.7-10.9-.5a25.6,25.6,0,0,0,6.2-.5c1-.1,7.7-3.4,13.5-2.3,10,1.9,11.9,14.5,11.2,14.8C70.1,77.7,65.6,72.9,58.5,72Z"/><path class="cls-25" d="M93.5,71.3a8.7,8.7,0,0,1,5.2,1c4.3,2,6.4.6,7.4-.6a12,12,0,0,1-4.2-.4c-.7-.2-5.1-3.3-9.2-2.2-6.8,2-8.5,14.6-8,14.9C85.4,77.1,88.6,72.2,93.5,71.3Z"/><path class="cls-7" d="M83.6,34.4C83,30,82,25.5,81.5,21a29.4,29.4,0,0,0-6.8-1.6,3.9,3.9,0,0,0-2.3,2.2c-4.2-7.9-24.2-6.6-30.1,1C22.2,48.3,8.6,81.2,5.3,113.5c-.9,9.4-.4,19.2,3.1,28a27.3,27.3,0,0,1-.8-9A36.9,36.9,0,0,0,17.9,154a44.1,44.1,0,0,1-5.1-13.2,27.1,27.1,0,0,0,17.7,16.6c-4.7-1.4-6.1-14.2-6.3-17.8a48.8,48.8,0,0,1,2.4-19.2,13.4,13.4,0,0,0,2.4,9.3,21.5,21.5,0,0,1-.2-14.8c-1.6,6.3,3.6,12.8,10.6,13.3-4.7-2.1-7.4-6.8-7.9-11.7s1-9.9,2.8-14.8A117.6,117.6,0,0,1,54,68.4a66.6,66.6,0,0,1-7.4,10.8c4.8-4.9,11.1-8.1,15.8-13.1a33.4,33.4,0,0,0,7.3-13c1.7,4.6-3.9,17.3-8.8,19.4A21,21,0,0,0,70.7,63a40.3,40.3,0,0,0,4.4-13.2,38.2,38.2,0,0,1,1.6-7.3c1-2.8,5.2-8.6,7.4-4.2C84,37,83.8,35.7,83.6,34.4Z"/><path class="cls-26" d="M115.4,123.3c.6,1.3,2,2,3,2.8a23.1,23.1,0,0,0,3.6,2.5c-4.8-5.2-7.6-12.2-9.3-19.5-3.2-13.9-3.4-29-5.8-43.8-1.7-10.5-4.7-21.1-10.9-29.9S81,19.6,69.4,18.6a3.7,3.7,0,0,0-2.1,2.3c-4.6-7.9-24.5-6-30.1,1.8C18.3,49.4,6.2,83,4.4,115.7c-.5,9.6.5,19.5,4.3,28.3a34.4,34.4,0,0,1-1.2-9.1,38.3,38.3,0,0,0,11.3,21.5,46.7,46.7,0,0,1-5.7-13.2,27.4,27.4,0,0,0,18.4,16.2c-4.7-1.2-6.6-14.2-7-17.8A48.1,48.1,0,0,1,26,122.1a13.3,13.3,0,0,0,2.8,9.4,22.6,22.6,0,0,1-.9-15c-1.3,6.4,4.2,12.9,11.2,13.2-4.8-2-7.6-6.7-8.4-11.6s.5-10.1,2.1-15.1A120.6,120.6,0,0,1,51,68.7a57.3,57.3,0,0,1-6.9,11.1c4.6-5,10.7-8.4,15.2-13.6s5.3-8.4,6.7-13.4c1.9,4.6-3.2,17.6-7.9,19.9a21.5,21.5,0,0,0,9.4-9.9,41,41,0,0,0,3.7-13.5,38.3,38.3,0,0,1,1.3-7.4c.9-2.9,5-9.1,7.4-4.1.6,1.2,1.6-1,2.5-1.4a3.2,3.2,0,0,1,1.7-.2,6.2,6.2,0,0,1,3.2,2.3c8.8,10.8,17.3,26.8,17.8,49.1.1,12.5-2.2,25.1.6,37.5,2.1,9.8,12.6,21,6.7,29.1a19.5,19.5,0,0,0,3.9-13.8,46.1,46.1,0,0,0-1.5-7.2c-.3-1.3-.7-2.7-1-4s-.6-2.6-1-4.1c1.2,5.5,5.8,9.8,6.8,15.3a25.1,25.1,0,0,0-.1-6.7,26.5,26.5,0,0,0-1.2-3.7C117.4,127.8,116.4,125.5,115.4,123.3Z"/><path class="cls-4" d="M49.3,54.9A158.6,158.6,0,0,0,39.1,72.8a67.8,67.8,0,0,1,9.6-13.1l-4.5,8.7,8-9.3A93.5,93.5,0,0,0,34.8,89.4,122.7,122.7,0,0,1,52.5,62.5a75.4,75.4,0,0,0-8.6,15.1A127.3,127.3,0,0,1,55.2,62.4q-2.9,6.3-6.3,12.3A108,108,0,0,0,65.2,45.9a48.7,48.7,0,0,1-7.6,19.4A62.5,62.5,0,0,0,67.7,45.8,51.1,51.1,0,0,1,63,69.2a54.9,54.9,0,0,0,8.4-30.5,31,31,0,0,0-3-13.5,17.6,17.6,0,0,0-10.2-9.1c-6-1.8-12.8.7-17.5,4.9s-7.9,9.9-11,15.5c-2.1,3.9-4.3,7.8-6.2,11.9A155.5,155.5,0,0,0,12.2,80.1,190.4,190.4,0,0,1,33.2,38C27.5,49.8,21.7,61.7,18.3,74.3a148.2,148.2,0,0,1,11.8-26L24.4,63.2l8.9-17.6c-3.9,9.3-7.7,18.7-11.2,28.1-1.7,4.7-3.5,9.4-3.6,14.4,2.5-14.4,10-27.4,17.4-40A106.2,106.2,0,0,0,25.8,71.6a129.7,129.7,0,0,1,8.9-17.9A109.7,109.7,0,0,0,28,71.6,81.9,81.9,0,0,1,39.5,53.1,142.3,142.3,0,0,0,24.3,88.5,142.7,142.7,0,0,1,43.4,54.4a101.5,101.5,0,0,0-9.2,17.2l11.9-17A277.6,277.6,0,0,0,30.8,84.3,138.5,138.5,0,0,1,49.3,54.9Z"/><path class="cls-4" d="M5.3,113.7a98.4,98.4,0,0,0,1.1,23,62.2,62.2,0,0,1,0-12.2,40.1,40.1,0,0,0,.5,8.5,31,31,0,0,1,.7-8.6,44.5,44.5,0,0,0,5.7,25.4,38.1,38.1,0,0,1-4.1-18.4,38.7,38.7,0,0,0,3.1,15A48.1,48.1,0,0,1,11,128.7a36.1,36.1,0,0,0,13.5,26.5,35.1,35.1,0,0,1-8.9-15.4A35.4,35.4,0,0,0,20.9,150a26.4,26.4,0,0,1-3.2-8.2,58.7,58.7,0,0,0,6.8,11.6,29.7,29.7,0,0,1-4.7-15.6,90.5,90.5,0,0,0,8.1,18.9,38.7,38.7,0,0,1-4.6-20.1,68.5,68.5,0,0,1,4.1-20.4,72.7,72.7,0,0,0-.7,10.4,45.6,45.6,0,0,1,1.7-13.2,29.9,29.9,0,0,0,2.3,9.7,119.6,119.6,0,0,1-.9-20.7c-2.6,8.3-4.9,16.6-6.9,25,0-4.5.2-8.9.6-13.4a121.6,121.6,0,0,0-2.3,13.2,44.1,44.1,0,0,0-.5-8.1l-1.1,13.6c-1.6-7.9-1.5-16-1.5-24-2.3,8.4-2.3,17.3-1.3,26-2-5.9-2-12.3-1.9-18.6a37.1,37.1,0,0,0-.5,13.7,90.4,90.4,0,0,1-1.5-14.7,78.9,78.9,0,0,0-1,10.9l-1.4-11.2-.3,8.9L8.6,112.6c-.2,2.1-.3,4.3-.3,6.5a139.3,139.3,0,0,1-.5-19.4c-1.4,6.9-1.3,14-1.1,21l-1-19.2a181.4,181.4,0,0,0-1.3,18.1"/><path class="cls-4" d="M80.9,36.2c.9-1.7,3.2-2.1,4.9-1.4A10,10,0,0,1,90,38.5c8.8,12.1,13.5,26.2,15.8,41.9a120.7,120.7,0,0,0-2.6-17.9c1,3.9,1.8,7.9,2.5,11.9l-.4-11A200.8,200.8,0,0,1,107.6,88a77.2,77.2,0,0,0-9.9-45.9,47.5,47.5,0,0,0-9.4-11.9,25.7,25.7,0,0,0-13.5-6.4c-.6-.1-1.4.1-1.4.7a.9.9,0,0,0,.3.6C76.3,28.7,80.1,31.8,80.9,36.2Z"/><path class="cls-27" d="M104.4,75.4a17.6,17.6,0,0,1-.7-4.5A44.8,44.8,0,0,1,106.3,84l-1.1-12.1,1.5,8.8V78.6l-.6-12a165.7,165.7,0,0,1,2.1,19.9l1.2,16.7V83l1,11.8c.2,2.9.5,5.9.9,8.8a62.9,62.9,0,0,0,4.3,14.8,45.1,45.1,0,0,1-5.5-11.5,32.9,32.9,0,0,0,2.1,7.6,28.9,28.9,0,0,1-3-5.8,41.1,41.1,0,0,0,1.7,6c-1.8-4.8-1.6-10-2.5-15.1.8,6.7.6,13.7,2.8,20a28.1,28.1,0,0,1-1.8-5.6l-2.3-9.1c.1,6,1.6,11.9,3.1,17.8l-3.5-13.1a49.5,49.5,0,0,0,1.3,15.8,45.4,45.4,0,0,1-2.5-13.7c-1.1,6,.8,12,2.6,17.8-2.1-3.3-2.7-7.4-3.1-11.4-.9-9.9.4-42-1.5-47.2.5.8.2,3.2.5,4l.2.5.2.2C104.5,75.6,104.5,75.5,104.4,75.4Z"/><path class="cls-4" d="M115.4,143.7c-1.3-7-2.5-14.1-2.4-21.2l6.6,15.5c-1.7-5.7-3.1-11.5-4.4-17.2a30.6,30.6,0,0,1,4.2,5.3L112.8,116a47.5,47.5,0,0,1,1.4,6.3,10.8,10.8,0,0,0-.8-1.9l.6,3-2.5-6.3a12.4,12.4,0,0,1,.8,6.3,14.8,14.8,0,0,1-2-4.8,45,45,0,0,1,1.2,11.5c-.2-2.2-.5-5.8-1.8-7.6-.1,1.7-.4,4.8.1,6.5l-1.9-8.2c.2,3.2.2,6,.3,9.2q-.9-3.3-1.5-6.6c0,8.5,7.1,15.4,9,23.8l-.6-5.6"/><path class="cls-12" d="M11.7,76.7a37.6,37.6,0,0,1,3.5-9.9L12.7,77.5c-.8,3.4-1.6,6.8-1.4,10.2A138.4,138.4,0,0,1,21.5,59.2c-2.4,6.7-4.6,13.4-6.6,20.2a81.6,81.6,0,0,0,4.2-11.7,189.1,189.1,0,0,0-4,19.6l5-16.2a38.6,38.6,0,0,1,4.5-10.9A156.3,156.3,0,0,0,18,81.3q3.6-8.8,6.9-17.7c-1.6,4.9-3.2,9.9-4.7,14.9S17.1,88.9,17,94.3A285,285,0,0,1,28.2,63.4,145.1,145.1,0,0,0,21,87.5a93.1,93.1,0,0,1,6.1-15.4A85,85,0,0,0,22.7,87a126.7,126.7,0,0,1,11-25.4c-4.5,10.7-9,21.4-11.3,32.8A120.9,120.9,0,0,1,33.9,70a140.5,140.5,0,0,0-7.3,17.5,63.7,63.7,0,0,1,6.1-11.2C31,80,29.5,83.9,28.1,87.8a98.1,98.1,0,0,1,13.4-23c-3.2,4.1-5.7,9.4-8,14a71.9,71.9,0,0,0-3.2,7.6c-.9,2.3-2.3,5.6-2.2,7.9,3.1-6.2,5.8-12.7,8.8-18.9a73.4,73.4,0,0,0-3.7,11.2A93.4,93.4,0,0,1,43.3,67.3L38.6,77.7c-2.3,5.3-4.7,10.6-6.1,16.1L46.9,69.1C39.6,81.9,33.3,95.7,30.1,110c.4-5,.5-7.7.9-12.8-2.6,7.9-4.6,13.2-7.6,20.9.5-4.9,2.6-9.6,2.1-14.5L22.8,114a135.6,135.6,0,0,1,1.9-15.6,69.6,69.6,0,0,0-2.6,8.9l.6-9a144.2,144.2,0,0,0-3.1,26.1c-1.4-9.5,0-19.2,1.3-28.7-2.4,8.1-7.1,15.8-7.2,24.3a87.8,87.8,0,0,1,.1-17c-1.6,4.3-1.9,8.9-2.1,13.4-1.2-7.5.4-15.2,2.1-22.6a47.1,47.1,0,0,0-4.2,21.6,135.2,135.2,0,0,1,1.1-22,68.3,68.3,0,0,0-2,12,70.6,70.6,0,0,0,.3-13,70,70,0,0,0-3.2,20.8c.8-11.4,1.6-22.9,5.3-33.7C11.4,78.5,11.4,77.7,11.7,76.7Z"/><path class="cls-7" d="M65.2,69.8a32.1,32.1,0,0,1,8.7,7.7,15,15,0,0,0-.2-4.7C71.9,64.5,63.3,53.1,56,55.3a13.5,13.5,0,0,0-9.2,11.5,6.8,6.8,0,0,0,.2,2C53,66.4,59.5,66.4,65.2,69.8Z"/><path class="cls-28" d="M87.5,64.1s-2.3,2.9-4.1,9.4a68,68,0,0,0-2.2,8.8C81.5,76.7,83.2,68.5,87.5,64.1Z"/><path class="cls-28" d="M83.7,91.2a1.5,1.5,0,0,0,.2-1.7,2.8,2.8,0,0,0-3-2,6.9,6.9,0,0,1-2.5-.1c-.6-.1,3.7-.7,5.6.7s1.7,3.2,0,4.1c-3.3,1.8-6.9,1.6-10.4-.7C73.2,91.2,81.2,93,83.7,91.2Z"/><path class="cls-19" d="M74.6,89a12.2,12.2,0,0,1,5.1-1.9,4.6,4.6,0,0,1,4.6,2.2c-.7,1.1-2.2,1.4-3.5,1.5S76.1,90.6,74.6,89Z"/><path class="cls-7" d="M87.2,64.5c-4.1,6.6-6.4,11.8-6.5,19.5,7.3-23.3,19.8-19.5,19.8-19.8-.3-2-.1-5.1-6.6-3C91,62.1,88.8,62,87.2,64.5Z"/><path class="cls-7" d="M75.3,92.5a17.7,17.7,0,0,0,5.6.4,4.8,4.8,0,0,0,2.9-1,2.2,2.2,0,0,0,.6-2.8c-.9-1.4-3.3-1.2-3.8-2.7a1.7,1.7,0,0,1,0-1,28.2,28.2,0,0,1,1.5-7,11.6,11.6,0,0,0,2.6,9,9.4,9.4,0,0,1,2.1,2.8,4.6,4.6,0,0,1-.8,3.9,10.7,10.7,0,0,1-2.9,2.7A4.4,4.4,0,0,1,80.3,98a3.8,3.8,0,0,1-1.7-.8A10.4,10.4,0,0,1,75.3,92.5Z"/><path class="cls-17" d="M77.7,113.2a5.9,5.9,0,0,0,4.5-2.2,8.8,8.8,0,0,0,1-2.7,27.4,27.4,0,0,1,4-7.8c-9.6-.7-19.5,2.2-28.9,0,2.6,2.5,5.3,4.9,8,7.2S73.4,113.4,77.7,113.2Z"/><path class="cls-29" d="M82.8,115.2c2-1.7,4.6-12.2,4-14.8-1.5,2.4-4.5,10.4-5.5,11.4a5,5,0,0,1-4.4,1.1,14.1,14.1,0,0,1-4.4-1.8,65.9,65.9,0,0,1-10.9-7.9,13.1,13.1,0,0,0-4-2.6,109.2,109.2,0,0,0,9.1,10.1c2.1,2.2,4.5,4.4,7.3,5.5S80.5,117.3,82.8,115.2Z"/><path class="cls-30" d="M86.8,100.4c-1.2,1.9-3.4,7.4-4.7,10a3.2,3.2,0,0,1,0,4.1c-.8,1-2.2,1.2-3.4,1.4a12.5,12.5,0,0,1-4.7-.4,7.8,7.8,0,0,1-2.1-.4,10.6,10.6,0,0,0,2.1,1.1c2.9,1.2,6.5,1.1,8.8-1S87.4,103,86.8,100.4Z"/><path class="cls-31" d="M88.4,100.3c-1.1-1.6-3.3-1.8-5.3-1.9-8.5-.1-17.4,2-25.9,2.3a134.6,134.6,0,0,0,22,1C82.3,101.6,85.5,101.5,88.4,100.3Z"/><path class="cls-30" d="M83.1,98.4l-5.3.2c-.1,0,10.5.8,1.5,3.1,3-.1,7.9-.7,8.4-1.3S85,98.5,83.1,98.4Z"/><path class="cls-7" d="M55.7,102.7a2.1,2.1,0,0,1,.4-.6,13.6,13.6,0,0,1,5.7-3.5,5.3,5.3,0,0,0-3.9.4,4.6,4.6,0,0,0-2,1.3,2.2,2.2,0,0,0-.4,2.2C55.6,102.6,55.6,102.7,55.7,102.7Z"/></g><g id="helmet"><path class="cls-32" d="M17.6,57.9A80.7,80.7,0,0,0,20.9,47c.2-1,2-1.2,1.4-1.7.5-5.2-.2-11.8,2.8-17a3.6,3.6,0,0,0,.4-2.2C28.8,19.4,35.6,9,43.1,7.1a82.3,82.3,0,0,1,25.7-.9c1.9.2,3.9.4,5.9.8S85.3,9.2,86.2,9.7a31.8,31.8,0,0,1,7,6.7,65.5,65.5,0,0,1,5.1,7c3.9,12.1,5.3,23.8,7.7,36.4-15.5.7-54.5,3.5-67,2A158.1,158.1,0,0,1,17.6,57.9Z"/><path class="cls-33" d="M106.4,31.6c1.7,5.3,1.1,11.3,2,16.9a1.2,1.2,0,0,0,.9.9,18.6,18.6,0,0,1,9.1,4.5,1.3,1.3,0,0,1-.5,2h0a31.8,31.8,0,0,1-5.1,1.3c-4.7.7-60.6,1.8-73.1,1.3-1.1.1-15.1-2.2-19-3.6-1.9-.7-4.1-1.7-3.8-6.4C18.9-10.1,94.8-15.5,106.4,31.6Z"/><g class="cls-34"><path class="cls-9" d="M106.4,31.6c1.7,5.3,1.1,11.3,2,16.9a1.2,1.2,0,0,0,.9.9,18.6,18.6,0,0,1,9.1,4.5,1.3,1.3,0,0,1-.5,2h0a31.8,31.8,0,0,1-5.1,1.3c-4.7.7-60.6,1.8-73.1,1.3-1.1.1-15.1-2.2-19-3.6-1.9-.7-4.1-1.7-3.8-6.4C18.9-10.1,94.8-15.5,106.4,31.6Z"/></g><path class="cls-33" d="M89.7,33.2c-.2-2-.6-4-.7-6,2.6.8,9.1,2.9,9.5,4.8.7,3.6,2.7,14.9,3,17-4-.1-6.7.8-10.4.8C91.1,46.9,89.9,35.5,89.7,33.2Z"/><path class="cls-19" d="M42.7,32c2.8-.7,9.2-2.6,12.1-2.7.8,0-10.7,3-10.5,4.5s-.9,12.3-1,17.5c0,.4-2.5.2-2.3.2S42.9,35,42.2,32.6C42.1,32.3,42.4,32.1,42.7,32Z"/><path class="cls-18" d="M60.4,26c.6,8,1.4,16,.3,24.1H59.3A59,59,0,0,0,59.5,39c-.2-4.4-.9-8.6-1.5-12.9s-1-8.2.6-11.6,3.2-2.8,4.6-3.7c-1.7,2.3-3.1,3.2-3.1,10.6C60.1,23,60.3,24.6,60.4,26Z"/><path class="cls-18" d="M90.3,24.7c.5.5,8.7,2.9,9.1,4.7s2,6.6,2.5,8.3,2.5,10.5,2.6,10.5.2-.3-.9-.2c-1.9-6.3-3.4-14.5-4.9-17s-8.7-3.9-9.4-4c.4,6.9,2.4,15.8,2.4,22.8-1.1,0-.7.3-1.8.3s1.1-30.4-10-37.6A21.9,21.9,0,0,0,66.8,9.2c3.1.3,6.7-1.4,9.7-.5C90.2,12.7,89.8,24.3,90.3,24.7Z"/><path class="cls-7" d="M41,51.8H38.9c.6-7,1.1-15.8,1.2-22,1.7-.4,13-2.3,17.9-3.9-.1,1.1.8,1.5-.7,1.9-3.7,1.1-11.8,2.7-15.4,3.8C41.5,38,41.5,45.4,41,51.8Z"/><path class="cls-19" d="M60.6,51.3c0-1.8.6-20.6-.3-27.8S59.3,11.9,67,9.4c4.1-1.3-2.4.4-.4,13.8.5,3.2.8,6.4,1,9.6a136.7,136.7,0,0,1-.3,18.1c-1.3,0,29-1.1,39.5-1.7,2.1-.2,10.6,3.8,10.2,5.4-7.3,2-41.3,2.8-51,3S29.6,57,19,54C18.9,53.1,38.7,52.2,60.6,51.3Z"/><path class="cls-35" d="M46,4.2a2.7,2.7,0,0,1,1.2-.3c-4.4,1.8-27.9,18.8-29,49.2C17.6,52.8,13.8,19.4,46,4.2Z"/></g><g id="thumbs_up" data-name="thumbs up"><path class="cls-5" d="M160.1,144a25.8,25.8,0,0,0,.4-3.8c0-.2,0-.3.1-.4a4.8,4.8,0,0,0-.2-3.9c-.3-.8-.7-1.5-1.7-1.6s-10.6-1.3-11.9-1.6a5.1,5.1,0,0,1-3.1-2.5,3,3,0,0,1,.2-3.7c1.9-2.5,1.8-5,.2-7.6l-1.6-2.1a2.8,2.8,0,0,0-2.3-1.1,1.3,1.3,0,0,0-1.4,1.2,90,90,0,0,1-2.5,14.6c-.2,1.1-.5,2.2-.8,3.3s-.5,9.2-.4,10.1l.3,2.6c0,.2,0,.3.1.4a9.3,9.3,0,0,0,5.5,5.3c1,.3,1.9.7,2.9.9h.4a40,40,0,0,0,7.8,1.6,3.7,3.7,0,0,0,3.3-1,4.4,4.4,0,0,0,1.4-3.3,1.1,1.1,0,0,1,.4-.9,4.2,4.2,0,0,0,1.5-3.7,3.2,3.2,0,0,1,.3-.9A9.9,9.9,0,0,0,160.1,144Z"/><path class="cls-7" d="M135,141.5c.1,2.1.3,5.2.4,6.4a11.3,11.3,0,0,0,1.2,2.1,6.8,6.8,0,0,1,1.8-5.8c2.7-2.2,5-4.2,6.5-7.4a4.2,4.2,0,0,0,.5-3.4,14,14,0,0,1-4,7.2,6,6,0,0,1-1.9,1.6,3.1,3.1,0,0,1-2.3.2,2.9,2.9,0,0,1-1.7-2.4c-.4-2.2.5-4.9,1.3-6.9a39.7,39.7,0,0,0,2.3-9c.3-2.6-.3-6.2,1.4-8.4h-.3a1.3,1.3,0,0,0-1.4,1.2,90,90,0,0,1-2.5,14.6c-.3,1.7-.8,3.4-1.2,5a.9.9,0,0,0-.1.5,20.9,20.9,0,0,0-.1,2.5C134.9,139.6,134.9,140.4,135,141.5Z"/><path class="cls-7" d="M148.6,149.4c-1,0-2.5.1-2.7,1.3a4.4,4.4,0,0,0,.5,2.8,2.8,2.8,0,0,1-.8-2.1c0-.8.2-1.6.2-2.3l-.3-1.9a5.5,5.5,0,0,1,.3-1.7,3.2,3.2,0,0,0,.6-1.5c0-.3-.1-.6-.1-.9a6.1,6.1,0,0,1,.7-4.2,2.5,2.5,0,0,0,.4-.7,3.3,3.3,0,0,0-.1-1.4,3.6,3.6,0,0,1,1-3.3c.8-.6,2.8-.3,3.7,0a4.6,4.6,0,0,0-3.2,1.7,1.2,1.2,0,0,0-.4,1.1l.5.5a15.3,15.3,0,0,0,2.1,1.4,65.7,65.7,0,0,0,8.8,1.7,57.8,57.8,0,0,1-7-.8c-1.2-.2-2.5-.8-3.6-.5a2.5,2.5,0,0,0-.4,4.9c1,.5,6.7,1.5,8.3,2.2a25.3,25.3,0,0,1-6-1.1l-2.1-.5a2.2,2.2,0,0,0-2.2,1.4c-.5,1.9,1.3,3,2.9,3.4s4.4.8,6.3,1.5C153.6,150.7,151.1,149.4,148.6,149.4Z"/></g><g id="Hand"><path class="cls-5" d="M75.5,194.9a1.1,1.1,0,0,0-1.3-.4l-1.6.7-2.2,1.2-1.9.5-1.2.2-1.2.3a40.1,40.1,0,0,0-6.2,1.4,9.6,9.6,0,0,0-2.5,1.2c-2,1.2-4.2,2.8-4,3.1s4.2,3,5.1,3.5,5.5,3.7,7.6,5.2c6.9,1.5,14.7-2.7,14.8-2.7s-10.5-1.4-13-3.7c-1-1-1.2-1.8-1-2.3l.2-.3,1-.9h.3a4.7,4.7,0,0,1,2-.6l.5-.2a4.3,4.3,0,0,0,2.4-1l.2-.2c1.2-1.1,2.5-2.7,2.2-4.2h0A1.1,1.1,0,0,0,75.5,194.9Z"/><path class="cls-7" d="M64.7,203.6h.2a4.2,4.2,0,0,0,2.2.8,1.9,1.9,0,0,1-.2-1.4l.2-.3,1-.9h.3a4.7,4.7,0,0,1,2-.6l.5-.2a4.3,4.3,0,0,0,2.4-1l.2-.2a6.6,6.6,0,0,0,2.1-2.9,13.4,13.4,0,0,1-3.1,1.7,56,56,0,0,1-5.4,1.7c-.8.2-2.8,1.3-3.1,2.3A2.3,2.3,0,0,0,64.7,203.6Z"/><path class="cls-7" d="M74.6,208a2.2,2.2,0,0,1-2.2,3c-2.9,0-5.6.3-8.3-.7l2,1.5c6.9,1.5,14.7-2.7,14.8-2.7S77.8,208.7,74.6,208Z"/><path class="cls-5" d="M24.5,196.5c1.6,4.9,21.5,8.5,34.9,8.8,2.3,0,2.8-3.3.9-4.5-7.7-5.2-21.4-12.7-20.8-13.7,1.7-3.1,2.8-7.6,3.5-9.4-3.1-2.1-13.4-4.7-13.5-4.2C29,176,23.7,193.9,24.5,196.5Z"/><path class="cls-7" d="M56.2,198.4c-3.7-3.3-16.9-11-16.7-11.3l2.3-4.7,2-5.1c-3.1-2.1-14.2-4.3-14.3-3.8s-.3,1.2-.5,2.3c2.9.6,6.2,1.8,7.5,4.7a7.3,7.3,0,0,1-.9,7.5,10.9,10.9,0,0,1-1.7,1.3,29.2,29.2,0,0,0-3.2,2.8c1.3-1.4,4.1-2,5.9-2.1s4,.8,6.1,1.6A94.8,94.8,0,0,1,56.2,198.4Z"/></g></g></g></g></svg>